<?xml version="1.0" encoding="utf-8" standalone="no"?>
<!DOCTYPE svg PUBLIC "-//W3C//DTD SVG 1.1//EN"
  "http://www.w3.org/Graphics/SVG/1.1/DTD/svg11.dtd">
<!-- Created with matplotlib (http://matplotlib.org/) -->
<svg height="360pt" version="1.1" viewBox="0 0 720 360" width="720pt" xmlns="http://www.w3.org/2000/svg" xmlns:xlink="http://www.w3.org/1999/xlink">
 <defs>
  <style type="text/css">
*{stroke-linecap:butt;stroke-linejoin:round;}
  </style>
 </defs>
 <g id="figure_1">
  <g id="patch_1">
   <path d="
M0 360
L720 360
L720 0
L0 0
z
" style="fill:#ffffff;"/>
  </g>
  <g id="axes_1">
   <g id="patch_2">
    <path d="
M44.05 320
L336.942 320
L336.942 28.5
L44.05 28.5
z
" style="fill:#eaeaf2;"/>
   </g>
   <g id="matplotlib.axis_1">
    <g id="xtick_1">
     <g id="line2d_1">
      <path clip-path="url(#pf75fcae577)" d="
M81.3986 320
L81.3986 28.5" style="fill:none;stroke:#ffffff;stroke-linecap:round;"/>
     </g>
     <g id="line2d_2">
      <defs>
       <path d="
M0 0
L0 0" id="m219da94a98" style="stroke:#262626;"/>
      </defs>
      <g>
       <use style="fill:#262626;stroke:#262626;" x="81.3986183935" xlink:href="#m219da94a98" y="320.0"/>
      </g>
     </g>
     <g id="line2d_3">
      <g>
       <use style="fill:#262626;stroke:#262626;" x="81.3986183935" xlink:href="#m219da94a98" y="28.5"/>
      </g>
     </g>
     <g id="text_1">
      <!-- 20 -->
      <defs>
       <path d="
M4.15625 35.2969
Q4.15625 48 6.76562 55.7344
Q9.375 63.4844 14.5156 67.6719
Q19.6719 71.875 27.4844 71.875
Q33.25 71.875 37.5938 69.5469
Q41.9375 67.2344 44.7656 62.8594
Q47.6094 58.5 49.2188 52.2188
Q50.8281 45.9531 50.8281 35.2969
Q50.8281 22.7031 48.2344 14.9688
Q45.6562 7.23438 40.5 3
Q35.3594 -1.21875 27.4844 -1.21875
Q17.1406 -1.21875 11.2344 6.20312
Q4.15625 15.1406 4.15625 35.2969
M13.1875 35.2969
Q13.1875 17.6719 17.3125 11.8281
Q21.4375 6 27.4844 6
Q33.5469 6 37.6719 11.8594
Q41.7969 17.7188 41.7969 35.2969
Q41.7969 52.9844 37.6719 58.7812
Q33.5469 64.5938 27.3906 64.5938
Q21.3438 64.5938 17.7188 59.4688
Q13.1875 52.9375 13.1875 35.2969" id="ArialMT-30"/>
       <path d="
M50.3438 8.45312
L50.3438 0
L3.03125 0
Q2.9375 3.17188 4.04688 6.10938
Q5.85938 10.9375 9.82812 15.625
Q13.8125 20.3125 21.3438 26.4688
Q33.0156 36.0312 37.1094 41.625
Q41.2188 47.2188 41.2188 52.2031
Q41.2188 57.4219 37.4688 61
Q33.7344 64.5938 27.7344 64.5938
Q21.3906 64.5938 17.5781 60.7812
Q13.7656 56.9844 13.7188 50.25
L4.6875 51.1719
Q5.60938 61.2812 11.6562 66.5781
Q17.7188 71.875 27.9375 71.875
Q38.2344 71.875 44.2344 66.1562
Q50.25 60.4531 50.25 52
Q50.25 47.7031 48.4844 43.5469
Q46.7344 39.4062 42.6562 34.8125
Q38.5781 30.2188 29.1094 22.2188
Q21.1875 15.5781 18.9375 13.2031
Q16.7031 10.8438 15.2344 8.45312
z
" id="ArialMT-32"/>
      </defs>
      <g style="fill:#262626;" transform="translate(76.2236183935 334.1578125)scale(0.1 -0.1)">
       <use xlink:href="#ArialMT-32"/>
       <use x="55.615234375" xlink:href="#ArialMT-30"/>
      </g>
     </g>
    </g>
    <g id="xtick_2">
     <g id="line2d_4">
      <path clip-path="url(#pf75fcae577)" d="
M120.713 320
L120.713 28.5" style="fill:none;stroke:#ffffff;stroke-linecap:round;"/>
     </g>
     <g id="line2d_5">
      <g>
       <use style="fill:#262626;stroke:#262626;" x="120.712953544" xlink:href="#m219da94a98" y="320.0"/>
      </g>
     </g>
     <g id="line2d_6">
      <g>
       <use style="fill:#262626;stroke:#262626;" x="120.712953544" xlink:href="#m219da94a98" y="28.5"/>
      </g>
     </g>
     <g id="text_2">
      <!-- 40 -->
      <defs>
       <path d="
M32.3281 0
L32.3281 17.1406
L1.26562 17.1406
L1.26562 25.2031
L33.9375 71.5781
L41.1094 71.5781
L41.1094 25.2031
L50.7812 25.2031
L50.7812 17.1406
L41.1094 17.1406
L41.1094 0
z

M32.3281 25.2031
L32.3281 57.4688
L9.90625 25.2031
z
" id="ArialMT-34"/>
      </defs>
      <g style="fill:#262626;" transform="translate(115.454359794 334.1578125)scale(0.1 -0.1)">
       <use xlink:href="#ArialMT-34"/>
       <use x="55.615234375" xlink:href="#ArialMT-30"/>
      </g>
     </g>
    </g>
    <g id="xtick_3">
     <g id="line2d_7">
      <path clip-path="url(#pf75fcae577)" d="
M160.027 320
L160.027 28.5" style="fill:none;stroke:#ffffff;stroke-linecap:round;"/>
     </g>
     <g id="line2d_8">
      <g>
       <use style="fill:#262626;stroke:#262626;" x="160.027288695" xlink:href="#m219da94a98" y="320.0"/>
      </g>
     </g>
     <g id="line2d_9">
      <g>
       <use style="fill:#262626;stroke:#262626;" x="160.027288695" xlink:href="#m219da94a98" y="28.5"/>
      </g>
     </g>
     <g id="text_3">
      <!-- 60 -->
      <defs>
       <path d="
M49.75 54.0469
L41.0156 53.375
Q39.8438 58.5469 37.7031 60.8906
Q34.125 64.6562 28.9062 64.6562
Q24.7031 64.6562 21.5312 62.3125
Q17.3906 59.2812 14.9844 53.4688
Q12.5938 47.6562 12.5 36.9219
Q15.6719 41.75 20.2656 44.0938
Q24.8594 46.4375 29.8906 46.4375
Q38.6719 46.4375 44.8438 39.9688
Q51.0312 33.5 51.0312 23.25
Q51.0312 16.5 48.125 10.7188
Q45.2188 4.9375 40.1406 1.85938
Q35.0625 -1.21875 28.6094 -1.21875
Q17.625 -1.21875 10.6875 6.85938
Q3.76562 14.9375 3.76562 33.5
Q3.76562 54.25 11.4219 63.6719
Q18.1094 71.875 29.4375 71.875
Q37.8906 71.875 43.2812 67.1406
Q48.6875 62.4062 49.75 54.0469
M13.875 23.1875
Q13.875 18.6562 15.7969 14.5
Q17.7188 10.3594 21.1875 8.17188
Q24.6562 6 28.4688 6
Q34.0312 6 38.0312 10.4844
Q42.0469 14.9844 42.0469 22.7031
Q42.0469 30.125 38.0781 34.3906
Q34.125 38.6719 28.125 38.6719
Q22.1719 38.6719 18.0156 34.3906
Q13.875 30.125 13.875 23.1875" id="ArialMT-36"/>
      </defs>
      <g style="fill:#262626;" transform="translate(154.893694945 334.1578125)scale(0.1 -0.1)">
       <use xlink:href="#ArialMT-36"/>
       <use x="55.615234375" xlink:href="#ArialMT-30"/>
      </g>
     </g>
    </g>
    <g id="xtick_4">
     <g id="line2d_10">
      <path clip-path="url(#pf75fcae577)" d="
M199.342 320
L199.342 28.5" style="fill:none;stroke:#ffffff;stroke-linecap:round;"/>
     </g>
     <g id="line2d_11">
      <g>
       <use style="fill:#262626;stroke:#262626;" x="199.341623846" xlink:href="#m219da94a98" y="320.0"/>
      </g>
     </g>
     <g id="line2d_12">
      <g>
       <use style="fill:#262626;stroke:#262626;" x="199.341623846" xlink:href="#m219da94a98" y="28.5"/>
      </g>
     </g>
     <g id="text_4">
      <!-- 80 -->
      <defs>
       <path d="
M17.6719 38.8125
Q12.2031 40.8281 9.5625 44.5312
Q6.9375 48.25 6.9375 53.4219
Q6.9375 61.2344 12.5469 66.5469
Q18.1719 71.875 27.4844 71.875
Q36.8594 71.875 42.5781 66.4219
Q48.2969 60.9844 48.2969 53.1719
Q48.2969 48.1875 45.6719 44.5
Q43.0625 40.8281 37.75 38.8125
Q44.3438 36.6719 47.7812 31.875
Q51.2188 27.0938 51.2188 20.4531
Q51.2188 11.2812 44.7188 5.03125
Q38.2344 -1.21875 27.6406 -1.21875
Q17.0469 -1.21875 10.5469 5.04688
Q4.04688 11.3281 4.04688 20.7031
Q4.04688 27.6875 7.59375 32.3906
Q11.1406 37.1094 17.6719 38.8125
M15.9219 53.7188
Q15.9219 48.6406 19.1875 45.4062
Q22.4688 42.1875 27.6875 42.1875
Q32.7656 42.1875 36.0156 45.375
Q39.2656 48.5781 39.2656 53.2188
Q39.2656 58.0625 35.9062 61.3594
Q32.5625 64.6562 27.5938 64.6562
Q22.5625 64.6562 19.2344 61.4219
Q15.9219 58.2031 15.9219 53.7188
M13.0938 20.6562
Q13.0938 16.8906 14.875 13.375
Q16.6562 9.85938 20.1719 7.92188
Q23.6875 6 27.7344 6
Q34.0312 6 38.125 10.0469
Q42.2344 14.1094 42.2344 20.3594
Q42.2344 26.7031 38.0156 30.8594
Q33.7969 35.0156 27.4375 35.0156
Q21.2344 35.0156 17.1562 30.9062
Q13.0938 26.8125 13.0938 20.6562" id="ArialMT-38"/>
      </defs>
      <g style="fill:#262626;" transform="translate(194.222092596 334.1578125)scale(0.1 -0.1)">
       <use xlink:href="#ArialMT-38"/>
       <use x="55.615234375" xlink:href="#ArialMT-30"/>
      </g>
     </g>
    </g>
    <g id="xtick_5">
     <g id="line2d_13">
      <path clip-path="url(#pf75fcae577)" d="
M238.656 320
L238.656 28.5" style="fill:none;stroke:#ffffff;stroke-linecap:round;"/>
     </g>
     <g id="line2d_14">
      <g>
       <use style="fill:#262626;stroke:#262626;" x="238.655958997" xlink:href="#m219da94a98" y="320.0"/>
      </g>
     </g>
     <g id="line2d_15">
      <g>
       <use style="fill:#262626;stroke:#262626;" x="238.655958997" xlink:href="#m219da94a98" y="28.5"/>
      </g>
     </g>
     <g id="text_5">
      <!-- 100 -->
      <defs>
       <path d="
M37.25 0
L28.4688 0
L28.4688 56
Q25.2969 52.9844 20.1406 49.9531
Q14.9844 46.9219 10.8906 45.4062
L10.8906 53.9062
Q18.2656 57.375 23.7812 62.2969
Q29.2969 67.2344 31.5938 71.875
L37.25 71.875
z
" id="ArialMT-31"/>
      </defs>
      <g style="fill:#262626;" transform="translate(231.098146497 334.1578125)scale(0.1 -0.1)">
       <use xlink:href="#ArialMT-31"/>
       <use x="55.615234375" xlink:href="#ArialMT-30"/>
       <use x="111.23046875" xlink:href="#ArialMT-30"/>
      </g>
     </g>
    </g>
    <g id="xtick_6">
     <g id="line2d_16">
      <path clip-path="url(#pf75fcae577)" d="
M277.97 320
L277.97 28.5" style="fill:none;stroke:#ffffff;stroke-linecap:round;"/>
     </g>
     <g id="line2d_17">
      <g>
       <use style="fill:#262626;stroke:#262626;" x="277.970294148" xlink:href="#m219da94a98" y="320.0"/>
      </g>
     </g>
     <g id="line2d_18">
      <g>
       <use style="fill:#262626;stroke:#262626;" x="277.970294148" xlink:href="#m219da94a98" y="28.5"/>
      </g>
     </g>
     <g id="text_6">
      <!-- 120 -->
      <g style="fill:#262626;" transform="translate(270.412481648 334.1578125)scale(0.1 -0.1)">
       <use xlink:href="#ArialMT-31"/>
       <use x="55.615234375" xlink:href="#ArialMT-32"/>
       <use x="111.23046875" xlink:href="#ArialMT-30"/>
      </g>
     </g>
    </g>
    <g id="xtick_7">
     <g id="line2d_19">
      <path clip-path="url(#pf75fcae577)" d="
M317.285 320
L317.285 28.5" style="fill:none;stroke:#ffffff;stroke-linecap:round;"/>
     </g>
     <g id="line2d_20">
      <g>
       <use style="fill:#262626;stroke:#262626;" x="317.284629299" xlink:href="#m219da94a98" y="320.0"/>
      </g>
     </g>
     <g id="line2d_21">
      <g>
       <use style="fill:#262626;stroke:#262626;" x="317.284629299" xlink:href="#m219da94a98" y="28.5"/>
      </g>
     </g>
     <g id="text_7">
      <!-- 140 -->
      <g style="fill:#262626;" transform="translate(309.726816799 334.1578125)scale(0.1 -0.1)">
       <use xlink:href="#ArialMT-31"/>
       <use x="55.615234375" xlink:href="#ArialMT-34"/>
       <use x="111.23046875" xlink:href="#ArialMT-30"/>
      </g>
     </g>
    </g>
    <g id="text_8">
     <!-- Number of agglomerated predictors -->
     <defs>
      <path d="
M40.4375 19
L49.0781 17.875
Q47.6562 8.9375 41.8125 3.875
Q35.9844 -1.17188 27.4844 -1.17188
Q16.8438 -1.17188 10.375 5.78125
Q3.90625 12.75 3.90625 25.7344
Q3.90625 34.125 6.6875 40.4219
Q9.46875 46.7344 15.1562 49.875
Q20.8438 53.0312 27.5469 53.0312
Q35.9844 53.0312 41.3594 48.75
Q46.7344 44.4844 48.25 36.625
L39.7031 35.2969
Q38.4844 40.5312 35.375 43.1562
Q32.2812 45.7969 27.875 45.7969
Q21.2344 45.7969 17.0781 41.0312
Q12.9375 36.2812 12.9375 25.9844
Q12.9375 15.5312 16.9375 10.7969
Q20.9531 6.0625 27.3906 6.0625
Q32.5625 6.0625 36.0312 9.23438
Q39.5 12.4062 40.4375 19" id="ArialMT-63"/>
      <path d="
M14.7031 0
L6.54688 0
L6.54688 71.5781
L15.3281 71.5781
L15.3281 46.0469
Q20.9062 53.0312 29.5469 53.0312
Q34.3281 53.0312 38.5938 51.0938
Q42.875 49.1719 45.625 45.6719
Q48.3906 42.1875 49.9531 37.25
Q51.5156 32.3281 51.5156 26.7031
Q51.5156 13.375 44.9219 6.09375
Q38.3281 -1.17188 29.1094 -1.17188
Q19.9219 -1.17188 14.7031 6.5
z

M14.5938 26.3125
Q14.5938 17 17.1406 12.8438
Q21.2969 6.0625 28.375 6.0625
Q34.125 6.0625 38.3281 11.0625
Q42.5312 16.0625 42.5312 25.9844
Q42.5312 36.1406 38.5 40.9688
Q34.4688 45.7969 28.7656 45.7969
Q23 45.7969 18.7969 40.7969
Q14.5938 35.7969 14.5938 26.3125" id="ArialMT-62"/>
      <path d="
M40.4375 6.39062
Q35.5469 2.25 31.0312 0.53125
Q26.5156 -1.17188 21.3438 -1.17188
Q12.7969 -1.17188 8.20312 3
Q3.60938 7.17188 3.60938 13.6719
Q3.60938 17.4844 5.34375 20.625
Q7.07812 23.7812 9.89062 25.6875
Q12.7031 27.5938 16.2188 28.5625
Q18.7969 29.25 24.0312 29.8906
Q34.6719 31.1562 39.7031 32.9062
Q39.75 34.7188 39.75 35.2031
Q39.75 40.5781 37.25 42.7812
Q33.8906 45.75 27.25 45.75
Q21.0469 45.75 18.0938 43.5781
Q15.1406 41.4062 13.7188 35.8906
L5.125 37.0625
Q6.29688 42.5781 8.98438 45.9688
Q11.6719 49.3594 16.75 51.1875
Q21.8281 53.0312 28.5156 53.0312
Q35.1562 53.0312 39.2969 51.4688
Q43.4531 49.9062 45.4062 47.5312
Q47.3594 45.1719 48.1406 41.5469
Q48.5781 39.3125 48.5781 33.4531
L48.5781 21.7344
Q48.5781 9.46875 49.1406 6.21875
Q49.7031 2.98438 51.375 0
L42.1875 0
Q40.8281 2.73438 40.4375 6.39062
M39.7031 26.0312
Q34.9062 24.0781 25.3438 22.7031
Q19.9219 21.9219 17.6719 20.9375
Q15.4375 19.9688 14.2031 18.0938
Q12.9844 16.2188 12.9844 13.9219
Q12.9844 10.4062 15.6406 8.0625
Q18.3125 5.71875 23.4375 5.71875
Q28.5156 5.71875 32.4688 7.9375
Q36.4219 10.1562 38.2812 14.0156
Q39.7031 17 39.7031 22.7969
z
" id="ArialMT-61"/>
      <path d="
M4.98438 -4.29688
L13.5312 -5.5625
Q14.0625 -9.51562 16.5 -11.3281
Q19.7812 -13.7656 25.4375 -13.7656
Q31.5469 -13.7656 34.8594 -11.3281
Q38.1875 -8.89062 39.3594 -4.5
Q40.0469 -1.8125 39.9844 6.78125
Q34.2344 0 25.6406 0
Q14.9375 0 9.07812 7.71875
Q3.21875 15.4375 3.21875 26.2188
Q3.21875 33.6406 5.90625 39.9062
Q8.59375 46.1875 13.6875 49.6094
Q18.7969 53.0312 25.6875 53.0312
Q34.8594 53.0312 40.8281 45.6094
L40.8281 51.8594
L48.9219 51.8594
L48.9219 7.03125
Q48.9219 -5.07812 46.4531 -10.125
Q44 -15.1875 38.6406 -18.1094
Q33.2969 -21.0469 25.4844 -21.0469
Q16.2188 -21.0469 10.5 -16.875
Q4.78125 -12.7031 4.98438 -4.29688
M12.25 26.8594
Q12.25 16.6562 16.2969 11.9688
Q20.3594 7.28125 26.4688 7.28125
Q32.5156 7.28125 36.6094 11.9375
Q40.7188 16.6094 40.7188 26.5625
Q40.7188 36.0781 36.5 40.9062
Q32.2812 45.75 26.3125 45.75
Q20.4531 45.75 16.3438 40.9844
Q12.25 36.2344 12.25 26.8594" id="ArialMT-67"/>
      <path d="
M8.6875 0
L8.6875 45.0156
L0.921875 45.0156
L0.921875 51.8594
L8.6875 51.8594
L8.6875 57.375
Q8.6875 62.5938 9.625 65.1406
Q10.8906 68.5625 14.0781 70.6719
Q17.2812 72.7969 23.0469 72.7969
Q26.7656 72.7969 31.25 71.9219
L29.9375 64.2656
Q27.2031 64.75 24.75 64.75
Q20.75 64.75 19.0938 63.0312
Q17.4375 61.3281 17.4375 56.6406
L17.4375 51.8594
L27.5469 51.8594
L27.5469 45.0156
L17.4375 45.0156
L17.4375 0
z
" id="ArialMT-66"/>
      <path d="
M42.0938 16.7031
L51.1719 15.5781
Q49.0312 7.625 43.2188 3.21875
Q37.4062 -1.17188 28.375 -1.17188
Q17 -1.17188 10.3281 5.82812
Q3.65625 12.8438 3.65625 25.4844
Q3.65625 38.5781 10.3906 45.7969
Q17.1406 53.0312 27.875 53.0312
Q38.2812 53.0312 44.875 45.9531
Q51.4688 38.875 51.4688 26.0312
Q51.4688 25.25 51.4219 23.6875
L12.75 23.6875
Q13.2344 15.1406 17.5781 10.5938
Q21.9219 6.0625 28.4219 6.0625
Q33.25 6.0625 36.6719 8.59375
Q40.0938 11.1406 42.0938 16.7031
M13.2344 30.9062
L42.1875 30.9062
Q41.6094 37.4531 38.875 40.7188
Q34.6719 45.7969 27.9844 45.7969
Q21.9219 45.7969 17.7969 41.75
Q13.6719 37.7031 13.2344 30.9062" id="ArialMT-65"/>
      <path d="
M40.2344 0
L40.2344 6.54688
Q35.2969 -1.17188 25.7344 -1.17188
Q19.5312 -1.17188 14.3281 2.25
Q9.125 5.67188 6.26562 11.7969
Q3.42188 17.9219 3.42188 25.875
Q3.42188 33.6406 6 39.9688
Q8.59375 46.2969 13.7656 49.6562
Q18.9531 53.0312 25.3438 53.0312
Q30.0312 53.0312 33.6875 51.0469
Q37.3594 49.0781 39.6562 45.9062
L39.6562 71.5781
L48.3906 71.5781
L48.3906 0
z

M12.4531 25.875
Q12.4531 15.9219 16.6406 10.9844
Q20.8438 6.0625 26.5625 6.0625
Q32.3281 6.0625 36.3438 10.7656
Q40.375 15.4844 40.375 25.1406
Q40.375 35.7969 36.2656 40.7656
Q32.1719 45.75 26.1719 45.75
Q20.3125 45.75 16.375 40.9688
Q12.4531 36.1875 12.4531 25.875" id="ArialMT-64"/>
      <path d="
M25.7812 7.85938
L27.0469 0.09375
Q23.3438 -0.6875 20.4062 -0.6875
Q15.625 -0.6875 12.9844 0.828125
Q10.3594 2.34375 9.28125 4.8125
Q8.20312 7.28125 8.20312 15.1875
L8.20312 45.0156
L1.76562 45.0156
L1.76562 51.8594
L8.20312 51.8594
L8.20312 64.7031
L16.9375 69.9688
L16.9375 51.8594
L25.7812 51.8594
L25.7812 45.0156
L16.9375 45.0156
L16.9375 14.7031
Q16.9375 10.9375 17.4062 9.85938
Q17.875 8.79688 18.9219 8.15625
Q19.9688 7.51562 21.9219 7.51562
Q23.3906 7.51562 25.7812 7.85938" id="ArialMT-74"/>
      <path d="
M40.5781 0
L40.5781 7.625
Q34.5156 -1.17188 24.125 -1.17188
Q19.5312 -1.17188 15.5469 0.578125
Q11.5781 2.34375 9.64062 5
Q7.71875 7.67188 6.9375 11.5312
Q6.39062 14.1094 6.39062 19.7344
L6.39062 51.8594
L15.1875 51.8594
L15.1875 23.0938
Q15.1875 16.2188 15.7188 13.8125
Q16.5469 10.3594 19.2344 8.375
Q21.9219 6.39062 25.875 6.39062
Q29.8281 6.39062 33.2969 8.42188
Q36.7656 10.4531 38.2031 13.9375
Q39.6562 17.4375 39.6562 24.0781
L39.6562 51.8594
L48.4375 51.8594
L48.4375 0
z
" id="ArialMT-75"/>
      <path d="
M6.64062 61.4688
L6.64062 71.5781
L15.4375 71.5781
L15.4375 61.4688
z

M6.64062 0
L6.64062 51.8594
L15.4375 51.8594
L15.4375 0
z
" id="ArialMT-69"/>
      <path d="
M6.59375 -19.875
L6.59375 51.8594
L14.5938 51.8594
L14.5938 45.125
Q17.4375 49.0781 21 51.0469
Q24.5625 53.0312 29.6406 53.0312
Q36.2812 53.0312 41.3594 49.6094
Q46.4375 46.1875 49.0156 39.9531
Q51.6094 33.7344 51.6094 26.3125
Q51.6094 18.3594 48.75 11.9844
Q45.9062 5.60938 40.4531 2.21875
Q35.0156 -1.17188 29 -1.17188
Q24.6094 -1.17188 21.1094 0.6875
Q17.625 2.54688 15.375 5.375
L15.375 -19.875
z

M14.5469 25.6406
Q14.5469 15.625 18.5938 10.8438
Q22.6562 6.0625 28.4219 6.0625
Q34.2812 6.0625 38.4531 11.0156
Q42.625 15.9688 42.625 26.375
Q42.625 36.2812 38.5469 41.2031
Q34.4688 46.1406 28.8125 46.1406
Q23.1875 46.1406 18.8594 40.8906
Q14.5469 35.6406 14.5469 25.6406" id="ArialMT-70"/>
      <path d="
M6.5 0
L6.5 51.8594
L14.4062 51.8594
L14.4062 44
Q17.4375 49.5156 20 51.2656
Q22.5625 53.0312 25.6406 53.0312
Q30.0781 53.0312 34.6719 50.2031
L31.6406 42.0469
Q28.4219 43.9531 25.2031 43.9531
Q22.3125 43.9531 20.0156 42.2188
Q17.7188 40.4844 16.75 37.4062
Q15.2812 32.7188 15.2812 27.1562
L15.2812 0
z
" id="ArialMT-72"/>
      <path d="
M3.07812 15.4844
L11.7656 16.8438
Q12.5 11.625 15.8438 8.84375
Q19.1875 6.0625 25.2031 6.0625
Q31.25 6.0625 34.1719 8.51562
Q37.1094 10.9844 37.1094 14.3125
Q37.1094 17.2812 34.5156 19
Q32.7188 20.1719 25.5312 21.9688
Q15.875 24.4219 12.1406 26.2031
Q8.40625 27.9844 6.46875 31.125
Q4.54688 34.2812 4.54688 38.0938
Q4.54688 41.5469 6.125 44.5
Q7.71875 47.4688 10.4531 49.4219
Q12.5 50.9219 16.0312 51.9688
Q19.5781 53.0312 23.6406 53.0312
Q29.7344 53.0312 34.3438 51.2656
Q38.9688 49.5156 41.1562 46.5
Q43.3594 43.5 44.1875 38.4844
L35.5938 37.3125
Q35.0156 41.3125 32.2031 43.5469
Q29.3906 45.7969 24.2656 45.7969
Q18.2188 45.7969 15.625 43.7969
Q13.0312 41.7969 13.0312 39.1094
Q13.0312 37.4062 14.1094 36.0312
Q15.1875 34.625 17.4844 33.6875
Q18.7969 33.2031 25.25 31.4531
Q34.5781 28.9531 38.25 27.3594
Q41.9375 25.7812 44.0312 22.75
Q46.1406 19.7344 46.1406 15.2344
Q46.1406 10.8438 43.5781 6.95312
Q41.0156 3.07812 36.1719 0.953125
Q31.3438 -1.17188 25.25 -1.17188
Q15.1406 -1.17188 9.84375 3.03125
Q4.54688 7.23438 3.07812 15.4844" id="ArialMT-73"/>
      <path d="
M6.39062 0
L6.39062 71.5781
L15.1875 71.5781
L15.1875 0
z
" id="ArialMT-6c"/>
      <path d="
M3.32812 25.9219
Q3.32812 40.3281 11.3281 47.2656
Q18.0156 53.0312 27.6406 53.0312
Q38.3281 53.0312 45.1094 46.0156
Q51.9062 39.0156 51.9062 26.6562
Q51.9062 16.6562 48.9062 10.9062
Q45.9062 5.17188 40.1562 2
Q34.4219 -1.17188 27.6406 -1.17188
Q16.75 -1.17188 10.0312 5.8125
Q3.32812 12.7969 3.32812 25.9219
M12.3594 25.9219
Q12.3594 15.9688 16.7031 11.0156
Q21.0469 6.0625 27.6406 6.0625
Q34.1875 6.0625 38.5312 11.0312
Q42.875 16.0156 42.875 26.2188
Q42.875 35.8438 38.5 40.7969
Q34.125 45.75 27.6406 45.75
Q21.0469 45.75 16.7031 40.8125
Q12.3594 35.8906 12.3594 25.9219" id="ArialMT-6f"/>
      <path d="
M6.59375 0
L6.59375 51.8594
L14.4531 51.8594
L14.4531 44.5781
Q16.8906 48.3906 20.9375 50.7031
Q25 53.0312 30.1719 53.0312
Q35.9375 53.0312 39.625 50.6406
Q43.3125 48.25 44.8281 43.9531
Q50.9844 53.0312 60.8438 53.0312
Q68.5625 53.0312 72.7031 48.75
Q76.8594 44.4844 76.8594 35.5938
L76.8594 0
L68.1094 0
L68.1094 32.6719
Q68.1094 37.9375 67.25 40.25
Q66.4062 42.5781 64.1562 43.9844
Q61.9219 45.4062 58.8906 45.4062
Q53.4219 45.4062 49.7969 41.7656
Q46.1875 38.1406 46.1875 30.125
L46.1875 0
L37.4062 0
L37.4062 33.6875
Q37.4062 39.5469 35.25 42.4688
Q33.1094 45.4062 28.2188 45.4062
Q24.5156 45.4062 21.3594 43.4531
Q18.2188 41.5 16.7969 37.7344
Q15.375 33.9844 15.375 26.9062
L15.375 0
z
" id="ArialMT-6d"/>
      <path d="
M7.625 0
L7.625 71.5781
L17.3281 71.5781
L54.9375 15.375
L54.9375 71.5781
L64.0156 71.5781
L64.0156 0
L54.2969 0
L16.7031 56.25
L16.7031 0
z
" id="ArialMT-4e"/>
      <path id="ArialMT-20"/>
     </defs>
     <g style="fill:#262626;" transform="translate(80.6648046875 351.336875)scale(0.14 -0.14)">
      <use xlink:href="#ArialMT-4e"/>
      <use x="72.216796875" xlink:href="#ArialMT-75"/>
      <use x="127.83203125" xlink:href="#ArialMT-6d"/>
      <use x="211.1328125" xlink:href="#ArialMT-62"/>
      <use x="266.748046875" xlink:href="#ArialMT-65"/>
      <use x="322.36328125" xlink:href="#ArialMT-72"/>
      <use x="355.6640625" xlink:href="#ArialMT-20"/>
      <use x="383.447265625" xlink:href="#ArialMT-6f"/>
      <use x="439.0625" xlink:href="#ArialMT-66"/>
      <use x="466.845703125" xlink:href="#ArialMT-20"/>
      <use x="494.62890625" xlink:href="#ArialMT-61"/>
      <use x="550.244140625" xlink:href="#ArialMT-67"/>
      <use x="605.859375" xlink:href="#ArialMT-67"/>
      <use x="661.474609375" xlink:href="#ArialMT-6c"/>
      <use x="683.69140625" xlink:href="#ArialMT-6f"/>
      <use x="739.306640625" xlink:href="#ArialMT-6d"/>
      <use x="822.607421875" xlink:href="#ArialMT-65"/>
      <use x="878.22265625" xlink:href="#ArialMT-72"/>
      <use x="911.5234375" xlink:href="#ArialMT-61"/>
      <use x="967.138671875" xlink:href="#ArialMT-74"/>
      <use x="994.921875" xlink:href="#ArialMT-65"/>
      <use x="1050.53710938" xlink:href="#ArialMT-64"/>
      <use x="1106.15234375" xlink:href="#ArialMT-20"/>
      <use x="1133.93554688" xlink:href="#ArialMT-70"/>
      <use x="1189.55078125" xlink:href="#ArialMT-72"/>
      <use x="1222.8515625" xlink:href="#ArialMT-65"/>
      <use x="1278.46679688" xlink:href="#ArialMT-64"/>
      <use x="1334.08203125" xlink:href="#ArialMT-69"/>
      <use x="1356.29882812" xlink:href="#ArialMT-63"/>
      <use x="1406.29882812" xlink:href="#ArialMT-74"/>
      <use x="1434.08203125" xlink:href="#ArialMT-6f"/>
      <use x="1489.69726562" xlink:href="#ArialMT-72"/>
      <use x="1522.99804688" xlink:href="#ArialMT-73"/>
     </g>
    </g>
   </g>
   <g id="matplotlib.axis_2">
    <g id="ytick_1">
     <g id="line2d_22">
      <path clip-path="url(#pf75fcae577)" d="
M44.05 320
L336.942 320" style="fill:none;stroke:#ffffff;stroke-linecap:round;"/>
     </g>
     <g id="line2d_23">
      <g>
       <use style="fill:#262626;stroke:#262626;" x="44.05" xlink:href="#m219da94a98" y="320.0"/>
      </g>
     </g>
     <g id="line2d_24">
      <g>
       <use style="fill:#262626;stroke:#262626;" x="336.941796875" xlink:href="#m219da94a98" y="320.0"/>
      </g>
     </g>
     <g id="text_9">
      <!-- 64 -->
      <g style="fill:#262626;" transform="translate(26.7875 322.58515625)scale(0.1 -0.1)">
       <use xlink:href="#ArialMT-36"/>
       <use x="55.615234375" xlink:href="#ArialMT-34"/>
      </g>
     </g>
    </g>
    <g id="ytick_2">
     <g id="line2d_25">
      <path clip-path="url(#pf75fcae577)" d="
M44.05 278.357
L336.942 278.357" style="fill:none;stroke:#ffffff;stroke-linecap:round;"/>
     </g>
     <g id="line2d_26">
      <g>
       <use style="fill:#262626;stroke:#262626;" x="44.05" xlink:href="#m219da94a98" y="278.357142857"/>
      </g>
     </g>
     <g id="line2d_27">
      <g>
       <use style="fill:#262626;stroke:#262626;" x="336.941796875" xlink:href="#m219da94a98" y="278.357142857"/>
      </g>
     </g>
     <g id="text_10">
      <!-- 65 -->
      <defs>
       <path d="
M4.15625 18.75
L13.375 19.5312
Q14.4062 12.7969 18.1406 9.39062
Q21.875 6 27.1562 6
Q33.5 6 37.8906 10.7812
Q42.2812 15.5781 42.2812 23.4844
Q42.2812 31 38.0625 35.3438
Q33.8438 39.7031 27 39.7031
Q22.75 39.7031 19.3281 37.7656
Q15.9219 35.8438 13.9688 32.7656
L5.71875 33.8438
L12.6406 70.6094
L48.25 70.6094
L48.25 62.2031
L19.6719 62.2031
L15.8281 42.9688
Q22.2656 47.4688 29.3438 47.4688
Q38.7188 47.4688 45.1562 40.9688
Q51.6094 34.4688 51.6094 24.2656
Q51.6094 14.5469 45.9531 7.46875
Q39.0625 -1.21875 27.1562 -1.21875
Q17.3906 -1.21875 11.2031 4.25
Q5.03125 9.71875 4.15625 18.75" id="ArialMT-35"/>
      </defs>
      <g style="fill:#262626;" transform="translate(26.7046875 280.942299107)scale(0.1 -0.1)">
       <use xlink:href="#ArialMT-36"/>
       <use x="55.615234375" xlink:href="#ArialMT-35"/>
      </g>
     </g>
    </g>
    <g id="ytick_3">
     <g id="line2d_28">
      <path clip-path="url(#pf75fcae577)" d="
M44.05 236.714
L336.942 236.714" style="fill:none;stroke:#ffffff;stroke-linecap:round;"/>
     </g>
     <g id="line2d_29">
      <g>
       <use style="fill:#262626;stroke:#262626;" x="44.05" xlink:href="#m219da94a98" y="236.714285714"/>
      </g>
     </g>
     <g id="line2d_30">
      <g>
       <use style="fill:#262626;stroke:#262626;" x="336.941796875" xlink:href="#m219da94a98" y="236.714285714"/>
      </g>
     </g>
     <g id="text_11">
      <!-- 66 -->
      <g style="fill:#262626;" transform="translate(26.7625 239.299441964)scale(0.1 -0.1)">
       <use xlink:href="#ArialMT-36"/>
       <use x="55.615234375" xlink:href="#ArialMT-36"/>
      </g>
     </g>
    </g>
    <g id="ytick_4">
     <g id="line2d_31">
      <path clip-path="url(#pf75fcae577)" d="
M44.05 195.071
L336.942 195.071" style="fill:none;stroke:#ffffff;stroke-linecap:round;"/>
     </g>
     <g id="line2d_32">
      <g>
       <use style="fill:#262626;stroke:#262626;" x="44.05" xlink:href="#m219da94a98" y="195.071428571"/>
      </g>
     </g>
     <g id="line2d_33">
      <g>
       <use style="fill:#262626;stroke:#262626;" x="336.941796875" xlink:href="#m219da94a98" y="195.071428571"/>
      </g>
     </g>
     <g id="text_12">
      <!-- 67 -->
      <defs>
       <path d="
M4.73438 62.2031
L4.73438 70.6562
L51.0781 70.6562
L51.0781 63.8125
Q44.2344 56.5469 37.5156 44.4844
Q30.8125 32.4219 27.1562 19.6719
Q24.5156 10.6875 23.7812 0
L14.75 0
Q14.8906 8.45312 18.0625 20.4062
Q21.2344 32.375 27.1719 43.4844
Q33.1094 54.5938 39.7969 62.2031
z
" id="ArialMT-37"/>
      </defs>
      <g style="fill:#262626;" transform="translate(26.7578125 197.656584821)scale(0.1 -0.1)">
       <use xlink:href="#ArialMT-36"/>
       <use x="55.615234375" xlink:href="#ArialMT-37"/>
      </g>
     </g>
    </g>
    <g id="ytick_5">
     <g id="line2d_34">
      <path clip-path="url(#pf75fcae577)" d="
M44.05 153.429
L336.942 153.429" style="fill:none;stroke:#ffffff;stroke-linecap:round;"/>
     </g>
     <g id="line2d_35">
      <g>
       <use style="fill:#262626;stroke:#262626;" x="44.05" xlink:href="#m219da94a98" y="153.428571429"/>
      </g>
     </g>
     <g id="line2d_36">
      <g>
       <use style="fill:#262626;stroke:#262626;" x="336.941796875" xlink:href="#m219da94a98" y="153.428571429"/>
      </g>
     </g>
     <g id="text_13">
      <!-- 68 -->
      <g style="fill:#262626;" transform="translate(26.74375 156.013727679)scale(0.1 -0.1)">
       <use xlink:href="#ArialMT-36"/>
       <use x="55.615234375" xlink:href="#ArialMT-38"/>
      </g>
     </g>
    </g>
    <g id="ytick_6">
     <g id="line2d_37">
      <path clip-path="url(#pf75fcae577)" d="
M44.05 111.786
L336.942 111.786" style="fill:none;stroke:#ffffff;stroke-linecap:round;"/>
     </g>
     <g id="line2d_38">
      <g>
       <use style="fill:#262626;stroke:#262626;" x="44.05" xlink:href="#m219da94a98" y="111.785714286"/>
      </g>
     </g>
     <g id="line2d_39">
      <g>
       <use style="fill:#262626;stroke:#262626;" x="336.941796875" xlink:href="#m219da94a98" y="111.785714286"/>
      </g>
     </g>
     <g id="text_14">
      <!-- 69 -->
      <defs>
       <path d="
M5.46875 16.5469
L13.9219 17.3281
Q14.9844 11.375 18.0156 8.6875
Q21.0469 6 25.7812 6
Q29.8281 6 32.875 7.85938
Q35.9375 9.71875 37.8906 12.8125
Q39.8438 15.9219 41.1562 21.1875
Q42.4844 26.4688 42.4844 31.9375
Q42.4844 32.5156 42.4375 33.6875
Q39.7969 29.5 35.2344 26.875
Q30.6719 24.2656 25.3438 24.2656
Q16.4531 24.2656 10.2969 30.7031
Q4.15625 37.1562 4.15625 47.7031
Q4.15625 58.5938 10.5781 65.2344
Q17 71.875 26.6562 71.875
Q33.6406 71.875 39.4219 68.1094
Q45.2188 64.3594 48.2188 57.3906
Q51.2188 50.4375 51.2188 37.25
Q51.2188 23.5312 48.2344 15.4062
Q45.2656 7.28125 39.375 3.03125
Q33.5 -1.21875 25.5938 -1.21875
Q17.1875 -1.21875 11.8594 3.4375
Q6.54688 8.10938 5.46875 16.5469
M41.4531 48.1406
Q41.4531 55.7188 37.4219 60.1562
Q33.4062 64.5938 27.7344 64.5938
Q21.875 64.5938 17.5312 59.8125
Q13.1875 55.0312 13.1875 47.4062
Q13.1875 40.5781 17.3125 36.2969
Q21.4375 32.0312 27.4844 32.0312
Q33.5938 32.0312 37.5156 36.2969
Q41.4531 40.5781 41.4531 48.1406" id="ArialMT-39"/>
      </defs>
      <g style="fill:#262626;" transform="translate(26.74375 114.370870536)scale(0.1 -0.1)">
       <use xlink:href="#ArialMT-36"/>
       <use x="55.615234375" xlink:href="#ArialMT-39"/>
      </g>
     </g>
    </g>
    <g id="ytick_7">
     <g id="line2d_40">
      <path clip-path="url(#pf75fcae577)" d="
M44.05 70.1429
L336.942 70.1429" style="fill:none;stroke:#ffffff;stroke-linecap:round;"/>
     </g>
     <g id="line2d_41">
      <g>
       <use style="fill:#262626;stroke:#262626;" x="44.05" xlink:href="#m219da94a98" y="70.1428571429"/>
      </g>
     </g>
     <g id="line2d_42">
      <g>
       <use style="fill:#262626;stroke:#262626;" x="336.941796875" xlink:href="#m219da94a98" y="70.1428571429"/>
      </g>
     </g>
     <g id="text_15">
      <!-- 70 -->
      <g style="fill:#262626;" transform="translate(26.8796875 72.7280133929)scale(0.1 -0.1)">
       <use xlink:href="#ArialMT-37"/>
       <use x="55.615234375" xlink:href="#ArialMT-30"/>
      </g>
     </g>
    </g>
    <g id="ytick_8">
     <g id="line2d_43">
      <path clip-path="url(#pf75fcae577)" d="
M44.05 28.5
L336.942 28.5" style="fill:none;stroke:#ffffff;stroke-linecap:round;"/>
     </g>
     <g id="line2d_44">
      <g>
       <use style="fill:#262626;stroke:#262626;" x="44.05" xlink:href="#m219da94a98" y="28.5"/>
      </g>
     </g>
     <g id="line2d_45">
      <g>
       <use style="fill:#262626;stroke:#262626;" x="336.941796875" xlink:href="#m219da94a98" y="28.5"/>
      </g>
     </g>
     <g id="text_16">
      <!-- 71 -->
      <g style="fill:#262626;" transform="translate(28.2375 31.08515625)scale(0.1 -0.1)">
       <use xlink:href="#ArialMT-37"/>
       <use x="55.615234375" xlink:href="#ArialMT-31"/>
      </g>
     </g>
    </g>
    <g id="text_17">
     <!-- Prediction accuracy (%) -->
     <defs>
      <path d="
M6.59375 0
L6.59375 51.8594
L14.5 51.8594
L14.5 44.4844
Q20.2188 53.0312 31 53.0312
Q35.6875 53.0312 39.625 51.3438
Q43.5625 49.6562 45.5156 46.9219
Q47.4688 44.1875 48.25 40.4375
Q48.7344 37.9844 48.7344 31.8906
L48.7344 0
L39.9375 0
L39.9375 31.5469
Q39.9375 36.9219 38.9062 39.5781
Q37.8906 42.2344 35.2812 43.8125
Q32.6719 45.4062 29.1562 45.4062
Q23.5312 45.4062 19.4531 41.8438
Q15.375 38.2812 15.375 28.3281
L15.375 0
z
" id="ArialMT-6e"/>
      <path d="
M6.20312 -19.9688
L5.21875 -11.7188
Q8.10938 -12.5 10.25 -12.5
Q13.1875 -12.5 14.9375 -11.5156
Q16.7031 -10.5469 17.8281 -8.79688
Q18.6562 -7.46875 20.5156 -2.25
Q20.75 -1.51562 21.2969 -0.09375
L1.60938 51.8594
L11.0781 51.8594
L21.875 21.8281
Q23.9688 16.1094 25.6406 9.8125
Q27.1562 15.875 29.25 21.625
L40.3281 51.8594
L49.125 51.8594
L29.3906 -0.875
Q26.2188 -9.42188 24.4688 -12.6406
Q22.125 -17 19.0938 -19.0156
Q16.0625 -21.0469 11.8594 -21.0469
Q9.32812 -21.0469 6.20312 -19.9688" id="ArialMT-79"/>
      <path d="
M7.71875 0
L7.71875 71.5781
L34.7188 71.5781
Q41.8438 71.5781 45.6094 70.9062
Q50.875 70.0156 54.4375 67.5469
Q58.0156 65.0938 60.1875 60.6406
Q62.3594 56.2031 62.3594 50.875
Q62.3594 41.75 56.5469 35.4219
Q50.7344 29.1094 35.5469 29.1094
L17.1875 29.1094
L17.1875 0
z

M17.1875 37.5469
L35.6875 37.5469
Q44.875 37.5469 48.7344 40.9688
Q52.5938 44.3906 52.5938 50.5938
Q52.5938 55.0781 50.3125 58.2656
Q48.0469 61.4688 44.3438 62.5
Q41.9375 63.1406 35.5 63.1406
L17.1875 63.1406
z
" id="ArialMT-50"/>
      <path d="
M12.3594 -21.0469
L6.0625 -21.0469
Q20.6562 2.39062 20.6562 25.875
Q20.6562 35.0625 18.5625 44.0938
Q16.8906 51.4219 13.9219 58.1562
Q12.0156 62.5469 6.0625 72.7969
L12.3594 72.7969
Q21.5312 60.5469 25.9219 48.1875
Q29.6875 37.5469 29.6875 25.9219
Q29.6875 12.75 24.625 0.4375
Q19.5781 -11.8594 12.3594 -21.0469" id="ArialMT-29"/>
      <path d="
M23.3906 -21.0469
Q16.1094 -11.8594 11.0781 0.4375
Q6.0625 12.75 6.0625 25.9219
Q6.0625 37.5469 9.8125 48.1875
Q14.2031 60.5469 23.3906 72.7969
L29.6875 72.7969
Q23.7812 62.6406 21.875 58.2969
Q18.8906 51.5625 17.1875 44.2344
Q15.0938 35.1094 15.0938 25.875
Q15.0938 2.39062 29.6875 -21.0469
z
" id="ArialMT-28"/>
      <path d="
M5.8125 54.3906
Q5.8125 62.0625 9.67188 67.4219
Q13.5312 72.7969 20.8438 72.7969
Q27.5938 72.7969 32 67.9844
Q36.4219 63.1875 36.4219 53.8594
Q36.4219 44.7812 31.9531 39.875
Q27.4844 34.9688 20.9531 34.9688
Q14.4531 34.9688 10.125 39.7969
Q5.8125 44.625 5.8125 54.3906
M21.0938 66.75
Q17.8281 66.75 15.6562 63.9062
Q13.4844 61.0781 13.4844 53.5156
Q13.4844 46.625 15.6719 43.8125
Q17.875 41.0156 21.0938 41.0156
Q24.4219 41.0156 26.5938 43.8438
Q28.7656 46.6875 28.7656 54.2031
Q28.7656 61.1406 26.5625 63.9375
Q24.3594 66.75 21.0938 66.75
M21.1406 -2.64062
L60.2969 72.7969
L67.4375 72.7969
L28.4219 -2.64062
z

M52.0938 16.7969
Q52.0938 24.5156 55.9531 29.8594
Q59.8125 35.2031 67.1875 35.2031
Q73.9219 35.2031 78.3438 30.3906
Q82.7656 25.5938 82.7656 16.2656
Q82.7656 7.17188 78.2969 2.26562
Q73.8281 -2.64062 67.2344 -2.64062
Q60.75 -2.64062 56.4219 2.21875
Q52.0938 7.07812 52.0938 16.7969
M67.4375 29.1562
Q64.1094 29.1562 61.9375 26.3125
Q59.7656 23.4844 59.7656 15.9219
Q59.7656 9.07812 61.9531 6.25
Q64.1562 3.42188 67.3906 3.42188
Q70.75 3.42188 72.9219 6.25
Q75.0938 9.07812 75.0938 16.6094
Q75.0938 23.5312 72.8906 26.3438
Q70.7031 29.1562 67.4375 29.1562" id="ArialMT-25"/>
     </defs>
     <g style="fill:#262626;" transform="translate(18.758125 247.9075)rotate(-90.0)scale(0.14 -0.14)">
      <use xlink:href="#ArialMT-50"/>
      <use x="66.69921875" xlink:href="#ArialMT-72"/>
      <use x="100.0" xlink:href="#ArialMT-65"/>
      <use x="155.615234375" xlink:href="#ArialMT-64"/>
      <use x="211.23046875" xlink:href="#ArialMT-69"/>
      <use x="233.447265625" xlink:href="#ArialMT-63"/>
      <use x="283.447265625" xlink:href="#ArialMT-74"/>
      <use x="311.23046875" xlink:href="#ArialMT-69"/>
      <use x="333.447265625" xlink:href="#ArialMT-6f"/>
      <use x="389.0625" xlink:href="#ArialMT-6e"/>
      <use x="444.677734375" xlink:href="#ArialMT-20"/>
      <use x="472.4609375" xlink:href="#ArialMT-61"/>
      <use x="528.076171875" xlink:href="#ArialMT-63"/>
      <use x="578.076171875" xlink:href="#ArialMT-63"/>
      <use x="628.076171875" xlink:href="#ArialMT-75"/>
      <use x="683.69140625" xlink:href="#ArialMT-72"/>
      <use x="716.9921875" xlink:href="#ArialMT-61"/>
      <use x="772.607421875" xlink:href="#ArialMT-63"/>
      <use x="822.607421875" xlink:href="#ArialMT-79"/>
      <use x="872.607421875" xlink:href="#ArialMT-20"/>
      <use x="900.390625" xlink:href="#ArialMT-28"/>
      <use x="933.69140625" xlink:href="#ArialMT-25"/>
      <use x="1022.60742188" xlink:href="#ArialMT-29"/>
     </g>
    </g>
   </g>
   <g id="line2d_46">
    <path clip-path="url(#pf75fcae577)" d="
M44.05 206.197
L346.77 206.197" style="fill:none;stroke:#b24d4e;stroke-dasharray:6.000000,6.000000;stroke-dashoffset:0.0;stroke-width:2;"/>
   </g>
   <g id="line2d_47">
    <path clip-path="url(#pf75fcae577)" d="
M44.05 70.6771
L346.77 70.6771" style="fill:none;stroke:#577b97;stroke-dasharray:6.000000,6.000000;stroke-dashoffset:0.0;stroke-width:2;"/>
   </g>
   <g id="line2d_48">
    <path clip-path="url(#pf75fcae577)" d="
M45.8712 361
L46.0157 318.585
L47.9814 283.062
L49.9472 268.97
L51.9129 245.095
L55.8443 238.224
L57.81 238.224
L59.7757 236.71
L61.7415 228.674
L63.7072 215.746
L65.6729 211.67
L67.6386 217.494
L69.6043 218.192
L71.57 216.911
L73.5358 218.542
L75.5015 216.212
L77.4672 217.261
L79.4329 212.253
L81.3986 207.944
L83.3643 204.333
L85.3301 201.771
L87.2958 207.594
L89.2615 204.683
L91.2272 208.526
L93.1929 208.876
L95.1586 205.964
L97.1244 204.217
L99.0901 199.442
L101.056 202.12
L103.022 201.771
L104.987 208.177
L106.953 210.156
L108.919 202.353
L110.884 207.478
L112.85 200.956
L114.816 214.116
L116.782 210.273
L118.747 210.157
L120.713 208.293
L122.679 203.984
L124.644 208.526
L126.61 210.622
L128.576 214.349
L130.542 210.972
L132.507 213.417
L134.473 207.594
L136.439 204.566
L138.404 206.546
L140.37 206.779
L142.336 204.101
L144.302 209.807
L146.267 204.333
L148.233 202.004
L150.199 200.49
L152.164 204.683
L154.13 205.732
L156.096 203.169
L158.062 201.072
L160.027 201.422
L161.993 195.25
L163.959 191.872
L165.924 200.723
L167.89 199.558
L169.856 194.318
L171.822 200.374
L173.787 196.996
L175.753 197.811
L179.684 193.735
L181.65 194.085
L183.616 196.647
L185.582 196.763
L187.547 202.121
L189.513 197.928
L191.479 194.318
L193.444 200.956
L195.41 199.791
L197.376 200.606
L199.342 194.318
L201.307 195.133
L203.273 194.201
L205.239 193.852
L207.204 197.346
L209.17 200.374
L211.136 199.908
L213.102 190.707
L215.067 194.085
L217.033 196.53
L218.999 196.763
L220.965 196.647
L222.93 198.277
L224.896 198.277
L226.862 196.414
L228.827 188.844
L230.793 192.338
L232.759 190.707
L234.725 193.502
L236.69 193.153
L238.656 194.201
L240.622 193.618
L242.587 188.145
L244.553 187.912
L248.485 190.474
L252.416 187.446
L254.382 188.494
L256.347 188.611
L258.313 189.892
L260.279 192.454
L262.245 193.619
L264.21 193.968
L266.176 192.687
L268.142 190.125
L270.107 189.775
L272.073 189.659
L274.039 188.611
L276.005 184.767
L277.97 183.02
L279.936 183.719
L281.902 187.329
L283.867 187.213
L285.833 188.61
L287.799 195.133
L289.765 193.269
L291.73 192.337
L293.696 192.221
L295.662 190.94
L297.627 193.968
L299.593 192.454
L301.559 193.269
L303.525 189.076
L305.49 191.289
L307.456 187.912
L309.422 188.261
L311.387 190.241
L313.353 190.008
L315.319 189.659
L317.285 189.076
L321.216 190.241
L323.182 195.016
L325.147 191.057
L327.113 191.755
L329.079 194.317
L331.045 195.366
L333.01 194.201
L334.976 196.181
L336.942 196.414
L338.908 194.318
L338.908 194.318" style="fill:none;stroke:#b24d4e;stroke-linecap:round;stroke-width:2;"/>
   </g>
   <g id="line2d_49">
    <path clip-path="url(#pf75fcae577)" d="
M45.6778 361
L46.0157 248.469
L49.9472 167.06
L51.9129 150.408
L53.8786 150.244
L55.8443 143.342
L57.81 134.372
L59.7757 141.651
L61.7415 152.099
L63.7072 147.258
L65.6729 135.422
L67.6386 129.208
L69.6043 139.652
L71.57 134.021
L73.5358 140.566
L75.5015 138.164
L77.4672 133.412
L79.4329 134.717
L81.3986 140.91
L83.3643 147.974
L85.3301 127.331
L87.2958 132.72
L89.2615 150.994
L91.2272 142.209
L93.1929 130.312
L95.1586 124.327
L97.1244 119.719
L99.0901 111.451
L101.056 117.329
L103.022 114.626
L104.987 131.563
L106.953 119.493
L108.919 115
L110.884 141.601
L112.85 140.614
L114.816 141.157
L116.782 145.41
L118.747 122.76
L120.713 134.857
L122.679 112.21
L124.644 139.258
L126.61 126.825
L128.576 123.992
L130.542 137.532
L132.507 135.013
L134.473 149.593
L136.439 117.777
L138.404 114.476
L140.37 127.652
L142.336 113.433
L144.302 124.169
L146.267 126.119
L148.233 112.902
L150.199 121.5
L152.164 116.86
L154.13 126.247
L156.096 117.997
L158.062 99.848
L160.027 120.889
L161.993 114.794
L163.959 80.8177
L165.924 111.254
L167.89 109.476
L169.856 114.092
L171.822 119.074
L173.787 106.431
L175.753 94.9511
L177.719 109.97
L179.684 85.6783
L181.65 95.3648
L183.616 108.928
L185.582 114.993
L187.547 93.2671
L189.513 87.5565
L191.479 99.584
L193.444 107.478
L195.41 118.375
L197.376 122.19
L199.342 90.4773
L201.307 91.2892
L203.273 87.3346
L205.239 87.123
L207.204 111.046
L209.17 115.955
L211.136 103.726
L213.102 95.5662
L215.067 103.559
L217.033 110.026
L218.999 118.56
L220.965 92.3872
L222.93 81.9586
L224.896 81.3428
L226.862 87.742
L228.827 86.4047
L230.793 96.0716
L232.759 86.5046
L234.725 84.8818
L236.69 84.7792
L238.656 100.949
L240.622 111.823
L242.587 116.416
L244.553 110.211
L246.519 102.097
L248.485 99.9555
L250.45 96.5795
L252.416 97.5884
L254.382 97.4317
L256.347 110.188
L258.313 106.661
L260.279 85.0352
L262.245 92.2221
L264.21 95.6041
L266.176 87.0658
L268.142 94.2253
L270.107 95.1985
L272.073 89.3065
L274.039 81.9093
L276.005 79.1559
L277.97 77.7174
L279.936 85.9401
L281.902 93.1878
L283.867 97.8076
L285.833 92.085
L287.799 102.898
L289.765 98.0045
L291.73 105.217
L293.696 102.948
L295.662 97.5709
L297.627 104.962
L299.593 87.4415
L301.559 89.6904
L303.525 82.5264
L305.49 81.2898
L307.456 78.7936
L309.422 81.5419
L311.387 76.5748
L313.353 86.1471
L315.319 76.6302
L317.285 83.7964
L319.25 76.4126
L321.216 79.9156
L323.182 90.543
L325.147 94.0742
L327.113 85.9379
L329.079 94.6929
L331.045 91.9617
L333.01 88.5706
L334.976 92.2065
L336.942 110.825
L338.908 101.473
L338.908 101.473" style="fill:none;stroke:#577b97;stroke-linecap:round;stroke-width:2;"/>
   </g>
   <g id="patch_3">
    <path d="
M44.05 28.5
L336.942 28.5" style="fill:none;"/>
   </g>
   <g id="patch_4">
    <path d="
M336.942 320
L336.942 28.5" style="fill:none;"/>
   </g>
   <g id="patch_5">
    <path d="
M44.05 320
L336.942 320" style="fill:none;"/>
   </g>
   <g id="patch_6">
    <path d="
M44.05 320
L44.05 28.5" style="fill:none;"/>
   </g>
   <g id="legend_1">
    <g id="line2d_50">
     <path d="
M90.6546 256.6
L112.655 256.6" style="fill:none;stroke:#b24d4e;stroke-dasharray:6.000000,6.000000;stroke-dashoffset:0.0;stroke-width:2;"/>
    </g>
    <g id="line2d_51"/>
    <g id="text_18">
     <!-- No agglomeration -->
     <g style="fill:#262626;" transform="translate(121.454570312 260.45046875)scale(0.11 -0.11)">
      <use xlink:href="#ArialMT-4e"/>
      <use x="72.216796875" xlink:href="#ArialMT-6f"/>
      <use x="127.83203125" xlink:href="#ArialMT-20"/>
      <use x="155.615234375" xlink:href="#ArialMT-61"/>
      <use x="211.23046875" xlink:href="#ArialMT-67"/>
      <use x="266.845703125" xlink:href="#ArialMT-67"/>
      <use x="322.4609375" xlink:href="#ArialMT-6c"/>
      <use x="344.677734375" xlink:href="#ArialMT-6f"/>
      <use x="400.29296875" xlink:href="#ArialMT-6d"/>
      <use x="483.59375" xlink:href="#ArialMT-65"/>
      <use x="539.208984375" xlink:href="#ArialMT-72"/>
      <use x="572.509765625" xlink:href="#ArialMT-61"/>
      <use x="628.125" xlink:href="#ArialMT-74"/>
      <use x="655.908203125" xlink:href="#ArialMT-69"/>
      <use x="678.125" xlink:href="#ArialMT-6f"/>
      <use x="733.740234375" xlink:href="#ArialMT-6e"/>
     </g>
    </g>
    <g id="line2d_52">
     <path d="
M90.6546 272.423
L112.655 272.423" style="fill:none;stroke:#577b97;stroke-dasharray:6.000000,6.000000;stroke-dashoffset:0.0;stroke-width:2;"/>
    </g>
    <g id="line2d_53"/>
    <g id="text_19">
     <!-- No agglomeration (≥20 subreddits) -->
     <defs>
      <path d="
M51.1719 37.2031
L3.76562 16.9375
L3.76562 25.6875
L41.3125 41.2656
L3.76562 56.6406
L3.76562 65.4375
L51.1719 45.4062
z

M51.0781 5.17188
L3.8125 5.17188
L3.8125 13.3281
L51.0781 13.3281
z
" id="ArialMT-2265"/>
     </defs>
     <g style="fill:#262626;" transform="translate(121.454570312 276.27328125)scale(0.11 -0.11)">
      <use xlink:href="#ArialMT-4e"/>
      <use x="72.216796875" xlink:href="#ArialMT-6f"/>
      <use x="127.83203125" xlink:href="#ArialMT-20"/>
      <use x="155.615234375" xlink:href="#ArialMT-61"/>
      <use x="211.23046875" xlink:href="#ArialMT-67"/>
      <use x="266.845703125" xlink:href="#ArialMT-67"/>
      <use x="322.4609375" xlink:href="#ArialMT-6c"/>
      <use x="344.677734375" xlink:href="#ArialMT-6f"/>
      <use x="400.29296875" xlink:href="#ArialMT-6d"/>
      <use x="483.59375" xlink:href="#ArialMT-65"/>
      <use x="539.208984375" xlink:href="#ArialMT-72"/>
      <use x="572.509765625" xlink:href="#ArialMT-61"/>
      <use x="628.125" xlink:href="#ArialMT-74"/>
      <use x="655.908203125" xlink:href="#ArialMT-69"/>
      <use x="678.125" xlink:href="#ArialMT-6f"/>
      <use x="733.740234375" xlink:href="#ArialMT-6e"/>
      <use x="789.35546875" xlink:href="#ArialMT-20"/>
      <use x="817.138671875" xlink:href="#ArialMT-28"/>
      <use x="850.439453125" xlink:href="#ArialMT-2265"/>
      <use x="905.322265625" xlink:href="#ArialMT-32"/>
      <use x="960.9375" xlink:href="#ArialMT-30"/>
      <use x="1016.55273438" xlink:href="#ArialMT-20"/>
      <use x="1044.3359375" xlink:href="#ArialMT-73"/>
      <use x="1094.3359375" xlink:href="#ArialMT-75"/>
      <use x="1149.95117188" xlink:href="#ArialMT-62"/>
      <use x="1205.56640625" xlink:href="#ArialMT-72"/>
      <use x="1238.8671875" xlink:href="#ArialMT-65"/>
      <use x="1294.48242188" xlink:href="#ArialMT-64"/>
      <use x="1350.09765625" xlink:href="#ArialMT-64"/>
      <use x="1405.71289062" xlink:href="#ArialMT-69"/>
      <use x="1427.9296875" xlink:href="#ArialMT-74"/>
      <use x="1455.71289062" xlink:href="#ArialMT-73"/>
      <use x="1505.71289062" xlink:href="#ArialMT-29"/>
     </g>
    </g>
    <g id="line2d_54">
     <path d="
M90.6546 288.112
L112.655 288.112" style="fill:none;stroke:#b24d4e;stroke-linecap:round;stroke-width:2;"/>
    </g>
    <g id="line2d_55"/>
    <g id="text_20">
     <!-- Agglomerated set -->
     <defs>
      <path d="
M-0.140625 0
L27.3438 71.5781
L37.5469 71.5781
L66.8438 0
L56.0625 0
L47.7031 21.6875
L17.7812 21.6875
L9.90625 0
z

M20.5156 29.3906
L44.7812 29.3906
L37.3125 49.2188
Q33.8906 58.25 32.2344 64.0625
Q30.8594 57.1719 28.375 50.3906
z
" id="ArialMT-41"/>
     </defs>
     <g style="fill:#262626;" transform="translate(121.454570312 291.96203125)scale(0.11 -0.11)">
      <use xlink:href="#ArialMT-41"/>
      <use x="66.69921875" xlink:href="#ArialMT-67"/>
      <use x="122.314453125" xlink:href="#ArialMT-67"/>
      <use x="177.9296875" xlink:href="#ArialMT-6c"/>
      <use x="200.146484375" xlink:href="#ArialMT-6f"/>
      <use x="255.76171875" xlink:href="#ArialMT-6d"/>
      <use x="339.0625" xlink:href="#ArialMT-65"/>
      <use x="394.677734375" xlink:href="#ArialMT-72"/>
      <use x="427.978515625" xlink:href="#ArialMT-61"/>
      <use x="483.59375" xlink:href="#ArialMT-74"/>
      <use x="511.376953125" xlink:href="#ArialMT-65"/>
      <use x="566.9921875" xlink:href="#ArialMT-64"/>
      <use x="622.607421875" xlink:href="#ArialMT-20"/>
      <use x="650.390625" xlink:href="#ArialMT-73"/>
      <use x="700.390625" xlink:href="#ArialMT-65"/>
      <use x="756.005859375" xlink:href="#ArialMT-74"/>
     </g>
    </g>
    <g id="line2d_56">
     <path d="
M90.6546 303.935
L112.655 303.935" style="fill:none;stroke:#577b97;stroke-linecap:round;stroke-width:2;"/>
    </g>
    <g id="line2d_57"/>
    <g id="text_21">
     <!-- Agglomerated set (≥20 subreddits) -->
     <g style="fill:#262626;" transform="translate(121.454570312 307.78484375)scale(0.11 -0.11)">
      <use xlink:href="#ArialMT-41"/>
      <use x="66.69921875" xlink:href="#ArialMT-67"/>
      <use x="122.314453125" xlink:href="#ArialMT-67"/>
      <use x="177.9296875" xlink:href="#ArialMT-6c"/>
      <use x="200.146484375" xlink:href="#ArialMT-6f"/>
      <use x="255.76171875" xlink:href="#ArialMT-6d"/>
      <use x="339.0625" xlink:href="#ArialMT-65"/>
      <use x="394.677734375" xlink:href="#ArialMT-72"/>
      <use x="427.978515625" xlink:href="#ArialMT-61"/>
      <use x="483.59375" xlink:href="#ArialMT-74"/>
      <use x="511.376953125" xlink:href="#ArialMT-65"/>
      <use x="566.9921875" xlink:href="#ArialMT-64"/>
      <use x="622.607421875" xlink:href="#ArialMT-20"/>
      <use x="650.390625" xlink:href="#ArialMT-73"/>
      <use x="700.390625" xlink:href="#ArialMT-65"/>
      <use x="756.005859375" xlink:href="#ArialMT-74"/>
      <use x="783.7890625" xlink:href="#ArialMT-20"/>
      <use x="811.572265625" xlink:href="#ArialMT-28"/>
      <use x="844.873046875" xlink:href="#ArialMT-2265"/>
      <use x="899.755859375" xlink:href="#ArialMT-32"/>
      <use x="955.37109375" xlink:href="#ArialMT-30"/>
      <use x="1010.98632812" xlink:href="#ArialMT-20"/>
      <use x="1038.76953125" xlink:href="#ArialMT-73"/>
      <use x="1088.76953125" xlink:href="#ArialMT-75"/>
      <use x="1144.38476562" xlink:href="#ArialMT-62"/>
      <use x="1200.0" xlink:href="#ArialMT-72"/>
      <use x="1233.30078125" xlink:href="#ArialMT-65"/>
      <use x="1288.91601562" xlink:href="#ArialMT-64"/>
      <use x="1344.53125" xlink:href="#ArialMT-64"/>
      <use x="1400.14648438" xlink:href="#ArialMT-69"/>
      <use x="1422.36328125" xlink:href="#ArialMT-74"/>
      <use x="1450.14648438" xlink:href="#ArialMT-73"/>
      <use x="1500.14648438" xlink:href="#ArialMT-29"/>
     </g>
    </g>
   </g>
  </g>
  <g id="axes_2">
   <g id="patch_7">
    <path d="
M403.108 320
L696 320
L696 28.5
L403.108 28.5
z
" style="fill:#eaeaf2;"/>
   </g>
   <g id="matplotlib.axis_3">
    <g id="xtick_8">
     <g id="line2d_58">
      <path clip-path="url(#p055a6a557b)" d="
M440.457 320
L440.457 28.5" style="fill:none;stroke:#ffffff;stroke-linecap:round;"/>
     </g>
     <g id="line2d_59">
      <g>
       <use style="fill:#262626;stroke:#262626;" x="440.456821518" xlink:href="#m219da94a98" y="320.0"/>
      </g>
     </g>
     <g id="line2d_60">
      <g>
       <use style="fill:#262626;stroke:#262626;" x="440.456821518" xlink:href="#m219da94a98" y="28.5"/>
      </g>
     </g>
     <g id="text_22">
      <!-- 20 -->
      <g style="fill:#262626;" transform="translate(435.281821518 334.1578125)scale(0.1 -0.1)">
       <use xlink:href="#ArialMT-32"/>
       <use x="55.615234375" xlink:href="#ArialMT-30"/>
      </g>
     </g>
    </g>
    <g id="xtick_9">
     <g id="line2d_61">
      <path clip-path="url(#p055a6a557b)" d="
M479.771 320
L479.771 28.5" style="fill:none;stroke:#ffffff;stroke-linecap:round;"/>
     </g>
     <g id="line2d_62">
      <g>
       <use style="fill:#262626;stroke:#262626;" x="479.771156669" xlink:href="#m219da94a98" y="320.0"/>
      </g>
     </g>
     <g id="line2d_63">
      <g>
       <use style="fill:#262626;stroke:#262626;" x="479.771156669" xlink:href="#m219da94a98" y="28.5"/>
      </g>
     </g>
     <g id="text_23">
      <!-- 40 -->
      <g style="fill:#262626;" transform="translate(474.512562919 334.1578125)scale(0.1 -0.1)">
       <use xlink:href="#ArialMT-34"/>
       <use x="55.615234375" xlink:href="#ArialMT-30"/>
      </g>
     </g>
    </g>
    <g id="xtick_10">
     <g id="line2d_64">
      <path clip-path="url(#p055a6a557b)" d="
M519.085 320
L519.085 28.5" style="fill:none;stroke:#ffffff;stroke-linecap:round;"/>
     </g>
     <g id="line2d_65">
      <g>
       <use style="fill:#262626;stroke:#262626;" x="519.08549182" xlink:href="#m219da94a98" y="320.0"/>
      </g>
     </g>
     <g id="line2d_66">
      <g>
       <use style="fill:#262626;stroke:#262626;" x="519.08549182" xlink:href="#m219da94a98" y="28.5"/>
      </g>
     </g>
     <g id="text_24">
      <!-- 60 -->
      <g style="fill:#262626;" transform="translate(513.95189807 334.1578125)scale(0.1 -0.1)">
       <use xlink:href="#ArialMT-36"/>
       <use x="55.615234375" xlink:href="#ArialMT-30"/>
      </g>
     </g>
    </g>
    <g id="xtick_11">
     <g id="line2d_67">
      <path clip-path="url(#p055a6a557b)" d="
M558.4 320
L558.4 28.5" style="fill:none;stroke:#ffffff;stroke-linecap:round;"/>
     </g>
     <g id="line2d_68">
      <g>
       <use style="fill:#262626;stroke:#262626;" x="558.399826971" xlink:href="#m219da94a98" y="320.0"/>
      </g>
     </g>
     <g id="line2d_69">
      <g>
       <use style="fill:#262626;stroke:#262626;" x="558.399826971" xlink:href="#m219da94a98" y="28.5"/>
      </g>
     </g>
     <g id="text_25">
      <!-- 80 -->
      <g style="fill:#262626;" transform="translate(553.280295721 334.1578125)scale(0.1 -0.1)">
       <use xlink:href="#ArialMT-38"/>
       <use x="55.615234375" xlink:href="#ArialMT-30"/>
      </g>
     </g>
    </g>
    <g id="xtick_12">
     <g id="line2d_70">
      <path clip-path="url(#p055a6a557b)" d="
M597.714 320
L597.714 28.5" style="fill:none;stroke:#ffffff;stroke-linecap:round;"/>
     </g>
     <g id="line2d_71">
      <g>
       <use style="fill:#262626;stroke:#262626;" x="597.714162122" xlink:href="#m219da94a98" y="320.0"/>
      </g>
     </g>
     <g id="line2d_72">
      <g>
       <use style="fill:#262626;stroke:#262626;" x="597.714162122" xlink:href="#m219da94a98" y="28.5"/>
      </g>
     </g>
     <g id="text_26">
      <!-- 100 -->
      <g style="fill:#262626;" transform="translate(590.156349622 334.1578125)scale(0.1 -0.1)">
       <use xlink:href="#ArialMT-31"/>
       <use x="55.615234375" xlink:href="#ArialMT-30"/>
       <use x="111.23046875" xlink:href="#ArialMT-30"/>
      </g>
     </g>
    </g>
    <g id="xtick_13">
     <g id="line2d_73">
      <path clip-path="url(#p055a6a557b)" d="
M637.028 320
L637.028 28.5" style="fill:none;stroke:#ffffff;stroke-linecap:round;"/>
     </g>
     <g id="line2d_74">
      <g>
       <use style="fill:#262626;stroke:#262626;" x="637.028497273" xlink:href="#m219da94a98" y="320.0"/>
      </g>
     </g>
     <g id="line2d_75">
      <g>
       <use style="fill:#262626;stroke:#262626;" x="637.028497273" xlink:href="#m219da94a98" y="28.5"/>
      </g>
     </g>
     <g id="text_27">
      <!-- 120 -->
      <g style="fill:#262626;" transform="translate(629.470684773 334.1578125)scale(0.1 -0.1)">
       <use xlink:href="#ArialMT-31"/>
       <use x="55.615234375" xlink:href="#ArialMT-32"/>
       <use x="111.23046875" xlink:href="#ArialMT-30"/>
      </g>
     </g>
    </g>
    <g id="xtick_14">
     <g id="line2d_76">
      <path clip-path="url(#p055a6a557b)" d="
M676.343 320
L676.343 28.5" style="fill:none;stroke:#ffffff;stroke-linecap:round;"/>
     </g>
     <g id="line2d_77">
      <g>
       <use style="fill:#262626;stroke:#262626;" x="676.342832424" xlink:href="#m219da94a98" y="320.0"/>
      </g>
     </g>
     <g id="line2d_78">
      <g>
       <use style="fill:#262626;stroke:#262626;" x="676.342832424" xlink:href="#m219da94a98" y="28.5"/>
      </g>
     </g>
     <g id="text_28">
      <!-- 140 -->
      <g style="fill:#262626;" transform="translate(668.785019924 334.1578125)scale(0.1 -0.1)">
       <use xlink:href="#ArialMT-31"/>
       <use x="55.615234375" xlink:href="#ArialMT-34"/>
       <use x="111.23046875" xlink:href="#ArialMT-30"/>
      </g>
     </g>
    </g>
    <g id="text_29">
     <!-- Number of agglomerated predictors -->
     <g style="fill:#262626;" transform="translate(439.723007812 351.336875)scale(0.14 -0.14)">
      <use xlink:href="#ArialMT-4e"/>
      <use x="72.216796875" xlink:href="#ArialMT-75"/>
      <use x="127.83203125" xlink:href="#ArialMT-6d"/>
      <use x="211.1328125" xlink:href="#ArialMT-62"/>
      <use x="266.748046875" xlink:href="#ArialMT-65"/>
      <use x="322.36328125" xlink:href="#ArialMT-72"/>
      <use x="355.6640625" xlink:href="#ArialMT-20"/>
      <use x="383.447265625" xlink:href="#ArialMT-6f"/>
      <use x="439.0625" xlink:href="#ArialMT-66"/>
      <use x="466.845703125" xlink:href="#ArialMT-20"/>
      <use x="494.62890625" xlink:href="#ArialMT-61"/>
      <use x="550.244140625" xlink:href="#ArialMT-67"/>
      <use x="605.859375" xlink:href="#ArialMT-67"/>
      <use x="661.474609375" xlink:href="#ArialMT-6c"/>
      <use x="683.69140625" xlink:href="#ArialMT-6f"/>
      <use x="739.306640625" xlink:href="#ArialMT-6d"/>
      <use x="822.607421875" xlink:href="#ArialMT-65"/>
      <use x="878.22265625" xlink:href="#ArialMT-72"/>
      <use x="911.5234375" xlink:href="#ArialMT-61"/>
      <use x="967.138671875" xlink:href="#ArialMT-74"/>
      <use x="994.921875" xlink:href="#ArialMT-65"/>
      <use x="1050.53710938" xlink:href="#ArialMT-64"/>
      <use x="1106.15234375" xlink:href="#ArialMT-20"/>
      <use x="1133.93554688" xlink:href="#ArialMT-70"/>
      <use x="1189.55078125" xlink:href="#ArialMT-72"/>
      <use x="1222.8515625" xlink:href="#ArialMT-65"/>
      <use x="1278.46679688" xlink:href="#ArialMT-64"/>
      <use x="1334.08203125" xlink:href="#ArialMT-69"/>
      <use x="1356.29882812" xlink:href="#ArialMT-63"/>
      <use x="1406.29882812" xlink:href="#ArialMT-74"/>
      <use x="1434.08203125" xlink:href="#ArialMT-6f"/>
      <use x="1489.69726562" xlink:href="#ArialMT-72"/>
      <use x="1522.99804688" xlink:href="#ArialMT-73"/>
     </g>
    </g>
   </g>
   <g id="matplotlib.axis_4">
    <g id="ytick_9">
     <g id="line2d_79">
      <path clip-path="url(#p055a6a557b)" d="
M403.108 320
L696 320" style="fill:none;stroke:#ffffff;stroke-linecap:round;"/>
     </g>
     <g id="line2d_80">
      <g>
       <use style="fill:#262626;stroke:#262626;" x="403.108203125" xlink:href="#m219da94a98" y="320.0"/>
      </g>
     </g>
     <g id="line2d_81">
      <g>
       <use style="fill:#262626;stroke:#262626;" x="696.0" xlink:href="#m219da94a98" y="320.0"/>
      </g>
     </g>
     <g id="text_30">
      <!-- 0.00 -->
      <defs>
       <path d="
M9.07812 0
L9.07812 10.0156
L19.0938 10.0156
L19.0938 0
z
" id="ArialMT-2e"/>
      </defs>
      <g style="fill:#262626;" transform="translate(377.541015625 322.58515625)scale(0.1 -0.1)">
       <use xlink:href="#ArialMT-30"/>
       <use x="55.615234375" xlink:href="#ArialMT-2e"/>
       <use x="83.3984375" xlink:href="#ArialMT-30"/>
       <use x="139.013671875" xlink:href="#ArialMT-30"/>
      </g>
     </g>
    </g>
    <g id="ytick_10">
     <g id="line2d_82">
      <path clip-path="url(#p055a6a557b)" d="
M403.108 287.611
L696 287.611" style="fill:none;stroke:#ffffff;stroke-linecap:round;"/>
     </g>
     <g id="line2d_83">
      <g>
       <use style="fill:#262626;stroke:#262626;" x="403.108203125" xlink:href="#m219da94a98" y="287.611111111"/>
      </g>
     </g>
     <g id="line2d_84">
      <g>
       <use style="fill:#262626;stroke:#262626;" x="696.0" xlink:href="#m219da94a98" y="287.611111111"/>
      </g>
     </g>
     <g id="text_31">
      <!-- 0.02 -->
      <g style="fill:#262626;" transform="translate(377.589453125 290.196267361)scale(0.1 -0.1)">
       <use xlink:href="#ArialMT-30"/>
       <use x="55.615234375" xlink:href="#ArialMT-2e"/>
       <use x="83.3984375" xlink:href="#ArialMT-30"/>
       <use x="139.013671875" xlink:href="#ArialMT-32"/>
      </g>
     </g>
    </g>
    <g id="ytick_11">
     <g id="line2d_85">
      <path clip-path="url(#p055a6a557b)" d="
M403.108 255.222
L696 255.222" style="fill:none;stroke:#ffffff;stroke-linecap:round;"/>
     </g>
     <g id="line2d_86">
      <g>
       <use style="fill:#262626;stroke:#262626;" x="403.108203125" xlink:href="#m219da94a98" y="255.222222222"/>
      </g>
     </g>
     <g id="line2d_87">
      <g>
       <use style="fill:#262626;stroke:#262626;" x="696.0" xlink:href="#m219da94a98" y="255.222222222"/>
      </g>
     </g>
     <g id="text_32">
      <!-- 0.04 -->
      <g style="fill:#262626;" transform="translate(377.545703125 257.807378472)scale(0.1 -0.1)">
       <use xlink:href="#ArialMT-30"/>
       <use x="55.615234375" xlink:href="#ArialMT-2e"/>
       <use x="83.3984375" xlink:href="#ArialMT-30"/>
       <use x="139.013671875" xlink:href="#ArialMT-34"/>
      </g>
     </g>
    </g>
    <g id="ytick_12">
     <g id="line2d_88">
      <path clip-path="url(#p055a6a557b)" d="
M403.108 222.833
L696 222.833" style="fill:none;stroke:#ffffff;stroke-linecap:round;"/>
     </g>
     <g id="line2d_89">
      <g>
       <use style="fill:#262626;stroke:#262626;" x="403.108203125" xlink:href="#m219da94a98" y="222.833333333"/>
      </g>
     </g>
     <g id="line2d_90">
      <g>
       <use style="fill:#262626;stroke:#262626;" x="696.0" xlink:href="#m219da94a98" y="222.833333333"/>
      </g>
     </g>
     <g id="text_33">
      <!-- 0.06 -->
      <g style="fill:#262626;" transform="translate(377.520703125 225.418489583)scale(0.1 -0.1)">
       <use xlink:href="#ArialMT-30"/>
       <use x="55.615234375" xlink:href="#ArialMT-2e"/>
       <use x="83.3984375" xlink:href="#ArialMT-30"/>
       <use x="139.013671875" xlink:href="#ArialMT-36"/>
      </g>
     </g>
    </g>
    <g id="ytick_13">
     <g id="line2d_91">
      <path clip-path="url(#p055a6a557b)" d="
M403.108 190.444
L696 190.444" style="fill:none;stroke:#ffffff;stroke-linecap:round;"/>
     </g>
     <g id="line2d_92">
      <g>
       <use style="fill:#262626;stroke:#262626;" x="403.108203125" xlink:href="#m219da94a98" y="190.444444444"/>
      </g>
     </g>
     <g id="line2d_93">
      <g>
       <use style="fill:#262626;stroke:#262626;" x="696.0" xlink:href="#m219da94a98" y="190.444444444"/>
      </g>
     </g>
     <g id="text_34">
      <!-- 0.08 -->
      <g style="fill:#262626;" transform="translate(377.501953125 193.029600694)scale(0.1 -0.1)">
       <use xlink:href="#ArialMT-30"/>
       <use x="55.615234375" xlink:href="#ArialMT-2e"/>
       <use x="83.3984375" xlink:href="#ArialMT-30"/>
       <use x="139.013671875" xlink:href="#ArialMT-38"/>
      </g>
     </g>
    </g>
    <g id="ytick_14">
     <g id="line2d_94">
      <path clip-path="url(#p055a6a557b)" d="
M403.108 158.056
L696 158.056" style="fill:none;stroke:#ffffff;stroke-linecap:round;"/>
     </g>
     <g id="line2d_95">
      <g>
       <use style="fill:#262626;stroke:#262626;" x="403.108203125" xlink:href="#m219da94a98" y="158.055555556"/>
      </g>
     </g>
     <g id="line2d_96">
      <g>
       <use style="fill:#262626;stroke:#262626;" x="696.0" xlink:href="#m219da94a98" y="158.055555556"/>
      </g>
     </g>
     <g id="text_35">
      <!-- 0.10 -->
      <g style="fill:#262626;" transform="translate(377.541015625 160.640711806)scale(0.1 -0.1)">
       <use xlink:href="#ArialMT-30"/>
       <use x="55.615234375" xlink:href="#ArialMT-2e"/>
       <use x="83.3984375" xlink:href="#ArialMT-31"/>
       <use x="139.013671875" xlink:href="#ArialMT-30"/>
      </g>
     </g>
    </g>
    <g id="ytick_15">
     <g id="line2d_97">
      <path clip-path="url(#p055a6a557b)" d="
M403.108 125.667
L696 125.667" style="fill:none;stroke:#ffffff;stroke-linecap:round;"/>
     </g>
     <g id="line2d_98">
      <g>
       <use style="fill:#262626;stroke:#262626;" x="403.108203125" xlink:href="#m219da94a98" y="125.666666667"/>
      </g>
     </g>
     <g id="line2d_99">
      <g>
       <use style="fill:#262626;stroke:#262626;" x="696.0" xlink:href="#m219da94a98" y="125.666666667"/>
      </g>
     </g>
     <g id="text_36">
      <!-- 0.12 -->
      <g style="fill:#262626;" transform="translate(377.589453125 128.251822917)scale(0.1 -0.1)">
       <use xlink:href="#ArialMT-30"/>
       <use x="55.615234375" xlink:href="#ArialMT-2e"/>
       <use x="83.3984375" xlink:href="#ArialMT-31"/>
       <use x="139.013671875" xlink:href="#ArialMT-32"/>
      </g>
     </g>
    </g>
    <g id="ytick_16">
     <g id="line2d_100">
      <path clip-path="url(#p055a6a557b)" d="
M403.108 93.2778
L696 93.2778" style="fill:none;stroke:#ffffff;stroke-linecap:round;"/>
     </g>
     <g id="line2d_101">
      <g>
       <use style="fill:#262626;stroke:#262626;" x="403.108203125" xlink:href="#m219da94a98" y="93.2777777778"/>
      </g>
     </g>
     <g id="line2d_102">
      <g>
       <use style="fill:#262626;stroke:#262626;" x="696.0" xlink:href="#m219da94a98" y="93.2777777778"/>
      </g>
     </g>
     <g id="text_37">
      <!-- 0.14 -->
      <g style="fill:#262626;" transform="translate(377.545703125 95.8629340278)scale(0.1 -0.1)">
       <use xlink:href="#ArialMT-30"/>
       <use x="55.615234375" xlink:href="#ArialMT-2e"/>
       <use x="83.3984375" xlink:href="#ArialMT-31"/>
       <use x="139.013671875" xlink:href="#ArialMT-34"/>
      </g>
     </g>
    </g>
    <g id="ytick_17">
     <g id="line2d_103">
      <path clip-path="url(#p055a6a557b)" d="
M403.108 60.8889
L696 60.8889" style="fill:none;stroke:#ffffff;stroke-linecap:round;"/>
     </g>
     <g id="line2d_104">
      <g>
       <use style="fill:#262626;stroke:#262626;" x="403.108203125" xlink:href="#m219da94a98" y="60.8888888889"/>
      </g>
     </g>
     <g id="line2d_105">
      <g>
       <use style="fill:#262626;stroke:#262626;" x="696.0" xlink:href="#m219da94a98" y="60.8888888889"/>
      </g>
     </g>
     <g id="text_38">
      <!-- 0.16 -->
      <g style="fill:#262626;" transform="translate(377.520703125 63.4740451389)scale(0.1 -0.1)">
       <use xlink:href="#ArialMT-30"/>
       <use x="55.615234375" xlink:href="#ArialMT-2e"/>
       <use x="83.3984375" xlink:href="#ArialMT-31"/>
       <use x="139.013671875" xlink:href="#ArialMT-36"/>
      </g>
     </g>
    </g>
    <g id="ytick_18">
     <g id="line2d_106">
      <path clip-path="url(#p055a6a557b)" d="
M403.108 28.5
L696 28.5" style="fill:none;stroke:#ffffff;stroke-linecap:round;"/>
     </g>
     <g id="line2d_107">
      <g>
       <use style="fill:#262626;stroke:#262626;" x="403.108203125" xlink:href="#m219da94a98" y="28.5"/>
      </g>
     </g>
     <g id="line2d_108">
      <g>
       <use style="fill:#262626;stroke:#262626;" x="696.0" xlink:href="#m219da94a98" y="28.5"/>
      </g>
     </g>
     <g id="text_39">
      <!-- 0.18 -->
      <g style="fill:#262626;" transform="translate(377.501953125 31.08515625)scale(0.1 -0.1)">
       <use xlink:href="#ArialMT-30"/>
       <use x="55.615234375" xlink:href="#ArialMT-2e"/>
       <use x="83.3984375" xlink:href="#ArialMT-31"/>
       <use x="139.013671875" xlink:href="#ArialMT-38"/>
      </g>
     </g>
    </g>
    <g id="text_40">
     <!-- Mean parameter fluctuations -->
     <defs>
      <path d="
M7.42188 0
L7.42188 71.5781
L21.6875 71.5781
L38.625 20.9062
Q40.9688 13.8125 42.0469 10.2969
Q43.2656 14.2031 45.8438 21.7812
L62.9844 71.5781
L75.7344 71.5781
L75.7344 0
L66.6094 0
L66.6094 59.9062
L45.7969 0
L37.25 0
L16.5469 60.9375
L16.5469 0
z
" id="ArialMT-4d"/>
     </defs>
     <g style="fill:#262626;" transform="translate(369.719453125 262.68625)rotate(-90.0)scale(0.14 -0.14)">
      <use xlink:href="#ArialMT-4d"/>
      <use x="83.30078125" xlink:href="#ArialMT-65"/>
      <use x="138.916015625" xlink:href="#ArialMT-61"/>
      <use x="194.53125" xlink:href="#ArialMT-6e"/>
      <use x="250.146484375" xlink:href="#ArialMT-20"/>
      <use x="277.9296875" xlink:href="#ArialMT-70"/>
      <use x="333.544921875" xlink:href="#ArialMT-61"/>
      <use x="389.16015625" xlink:href="#ArialMT-72"/>
      <use x="422.4609375" xlink:href="#ArialMT-61"/>
      <use x="478.076171875" xlink:href="#ArialMT-6d"/>
      <use x="561.376953125" xlink:href="#ArialMT-65"/>
      <use x="616.9921875" xlink:href="#ArialMT-74"/>
      <use x="644.775390625" xlink:href="#ArialMT-65"/>
      <use x="700.390625" xlink:href="#ArialMT-72"/>
      <use x="733.69140625" xlink:href="#ArialMT-20"/>
      <use x="761.474609375" xlink:href="#ArialMT-66"/>
      <use x="789.2578125" xlink:href="#ArialMT-6c"/>
      <use x="811.474609375" xlink:href="#ArialMT-75"/>
      <use x="867.08984375" xlink:href="#ArialMT-63"/>
      <use x="917.08984375" xlink:href="#ArialMT-74"/>
      <use x="944.873046875" xlink:href="#ArialMT-75"/>
      <use x="1000.48828125" xlink:href="#ArialMT-61"/>
      <use x="1056.10351562" xlink:href="#ArialMT-74"/>
      <use x="1083.88671875" xlink:href="#ArialMT-69"/>
      <use x="1106.10351562" xlink:href="#ArialMT-6f"/>
      <use x="1161.71875" xlink:href="#ArialMT-6e"/>
      <use x="1217.33398438" xlink:href="#ArialMT-73"/>
     </g>
    </g>
   </g>
   <g id="line2d_109">
    <path clip-path="url(#p055a6a557b)" d="
M403.108 319.319
L405.074 306.664
L407.04 307.748
L409.005 303.912
L410.971 298.577
L412.937 300.478
L414.903 297.506
L418.834 292.456
L420.8 290.982
L422.765 294.703
L424.731 288.212
L426.697 284.74
L428.663 284.123
L430.628 286.722
L432.594 281.967
L434.56 278.89
L436.525 272.729
L438.491 270.024
L440.457 276.271
L442.423 267.118
L444.388 268.747
L446.354 266.793
L448.32 261.622
L450.285 262.171
L452.251 263.4
L454.217 261.358
L456.183 264.12
L458.148 266.342
L460.114 257.648
L462.08 251.285
L464.045 258.052
L466.011 256.222
L467.977 255.244
L469.943 258.41
L471.908 256.904
L473.874 250.11
L475.84 247.734
L477.805 247.463
L479.771 242.903
L481.737 244.857
L483.703 249.383
L485.668 245.914
L487.634 248.666
L489.6 240.476
L491.565 241.804
L493.531 242.717
L495.497 239.245
L497.463 237.996
L499.428 238.432
L501.394 236.683
L503.36 236.613
L505.325 238.897
L507.291 228.284
L509.257 231.346
L511.223 233.103
L513.188 228.374
L515.154 230.232
L517.12 225.633
L519.085 228.234
L521.051 226.654
L523.017 226.621
L524.983 219.956
L526.948 218.211
L528.914 222.635
L530.88 218.566
L532.846 223.347
L534.811 223.021
L536.777 221.604
L538.743 224.596
L540.708 220.563
L542.674 215.32
L544.64 215.005
L546.606 216.732
L548.571 210.892
L550.537 213.42
L552.503 211.883
L554.468 213.161
L556.434 213.726
L558.4 215.147
L560.366 212.174
L562.331 207.237
L564.297 204.161
L566.263 203.222
L568.228 205.284
L570.194 208.324
L572.16 202.645
L574.126 203.664
L578.057 204.124
L580.023 199.291
L581.988 199.542
L583.954 197.616
L585.92 199.097
L587.886 205.617
L589.851 205.491
L591.817 206.161
L593.783 202.083
L595.748 199.544
L597.714 194.821
L599.68 192.328
L601.646 191.54
L603.611 191.251
L605.577 188.237
L607.543 187.854
L609.508 186.346
L611.474 185.832
L613.44 188.669
L615.406 191.777
L617.371 190.678
L619.337 187.642
L621.303 183.932
L625.234 182.433
L627.2 184.683
L629.166 183.35
L631.131 183.239
L633.097 189.007
L635.063 184.088
L637.028 182.729
L644.891 181.913
L646.857 181.035
L648.823 178.569
L650.789 178.285
L652.754 176.867
L654.72 175.856
L656.686 175.127
L658.651 175.167
L660.617 174.259
L662.583 171.718
L664.549 171.282
L666.514 172.612
L668.48 173.688
L670.446 172.295
L672.411 173.841
L674.377 173.199
L676.343 172.013
L678.309 173.969
L680.274 171.862
L682.24 166.333
L684.206 167.179
L686.171 166.568
L688.137 165.502
L690.103 164.765
L692.069 165.652
L694.034 165.894
L696 164.602
L697.966 162.982
L697.966 162.982" style="fill:none;stroke:#659564;stroke-linecap:round;stroke-width:2;"/>
   </g>
   <g id="line2d_110">
    <path clip-path="url(#p055a6a557b)" d="
M403.108 56.2311
L705.829 56.2311" style="fill:none;stroke:#659564;stroke-dasharray:6.000000,6.000000;stroke-dashoffset:0.0;stroke-width:2;"/>
   </g>
   <g id="patch_8">
    <path d="
M403.108 28.5
L696 28.5" style="fill:none;"/>
   </g>
   <g id="patch_9">
    <path d="
M696 320
L696 28.5" style="fill:none;"/>
   </g>
   <g id="patch_10">
    <path d="
M403.108 320
L696 320" style="fill:none;"/>
   </g>
   <g id="patch_11">
    <path d="
M403.108 320
L403.108 28.5" style="fill:none;"/>
   </g>
   <g id="legend_2">
    <g id="line2d_111">
     <path d="
M491.081 288.246
L513.081 288.246" style="fill:none;stroke:#659564;stroke-linecap:round;stroke-width:2;"/>
    </g>
    <g id="line2d_112"/>
    <g id="text_41">
     <!-- Agglomerated set -->
     <g style="fill:#262626;" transform="translate(521.881367187 292.09609375)scale(0.11 -0.11)">
      <use xlink:href="#ArialMT-41"/>
      <use x="66.69921875" xlink:href="#ArialMT-67"/>
      <use x="122.314453125" xlink:href="#ArialMT-67"/>
      <use x="177.9296875" xlink:href="#ArialMT-6c"/>
      <use x="200.146484375" xlink:href="#ArialMT-6f"/>
      <use x="255.76171875" xlink:href="#ArialMT-6d"/>
      <use x="339.0625" xlink:href="#ArialMT-65"/>
      <use x="394.677734375" xlink:href="#ArialMT-72"/>
      <use x="427.978515625" xlink:href="#ArialMT-61"/>
      <use x="483.59375" xlink:href="#ArialMT-74"/>
      <use x="511.376953125" xlink:href="#ArialMT-65"/>
      <use x="566.9921875" xlink:href="#ArialMT-64"/>
      <use x="622.607421875" xlink:href="#ArialMT-20"/>
      <use x="650.390625" xlink:href="#ArialMT-73"/>
      <use x="700.390625" xlink:href="#ArialMT-65"/>
      <use x="756.005859375" xlink:href="#ArialMT-74"/>
     </g>
    </g>
    <g id="line2d_113">
     <path d="
M491.081 303.935
L513.081 303.935" style="fill:none;stroke:#659564;stroke-dasharray:6.000000,6.000000;stroke-dashoffset:0.0;stroke-width:2;"/>
    </g>
    <g id="line2d_114"/>
    <g id="text_42">
     <!-- No agglomeration -->
     <g style="fill:#262626;" transform="translate(521.881367187 307.78484375)scale(0.11 -0.11)">
      <use xlink:href="#ArialMT-4e"/>
      <use x="72.216796875" xlink:href="#ArialMT-6f"/>
      <use x="127.83203125" xlink:href="#ArialMT-20"/>
      <use x="155.615234375" xlink:href="#ArialMT-61"/>
      <use x="211.23046875" xlink:href="#ArialMT-67"/>
      <use x="266.845703125" xlink:href="#ArialMT-67"/>
      <use x="322.4609375" xlink:href="#ArialMT-6c"/>
      <use x="344.677734375" xlink:href="#ArialMT-6f"/>
      <use x="400.29296875" xlink:href="#ArialMT-6d"/>
      <use x="483.59375" xlink:href="#ArialMT-65"/>
      <use x="539.208984375" xlink:href="#ArialMT-72"/>
      <use x="572.509765625" xlink:href="#ArialMT-61"/>
      <use x="628.125" xlink:href="#ArialMT-74"/>
      <use x="655.908203125" xlink:href="#ArialMT-69"/>
      <use x="678.125" xlink:href="#ArialMT-6f"/>
      <use x="733.740234375" xlink:href="#ArialMT-6e"/>
     </g>
    </g>
   </g>
  </g>
  <g id="text_43">
   <!-- Performance of logistic model with agglomerated features -->
   <defs>
    <path d="
M16.1562 0
L0.296875 51.8594
L9.375 51.8594
L17.625 21.9219
L20.7031 10.7969
Q20.9062 11.625 23.3906 21.4844
L31.6406 51.8594
L40.6719 51.8594
L48.4375 21.7812
L51.0312 11.8594
L54 21.875
L62.8906 51.8594
L71.4375 51.8594
L55.2188 0
L46.0938 0
L37.8438 31.0625
L35.8438 39.8906
L25.3438 0
z
" id="ArialMT-77"/>
    <path d="
M6.59375 0
L6.59375 71.5781
L15.375 71.5781
L15.375 45.9062
Q21.5312 53.0312 30.9062 53.0312
Q36.6719 53.0312 40.9219 50.75
Q45.1719 48.4844 47 44.4844
Q48.8281 40.4844 48.8281 32.8594
L48.8281 0
L40.0469 0
L40.0469 32.8594
Q40.0469 39.4531 37.1875 42.4531
Q34.3281 45.4531 29.1094 45.4531
Q25.2031 45.4531 21.75 43.4219
Q18.3125 41.4062 16.8438 37.9375
Q15.375 34.4688 15.375 28.375
L15.375 0
z
" id="ArialMT-68"/>
   </defs>
   <g style="fill:#262626;" transform="translate(156.22125 18.8475)scale(0.16 -0.16)">
    <use xlink:href="#ArialMT-50"/>
    <use x="66.69921875" xlink:href="#ArialMT-65"/>
    <use x="122.314453125" xlink:href="#ArialMT-72"/>
    <use x="155.615234375" xlink:href="#ArialMT-66"/>
    <use x="183.3984375" xlink:href="#ArialMT-6f"/>
    <use x="239.013671875" xlink:href="#ArialMT-72"/>
    <use x="272.314453125" xlink:href="#ArialMT-6d"/>
    <use x="355.615234375" xlink:href="#ArialMT-61"/>
    <use x="411.23046875" xlink:href="#ArialMT-6e"/>
    <use x="466.845703125" xlink:href="#ArialMT-63"/>
    <use x="516.845703125" xlink:href="#ArialMT-65"/>
    <use x="572.4609375" xlink:href="#ArialMT-20"/>
    <use x="600.244140625" xlink:href="#ArialMT-6f"/>
    <use x="655.859375" xlink:href="#ArialMT-66"/>
    <use x="683.642578125" xlink:href="#ArialMT-20"/>
    <use x="711.42578125" xlink:href="#ArialMT-6c"/>
    <use x="733.642578125" xlink:href="#ArialMT-6f"/>
    <use x="789.2578125" xlink:href="#ArialMT-67"/>
    <use x="844.873046875" xlink:href="#ArialMT-69"/>
    <use x="867.08984375" xlink:href="#ArialMT-73"/>
    <use x="917.08984375" xlink:href="#ArialMT-74"/>
    <use x="944.873046875" xlink:href="#ArialMT-69"/>
    <use x="967.08984375" xlink:href="#ArialMT-63"/>
    <use x="1017.08984375" xlink:href="#ArialMT-20"/>
    <use x="1044.87304688" xlink:href="#ArialMT-6d"/>
    <use x="1128.17382812" xlink:href="#ArialMT-6f"/>
    <use x="1183.7890625" xlink:href="#ArialMT-64"/>
    <use x="1239.40429688" xlink:href="#ArialMT-65"/>
    <use x="1295.01953125" xlink:href="#ArialMT-6c"/>
    <use x="1317.23632812" xlink:href="#ArialMT-20"/>
    <use x="1345.01953125" xlink:href="#ArialMT-77"/>
    <use x="1417.23632812" xlink:href="#ArialMT-69"/>
    <use x="1439.453125" xlink:href="#ArialMT-74"/>
    <use x="1467.23632812" xlink:href="#ArialMT-68"/>
    <use x="1522.8515625" xlink:href="#ArialMT-20"/>
    <use x="1550.63476562" xlink:href="#ArialMT-61"/>
    <use x="1606.25" xlink:href="#ArialMT-67"/>
    <use x="1661.86523438" xlink:href="#ArialMT-67"/>
    <use x="1717.48046875" xlink:href="#ArialMT-6c"/>
    <use x="1739.69726562" xlink:href="#ArialMT-6f"/>
    <use x="1795.3125" xlink:href="#ArialMT-6d"/>
    <use x="1878.61328125" xlink:href="#ArialMT-65"/>
    <use x="1934.22851562" xlink:href="#ArialMT-72"/>
    <use x="1967.52929688" xlink:href="#ArialMT-61"/>
    <use x="2023.14453125" xlink:href="#ArialMT-74"/>
    <use x="2050.92773438" xlink:href="#ArialMT-65"/>
    <use x="2106.54296875" xlink:href="#ArialMT-64"/>
    <use x="2162.15820312" xlink:href="#ArialMT-20"/>
    <use x="2189.94140625" xlink:href="#ArialMT-66"/>
    <use x="2217.72460938" xlink:href="#ArialMT-65"/>
    <use x="2273.33984375" xlink:href="#ArialMT-61"/>
    <use x="2328.95507812" xlink:href="#ArialMT-74"/>
    <use x="2356.73828125" xlink:href="#ArialMT-75"/>
    <use x="2412.35351562" xlink:href="#ArialMT-72"/>
    <use x="2445.65429688" xlink:href="#ArialMT-65"/>
    <use x="2501.26953125" xlink:href="#ArialMT-73"/>
   </g>
  </g>
 </g>
 <defs>
  <clipPath id="p055a6a557b">
   <rect height="291.5" width="292.891796875" x="403.108203125" y="28.5"/>
  </clipPath>
  <clipPath id="pf75fcae577">
   <rect height="291.5" width="292.891796875" x="44.05" y="28.5"/>
  </clipPath>
 </defs>
</svg>
