<?xml version="1.0" encoding="utf-8" standalone="no"?>
<!DOCTYPE svg PUBLIC "-//W3C//DTD SVG 1.1//EN"
  "http://www.w3.org/Graphics/SVG/1.1/DTD/svg11.dtd">
<!-- Created with matplotlib (http://matplotlib.org/) -->
<svg height="288pt" version="1.1" viewBox="0 0 720 288" width="720pt" xmlns="http://www.w3.org/2000/svg" xmlns:xlink="http://www.w3.org/1999/xlink">
 <defs>
  <style type="text/css">
*{stroke-linecap:butt;stroke-linejoin:round;}
  </style>
 </defs>
 <g id="figure_1">
  <g id="patch_1">
   <path d="
M0 288
L720 288
L720 0
L0 0
z
" style="fill:#ffffff;"/>
  </g>
  <g id="axes_1">
   <g id="patch_2">
    <path d="
M44.05 248
L336.942 248
L336.942 28.5
L44.05 28.5
z
" style="fill:#eaeaf2;"/>
   </g>
   <g id="matplotlib.axis_1">
    <g id="xtick_1">
     <g id="line2d_1">
      <path clip-path="url(#p7c714b6e5e)" d="
M44.05 248
L44.05 28.5" style="fill:none;stroke:#ffffff;stroke-linecap:round;"/>
     </g>
     <g id="line2d_2">
      <defs>
       <path d="
M0 0
L0 0" id="m219da94a98" style="stroke:#262626;"/>
      </defs>
      <g>
       <use style="fill:#262626;stroke:#262626;" x="44.05" xlink:href="#m219da94a98" y="248.0"/>
      </g>
     </g>
     <g id="line2d_3">
      <g>
       <use style="fill:#262626;stroke:#262626;" x="44.05" xlink:href="#m219da94a98" y="28.5"/>
      </g>
     </g>
     <g id="text_1">
      <!-- 0 -->
      <defs>
       <path d="
M4.15625 35.2969
Q4.15625 48 6.76562 55.7344
Q9.375 63.4844 14.5156 67.6719
Q19.6719 71.875 27.4844 71.875
Q33.25 71.875 37.5938 69.5469
Q41.9375 67.2344 44.7656 62.8594
Q47.6094 58.5 49.2188 52.2188
Q50.8281 45.9531 50.8281 35.2969
Q50.8281 22.7031 48.2344 14.9688
Q45.6562 7.23438 40.5 3
Q35.3594 -1.21875 27.4844 -1.21875
Q17.1406 -1.21875 11.2344 6.20312
Q4.15625 15.1406 4.15625 35.2969
M13.1875 35.2969
Q13.1875 17.6719 17.3125 11.8281
Q21.4375 6 27.4844 6
Q33.5469 6 37.6719 11.8594
Q41.7969 17.7188 41.7969 35.2969
Q41.7969 52.9844 37.6719 58.7812
Q33.5469 64.5938 27.3906 64.5938
Q21.3438 64.5938 17.7188 59.4688
Q13.1875 52.9375 13.1875 35.2969" id="ArialMT-30"/>
      </defs>
      <g style="fill:#262626;" transform="translate(41.71640625 262.1578125)scale(0.1 -0.1)">
       <use xlink:href="#ArialMT-30"/>
      </g>
     </g>
    </g>
    <g id="xtick_2">
     <g id="line2d_4">
      <path clip-path="url(#p7c714b6e5e)" d="
M85.8917 248
L85.8917 28.5" style="fill:none;stroke:#ffffff;stroke-linecap:round;"/>
     </g>
     <g id="line2d_5">
      <g>
       <use style="fill:#262626;stroke:#262626;" x="85.8916852679" xlink:href="#m219da94a98" y="248.0"/>
      </g>
     </g>
     <g id="line2d_6">
      <g>
       <use style="fill:#262626;stroke:#262626;" x="85.8916852679" xlink:href="#m219da94a98" y="28.5"/>
      </g>
     </g>
     <g id="text_2">
      <!-- 20 -->
      <defs>
       <path d="
M50.3438 8.45312
L50.3438 0
L3.03125 0
Q2.9375 3.17188 4.04688 6.10938
Q5.85938 10.9375 9.82812 15.625
Q13.8125 20.3125 21.3438 26.4688
Q33.0156 36.0312 37.1094 41.625
Q41.2188 47.2188 41.2188 52.2031
Q41.2188 57.4219 37.4688 61
Q33.7344 64.5938 27.7344 64.5938
Q21.3906 64.5938 17.5781 60.7812
Q13.7656 56.9844 13.7188 50.25
L4.6875 51.1719
Q5.60938 61.2812 11.6562 66.5781
Q17.7188 71.875 27.9375 71.875
Q38.2344 71.875 44.2344 66.1562
Q50.25 60.4531 50.25 52
Q50.25 47.7031 48.4844 43.5469
Q46.7344 39.4062 42.6562 34.8125
Q38.5781 30.2188 29.1094 22.2188
Q21.1875 15.5781 18.9375 13.2031
Q16.7031 10.8438 15.2344 8.45312
z
" id="ArialMT-32"/>
      </defs>
      <g style="fill:#262626;" transform="translate(80.7166852679 262.1578125)scale(0.1 -0.1)">
       <use xlink:href="#ArialMT-32"/>
       <use x="55.615234375" xlink:href="#ArialMT-30"/>
      </g>
     </g>
    </g>
    <g id="xtick_3">
     <g id="line2d_7">
      <path clip-path="url(#p7c714b6e5e)" d="
M127.733 248
L127.733 28.5" style="fill:none;stroke:#ffffff;stroke-linecap:round;"/>
     </g>
     <g id="line2d_8">
      <g>
       <use style="fill:#262626;stroke:#262626;" x="127.733370536" xlink:href="#m219da94a98" y="248.0"/>
      </g>
     </g>
     <g id="line2d_9">
      <g>
       <use style="fill:#262626;stroke:#262626;" x="127.733370536" xlink:href="#m219da94a98" y="28.5"/>
      </g>
     </g>
     <g id="text_3">
      <!-- 40 -->
      <defs>
       <path d="
M32.3281 0
L32.3281 17.1406
L1.26562 17.1406
L1.26562 25.2031
L33.9375 71.5781
L41.1094 71.5781
L41.1094 25.2031
L50.7812 25.2031
L50.7812 17.1406
L41.1094 17.1406
L41.1094 0
z

M32.3281 25.2031
L32.3281 57.4688
L9.90625 25.2031
z
" id="ArialMT-34"/>
      </defs>
      <g style="fill:#262626;" transform="translate(122.474776786 262.1578125)scale(0.1 -0.1)">
       <use xlink:href="#ArialMT-34"/>
       <use x="55.615234375" xlink:href="#ArialMT-30"/>
      </g>
     </g>
    </g>
    <g id="xtick_4">
     <g id="line2d_10">
      <path clip-path="url(#p7c714b6e5e)" d="
M169.575 248
L169.575 28.5" style="fill:none;stroke:#ffffff;stroke-linecap:round;"/>
     </g>
     <g id="line2d_11">
      <g>
       <use style="fill:#262626;stroke:#262626;" x="169.575055804" xlink:href="#m219da94a98" y="248.0"/>
      </g>
     </g>
     <g id="line2d_12">
      <g>
       <use style="fill:#262626;stroke:#262626;" x="169.575055804" xlink:href="#m219da94a98" y="28.5"/>
      </g>
     </g>
     <g id="text_4">
      <!-- 60 -->
      <defs>
       <path d="
M49.75 54.0469
L41.0156 53.375
Q39.8438 58.5469 37.7031 60.8906
Q34.125 64.6562 28.9062 64.6562
Q24.7031 64.6562 21.5312 62.3125
Q17.3906 59.2812 14.9844 53.4688
Q12.5938 47.6562 12.5 36.9219
Q15.6719 41.75 20.2656 44.0938
Q24.8594 46.4375 29.8906 46.4375
Q38.6719 46.4375 44.8438 39.9688
Q51.0312 33.5 51.0312 23.25
Q51.0312 16.5 48.125 10.7188
Q45.2188 4.9375 40.1406 1.85938
Q35.0625 -1.21875 28.6094 -1.21875
Q17.625 -1.21875 10.6875 6.85938
Q3.76562 14.9375 3.76562 33.5
Q3.76562 54.25 11.4219 63.6719
Q18.1094 71.875 29.4375 71.875
Q37.8906 71.875 43.2812 67.1406
Q48.6875 62.4062 49.75 54.0469
M13.875 23.1875
Q13.875 18.6562 15.7969 14.5
Q17.7188 10.3594 21.1875 8.17188
Q24.6562 6 28.4688 6
Q34.0312 6 38.0312 10.4844
Q42.0469 14.9844 42.0469 22.7031
Q42.0469 30.125 38.0781 34.3906
Q34.125 38.6719 28.125 38.6719
Q22.1719 38.6719 18.0156 34.3906
Q13.875 30.125 13.875 23.1875" id="ArialMT-36"/>
      </defs>
      <g style="fill:#262626;" transform="translate(164.441462054 262.1578125)scale(0.1 -0.1)">
       <use xlink:href="#ArialMT-36"/>
       <use x="55.615234375" xlink:href="#ArialMT-30"/>
      </g>
     </g>
    </g>
    <g id="xtick_5">
     <g id="line2d_13">
      <path clip-path="url(#p7c714b6e5e)" d="
M211.417 248
L211.417 28.5" style="fill:none;stroke:#ffffff;stroke-linecap:round;"/>
     </g>
     <g id="line2d_14">
      <g>
       <use style="fill:#262626;stroke:#262626;" x="211.416741071" xlink:href="#m219da94a98" y="248.0"/>
      </g>
     </g>
     <g id="line2d_15">
      <g>
       <use style="fill:#262626;stroke:#262626;" x="211.416741071" xlink:href="#m219da94a98" y="28.5"/>
      </g>
     </g>
     <g id="text_5">
      <!-- 80 -->
      <defs>
       <path d="
M17.6719 38.8125
Q12.2031 40.8281 9.5625 44.5312
Q6.9375 48.25 6.9375 53.4219
Q6.9375 61.2344 12.5469 66.5469
Q18.1719 71.875 27.4844 71.875
Q36.8594 71.875 42.5781 66.4219
Q48.2969 60.9844 48.2969 53.1719
Q48.2969 48.1875 45.6719 44.5
Q43.0625 40.8281 37.75 38.8125
Q44.3438 36.6719 47.7812 31.875
Q51.2188 27.0938 51.2188 20.4531
Q51.2188 11.2812 44.7188 5.03125
Q38.2344 -1.21875 27.6406 -1.21875
Q17.0469 -1.21875 10.5469 5.04688
Q4.04688 11.3281 4.04688 20.7031
Q4.04688 27.6875 7.59375 32.3906
Q11.1406 37.1094 17.6719 38.8125
M15.9219 53.7188
Q15.9219 48.6406 19.1875 45.4062
Q22.4688 42.1875 27.6875 42.1875
Q32.7656 42.1875 36.0156 45.375
Q39.2656 48.5781 39.2656 53.2188
Q39.2656 58.0625 35.9062 61.3594
Q32.5625 64.6562 27.5938 64.6562
Q22.5625 64.6562 19.2344 61.4219
Q15.9219 58.2031 15.9219 53.7188
M13.0938 20.6562
Q13.0938 16.8906 14.875 13.375
Q16.6562 9.85938 20.1719 7.92188
Q23.6875 6 27.7344 6
Q34.0312 6 38.125 10.0469
Q42.2344 14.1094 42.2344 20.3594
Q42.2344 26.7031 38.0156 30.8594
Q33.7969 35.0156 27.4375 35.0156
Q21.2344 35.0156 17.1562 30.9062
Q13.0938 26.8125 13.0938 20.6562" id="ArialMT-38"/>
      </defs>
      <g style="fill:#262626;" transform="translate(206.297209821 262.1578125)scale(0.1 -0.1)">
       <use xlink:href="#ArialMT-38"/>
       <use x="55.615234375" xlink:href="#ArialMT-30"/>
      </g>
     </g>
    </g>
    <g id="xtick_6">
     <g id="line2d_16">
      <path clip-path="url(#p7c714b6e5e)" d="
M253.258 248
L253.258 28.5" style="fill:none;stroke:#ffffff;stroke-linecap:round;"/>
     </g>
     <g id="line2d_17">
      <g>
       <use style="fill:#262626;stroke:#262626;" x="253.258426339" xlink:href="#m219da94a98" y="248.0"/>
      </g>
     </g>
     <g id="line2d_18">
      <g>
       <use style="fill:#262626;stroke:#262626;" x="253.258426339" xlink:href="#m219da94a98" y="28.5"/>
      </g>
     </g>
     <g id="text_6">
      <!-- 100 -->
      <defs>
       <path d="
M37.25 0
L28.4688 0
L28.4688 56
Q25.2969 52.9844 20.1406 49.9531
Q14.9844 46.9219 10.8906 45.4062
L10.8906 53.9062
Q18.2656 57.375 23.7812 62.2969
Q29.2969 67.2344 31.5938 71.875
L37.25 71.875
z
" id="ArialMT-31"/>
      </defs>
      <g style="fill:#262626;" transform="translate(245.700613839 262.1578125)scale(0.1 -0.1)">
       <use xlink:href="#ArialMT-31"/>
       <use x="55.615234375" xlink:href="#ArialMT-30"/>
       <use x="111.23046875" xlink:href="#ArialMT-30"/>
      </g>
     </g>
    </g>
    <g id="xtick_7">
     <g id="line2d_19">
      <path clip-path="url(#p7c714b6e5e)" d="
M295.1 248
L295.1 28.5" style="fill:none;stroke:#ffffff;stroke-linecap:round;"/>
     </g>
     <g id="line2d_20">
      <g>
       <use style="fill:#262626;stroke:#262626;" x="295.100111607" xlink:href="#m219da94a98" y="248.0"/>
      </g>
     </g>
     <g id="line2d_21">
      <g>
       <use style="fill:#262626;stroke:#262626;" x="295.100111607" xlink:href="#m219da94a98" y="28.5"/>
      </g>
     </g>
     <g id="text_7">
      <!-- 120 -->
      <g style="fill:#262626;" transform="translate(287.542299107 262.1578125)scale(0.1 -0.1)">
       <use xlink:href="#ArialMT-31"/>
       <use x="55.615234375" xlink:href="#ArialMT-32"/>
       <use x="111.23046875" xlink:href="#ArialMT-30"/>
      </g>
     </g>
    </g>
    <g id="xtick_8">
     <g id="line2d_22">
      <path clip-path="url(#p7c714b6e5e)" d="
M336.942 248
L336.942 28.5" style="fill:none;stroke:#ffffff;stroke-linecap:round;"/>
     </g>
     <g id="line2d_23">
      <g>
       <use style="fill:#262626;stroke:#262626;" x="336.941796875" xlink:href="#m219da94a98" y="248.0"/>
      </g>
     </g>
     <g id="line2d_24">
      <g>
       <use style="fill:#262626;stroke:#262626;" x="336.941796875" xlink:href="#m219da94a98" y="28.5"/>
      </g>
     </g>
     <g id="text_8">
      <!-- 140 -->
      <g style="fill:#262626;" transform="translate(329.383984375 262.1578125)scale(0.1 -0.1)">
       <use xlink:href="#ArialMT-31"/>
       <use x="55.615234375" xlink:href="#ArialMT-34"/>
       <use x="111.23046875" xlink:href="#ArialMT-30"/>
      </g>
     </g>
    </g>
    <g id="text_9">
     <!-- Number of hidden units -->
     <defs>
      <path d="
M14.7031 0
L6.54688 0
L6.54688 71.5781
L15.3281 71.5781
L15.3281 46.0469
Q20.9062 53.0312 29.5469 53.0312
Q34.3281 53.0312 38.5938 51.0938
Q42.875 49.1719 45.625 45.6719
Q48.3906 42.1875 49.9531 37.25
Q51.5156 32.3281 51.5156 26.7031
Q51.5156 13.375 44.9219 6.09375
Q38.3281 -1.17188 29.1094 -1.17188
Q19.9219 -1.17188 14.7031 6.5
z

M14.5938 26.3125
Q14.5938 17 17.1406 12.8438
Q21.2969 6.0625 28.375 6.0625
Q34.125 6.0625 38.3281 11.0625
Q42.5312 16.0625 42.5312 25.9844
Q42.5312 36.1406 38.5 40.9688
Q34.4688 45.7969 28.7656 45.7969
Q23 45.7969 18.7969 40.7969
Q14.5938 35.7969 14.5938 26.3125" id="ArialMT-62"/>
      <path d="
M8.6875 0
L8.6875 45.0156
L0.921875 45.0156
L0.921875 51.8594
L8.6875 51.8594
L8.6875 57.375
Q8.6875 62.5938 9.625 65.1406
Q10.8906 68.5625 14.0781 70.6719
Q17.2812 72.7969 23.0469 72.7969
Q26.7656 72.7969 31.25 71.9219
L29.9375 64.2656
Q27.2031 64.75 24.75 64.75
Q20.75 64.75 19.0938 63.0312
Q17.4375 61.3281 17.4375 56.6406
L17.4375 51.8594
L27.5469 51.8594
L27.5469 45.0156
L17.4375 45.0156
L17.4375 0
z
" id="ArialMT-66"/>
      <path d="
M42.0938 16.7031
L51.1719 15.5781
Q49.0312 7.625 43.2188 3.21875
Q37.4062 -1.17188 28.375 -1.17188
Q17 -1.17188 10.3281 5.82812
Q3.65625 12.8438 3.65625 25.4844
Q3.65625 38.5781 10.3906 45.7969
Q17.1406 53.0312 27.875 53.0312
Q38.2812 53.0312 44.875 45.9531
Q51.4688 38.875 51.4688 26.0312
Q51.4688 25.25 51.4219 23.6875
L12.75 23.6875
Q13.2344 15.1406 17.5781 10.5938
Q21.9219 6.0625 28.4219 6.0625
Q33.25 6.0625 36.6719 8.59375
Q40.0938 11.1406 42.0938 16.7031
M13.2344 30.9062
L42.1875 30.9062
Q41.6094 37.4531 38.875 40.7188
Q34.6719 45.7969 27.9844 45.7969
Q21.9219 45.7969 17.7969 41.75
Q13.6719 37.7031 13.2344 30.9062" id="ArialMT-65"/>
      <path d="
M40.2344 0
L40.2344 6.54688
Q35.2969 -1.17188 25.7344 -1.17188
Q19.5312 -1.17188 14.3281 2.25
Q9.125 5.67188 6.26562 11.7969
Q3.42188 17.9219 3.42188 25.875
Q3.42188 33.6406 6 39.9688
Q8.59375 46.2969 13.7656 49.6562
Q18.9531 53.0312 25.3438 53.0312
Q30.0312 53.0312 33.6875 51.0469
Q37.3594 49.0781 39.6562 45.9062
L39.6562 71.5781
L48.3906 71.5781
L48.3906 0
z

M12.4531 25.875
Q12.4531 15.9219 16.6406 10.9844
Q20.8438 6.0625 26.5625 6.0625
Q32.3281 6.0625 36.3438 10.7656
Q40.375 15.4844 40.375 25.1406
Q40.375 35.7969 36.2656 40.7656
Q32.1719 45.75 26.1719 45.75
Q20.3125 45.75 16.375 40.9688
Q12.4531 36.1875 12.4531 25.875" id="ArialMT-64"/>
      <path d="
M25.7812 7.85938
L27.0469 0.09375
Q23.3438 -0.6875 20.4062 -0.6875
Q15.625 -0.6875 12.9844 0.828125
Q10.3594 2.34375 9.28125 4.8125
Q8.20312 7.28125 8.20312 15.1875
L8.20312 45.0156
L1.76562 45.0156
L1.76562 51.8594
L8.20312 51.8594
L8.20312 64.7031
L16.9375 69.9688
L16.9375 51.8594
L25.7812 51.8594
L25.7812 45.0156
L16.9375 45.0156
L16.9375 14.7031
Q16.9375 10.9375 17.4062 9.85938
Q17.875 8.79688 18.9219 8.15625
Q19.9688 7.51562 21.9219 7.51562
Q23.3906 7.51562 25.7812 7.85938" id="ArialMT-74"/>
      <path d="
M40.5781 0
L40.5781 7.625
Q34.5156 -1.17188 24.125 -1.17188
Q19.5312 -1.17188 15.5469 0.578125
Q11.5781 2.34375 9.64062 5
Q7.71875 7.67188 6.9375 11.5312
Q6.39062 14.1094 6.39062 19.7344
L6.39062 51.8594
L15.1875 51.8594
L15.1875 23.0938
Q15.1875 16.2188 15.7188 13.8125
Q16.5469 10.3594 19.2344 8.375
Q21.9219 6.39062 25.875 6.39062
Q29.8281 6.39062 33.2969 8.42188
Q36.7656 10.4531 38.2031 13.9375
Q39.6562 17.4375 39.6562 24.0781
L39.6562 51.8594
L48.4375 51.8594
L48.4375 0
z
" id="ArialMT-75"/>
      <path d="
M6.64062 61.4688
L6.64062 71.5781
L15.4375 71.5781
L15.4375 61.4688
z

M6.64062 0
L6.64062 51.8594
L15.4375 51.8594
L15.4375 0
z
" id="ArialMT-69"/>
      <path d="
M6.59375 0
L6.59375 71.5781
L15.375 71.5781
L15.375 45.9062
Q21.5312 53.0312 30.9062 53.0312
Q36.6719 53.0312 40.9219 50.75
Q45.1719 48.4844 47 44.4844
Q48.8281 40.4844 48.8281 32.8594
L48.8281 0
L40.0469 0
L40.0469 32.8594
Q40.0469 39.4531 37.1875 42.4531
Q34.3281 45.4531 29.1094 45.4531
Q25.2031 45.4531 21.75 43.4219
Q18.3125 41.4062 16.8438 37.9375
Q15.375 34.4688 15.375 28.375
L15.375 0
z
" id="ArialMT-68"/>
      <path d="
M6.5 0
L6.5 51.8594
L14.4062 51.8594
L14.4062 44
Q17.4375 49.5156 20 51.2656
Q22.5625 53.0312 25.6406 53.0312
Q30.0781 53.0312 34.6719 50.2031
L31.6406 42.0469
Q28.4219 43.9531 25.2031 43.9531
Q22.3125 43.9531 20.0156 42.2188
Q17.7188 40.4844 16.75 37.4062
Q15.2812 32.7188 15.2812 27.1562
L15.2812 0
z
" id="ArialMT-72"/>
      <path d="
M3.07812 15.4844
L11.7656 16.8438
Q12.5 11.625 15.8438 8.84375
Q19.1875 6.0625 25.2031 6.0625
Q31.25 6.0625 34.1719 8.51562
Q37.1094 10.9844 37.1094 14.3125
Q37.1094 17.2812 34.5156 19
Q32.7188 20.1719 25.5312 21.9688
Q15.875 24.4219 12.1406 26.2031
Q8.40625 27.9844 6.46875 31.125
Q4.54688 34.2812 4.54688 38.0938
Q4.54688 41.5469 6.125 44.5
Q7.71875 47.4688 10.4531 49.4219
Q12.5 50.9219 16.0312 51.9688
Q19.5781 53.0312 23.6406 53.0312
Q29.7344 53.0312 34.3438 51.2656
Q38.9688 49.5156 41.1562 46.5
Q43.3594 43.5 44.1875 38.4844
L35.5938 37.3125
Q35.0156 41.3125 32.2031 43.5469
Q29.3906 45.7969 24.2656 45.7969
Q18.2188 45.7969 15.625 43.7969
Q13.0312 41.7969 13.0312 39.1094
Q13.0312 37.4062 14.1094 36.0312
Q15.1875 34.625 17.4844 33.6875
Q18.7969 33.2031 25.25 31.4531
Q34.5781 28.9531 38.25 27.3594
Q41.9375 25.7812 44.0312 22.75
Q46.1406 19.7344 46.1406 15.2344
Q46.1406 10.8438 43.5781 6.95312
Q41.0156 3.07812 36.1719 0.953125
Q31.3438 -1.17188 25.25 -1.17188
Q15.1406 -1.17188 9.84375 3.03125
Q4.54688 7.23438 3.07812 15.4844" id="ArialMT-73"/>
      <path d="
M3.32812 25.9219
Q3.32812 40.3281 11.3281 47.2656
Q18.0156 53.0312 27.6406 53.0312
Q38.3281 53.0312 45.1094 46.0156
Q51.9062 39.0156 51.9062 26.6562
Q51.9062 16.6562 48.9062 10.9062
Q45.9062 5.17188 40.1562 2
Q34.4219 -1.17188 27.6406 -1.17188
Q16.75 -1.17188 10.0312 5.8125
Q3.32812 12.7969 3.32812 25.9219
M12.3594 25.9219
Q12.3594 15.9688 16.7031 11.0156
Q21.0469 6.0625 27.6406 6.0625
Q34.1875 6.0625 38.5312 11.0312
Q42.875 16.0156 42.875 26.2188
Q42.875 35.8438 38.5 40.7969
Q34.125 45.75 27.6406 45.75
Q21.0469 45.75 16.7031 40.8125
Q12.3594 35.8906 12.3594 25.9219" id="ArialMT-6f"/>
      <path d="
M6.59375 0
L6.59375 51.8594
L14.5 51.8594
L14.5 44.4844
Q20.2188 53.0312 31 53.0312
Q35.6875 53.0312 39.625 51.3438
Q43.5625 49.6562 45.5156 46.9219
Q47.4688 44.1875 48.25 40.4375
Q48.7344 37.9844 48.7344 31.8906
L48.7344 0
L39.9375 0
L39.9375 31.5469
Q39.9375 36.9219 38.9062 39.5781
Q37.8906 42.2344 35.2812 43.8125
Q32.6719 45.4062 29.1562 45.4062
Q23.5312 45.4062 19.4531 41.8438
Q15.375 38.2812 15.375 28.3281
L15.375 0
z
" id="ArialMT-6e"/>
      <path d="
M6.59375 0
L6.59375 51.8594
L14.4531 51.8594
L14.4531 44.5781
Q16.8906 48.3906 20.9375 50.7031
Q25 53.0312 30.1719 53.0312
Q35.9375 53.0312 39.625 50.6406
Q43.3125 48.25 44.8281 43.9531
Q50.9844 53.0312 60.8438 53.0312
Q68.5625 53.0312 72.7031 48.75
Q76.8594 44.4844 76.8594 35.5938
L76.8594 0
L68.1094 0
L68.1094 32.6719
Q68.1094 37.9375 67.25 40.25
Q66.4062 42.5781 64.1562 43.9844
Q61.9219 45.4062 58.8906 45.4062
Q53.4219 45.4062 49.7969 41.7656
Q46.1875 38.1406 46.1875 30.125
L46.1875 0
L37.4062 0
L37.4062 33.6875
Q37.4062 39.5469 35.25 42.4688
Q33.1094 45.4062 28.2188 45.4062
Q24.5156 45.4062 21.3594 43.4531
Q18.2188 41.5 16.7969 37.7344
Q15.375 33.9844 15.375 26.9062
L15.375 0
z
" id="ArialMT-6d"/>
      <path d="
M7.625 0
L7.625 71.5781
L17.3281 71.5781
L54.9375 15.375
L54.9375 71.5781
L64.0156 71.5781
L64.0156 0
L54.2969 0
L16.7031 56.25
L16.7031 0
z
" id="ArialMT-4e"/>
      <path id="ArialMT-20"/>
     </defs>
     <g style="fill:#262626;" transform="translate(108.095898437 280.5978125)scale(0.16 -0.16)">
      <use xlink:href="#ArialMT-4e"/>
      <use x="72.216796875" xlink:href="#ArialMT-75"/>
      <use x="127.83203125" xlink:href="#ArialMT-6d"/>
      <use x="211.1328125" xlink:href="#ArialMT-62"/>
      <use x="266.748046875" xlink:href="#ArialMT-65"/>
      <use x="322.36328125" xlink:href="#ArialMT-72"/>
      <use x="355.6640625" xlink:href="#ArialMT-20"/>
      <use x="383.447265625" xlink:href="#ArialMT-6f"/>
      <use x="439.0625" xlink:href="#ArialMT-66"/>
      <use x="466.845703125" xlink:href="#ArialMT-20"/>
      <use x="494.62890625" xlink:href="#ArialMT-68"/>
      <use x="550.244140625" xlink:href="#ArialMT-69"/>
      <use x="572.4609375" xlink:href="#ArialMT-64"/>
      <use x="628.076171875" xlink:href="#ArialMT-64"/>
      <use x="683.69140625" xlink:href="#ArialMT-65"/>
      <use x="739.306640625" xlink:href="#ArialMT-6e"/>
      <use x="794.921875" xlink:href="#ArialMT-20"/>
      <use x="822.705078125" xlink:href="#ArialMT-75"/>
      <use x="878.3203125" xlink:href="#ArialMT-6e"/>
      <use x="933.935546875" xlink:href="#ArialMT-69"/>
      <use x="956.15234375" xlink:href="#ArialMT-74"/>
      <use x="983.935546875" xlink:href="#ArialMT-73"/>
     </g>
    </g>
   </g>
   <g id="matplotlib.axis_2">
    <g id="ytick_1">
     <g id="line2d_25">
      <path clip-path="url(#p7c714b6e5e)" d="
M44.05 248
L336.942 248" style="fill:none;stroke:#ffffff;stroke-linecap:round;"/>
     </g>
     <g id="line2d_26">
      <g>
       <use style="fill:#262626;stroke:#262626;" x="44.05" xlink:href="#m219da94a98" y="248.0"/>
      </g>
     </g>
     <g id="line2d_27">
      <g>
       <use style="fill:#262626;stroke:#262626;" x="336.941796875" xlink:href="#m219da94a98" y="248.0"/>
      </g>
     </g>
     <g id="text_10">
      <!-- 60 -->
      <g style="fill:#262626;" transform="translate(26.7828125 250.58515625)scale(0.1 -0.1)">
       <use xlink:href="#ArialMT-36"/>
       <use x="55.615234375" xlink:href="#ArialMT-30"/>
      </g>
     </g>
    </g>
    <g id="ytick_2">
     <g id="line2d_28">
      <path clip-path="url(#p7c714b6e5e)" d="
M44.05 211.417
L336.942 211.417" style="fill:none;stroke:#ffffff;stroke-linecap:round;"/>
     </g>
     <g id="line2d_29">
      <g>
       <use style="fill:#262626;stroke:#262626;" x="44.05" xlink:href="#m219da94a98" y="211.416666667"/>
      </g>
     </g>
     <g id="line2d_30">
      <g>
       <use style="fill:#262626;stroke:#262626;" x="336.941796875" xlink:href="#m219da94a98" y="211.416666667"/>
      </g>
     </g>
     <g id="text_11">
      <!-- 62 -->
      <g style="fill:#262626;" transform="translate(26.83125 214.001822917)scale(0.1 -0.1)">
       <use xlink:href="#ArialMT-36"/>
       <use x="55.615234375" xlink:href="#ArialMT-32"/>
      </g>
     </g>
    </g>
    <g id="ytick_3">
     <g id="line2d_31">
      <path clip-path="url(#p7c714b6e5e)" d="
M44.05 174.833
L336.942 174.833" style="fill:none;stroke:#ffffff;stroke-linecap:round;"/>
     </g>
     <g id="line2d_32">
      <g>
       <use style="fill:#262626;stroke:#262626;" x="44.05" xlink:href="#m219da94a98" y="174.833333333"/>
      </g>
     </g>
     <g id="line2d_33">
      <g>
       <use style="fill:#262626;stroke:#262626;" x="336.941796875" xlink:href="#m219da94a98" y="174.833333333"/>
      </g>
     </g>
     <g id="text_12">
      <!-- 64 -->
      <g style="fill:#262626;" transform="translate(26.7875 177.418489583)scale(0.1 -0.1)">
       <use xlink:href="#ArialMT-36"/>
       <use x="55.615234375" xlink:href="#ArialMT-34"/>
      </g>
     </g>
    </g>
    <g id="ytick_4">
     <g id="line2d_34">
      <path clip-path="url(#p7c714b6e5e)" d="
M44.05 138.25
L336.942 138.25" style="fill:none;stroke:#ffffff;stroke-linecap:round;"/>
     </g>
     <g id="line2d_35">
      <g>
       <use style="fill:#262626;stroke:#262626;" x="44.05" xlink:href="#m219da94a98" y="138.25"/>
      </g>
     </g>
     <g id="line2d_36">
      <g>
       <use style="fill:#262626;stroke:#262626;" x="336.941796875" xlink:href="#m219da94a98" y="138.25"/>
      </g>
     </g>
     <g id="text_13">
      <!-- 66 -->
      <g style="fill:#262626;" transform="translate(26.7625 140.83515625)scale(0.1 -0.1)">
       <use xlink:href="#ArialMT-36"/>
       <use x="55.615234375" xlink:href="#ArialMT-36"/>
      </g>
     </g>
    </g>
    <g id="ytick_5">
     <g id="line2d_37">
      <path clip-path="url(#p7c714b6e5e)" d="
M44.05 101.667
L336.942 101.667" style="fill:none;stroke:#ffffff;stroke-linecap:round;"/>
     </g>
     <g id="line2d_38">
      <g>
       <use style="fill:#262626;stroke:#262626;" x="44.05" xlink:href="#m219da94a98" y="101.666666667"/>
      </g>
     </g>
     <g id="line2d_39">
      <g>
       <use style="fill:#262626;stroke:#262626;" x="336.941796875" xlink:href="#m219da94a98" y="101.666666667"/>
      </g>
     </g>
     <g id="text_14">
      <!-- 68 -->
      <g style="fill:#262626;" transform="translate(26.74375 104.251822917)scale(0.1 -0.1)">
       <use xlink:href="#ArialMT-36"/>
       <use x="55.615234375" xlink:href="#ArialMT-38"/>
      </g>
     </g>
    </g>
    <g id="ytick_6">
     <g id="line2d_40">
      <path clip-path="url(#p7c714b6e5e)" d="
M44.05 65.0833
L336.942 65.0833" style="fill:none;stroke:#ffffff;stroke-linecap:round;"/>
     </g>
     <g id="line2d_41">
      <g>
       <use style="fill:#262626;stroke:#262626;" x="44.05" xlink:href="#m219da94a98" y="65.0833333333"/>
      </g>
     </g>
     <g id="line2d_42">
      <g>
       <use style="fill:#262626;stroke:#262626;" x="336.941796875" xlink:href="#m219da94a98" y="65.0833333333"/>
      </g>
     </g>
     <g id="text_15">
      <!-- 70 -->
      <defs>
       <path d="
M4.73438 62.2031
L4.73438 70.6562
L51.0781 70.6562
L51.0781 63.8125
Q44.2344 56.5469 37.5156 44.4844
Q30.8125 32.4219 27.1562 19.6719
Q24.5156 10.6875 23.7812 0
L14.75 0
Q14.8906 8.45312 18.0625 20.4062
Q21.2344 32.375 27.1719 43.4844
Q33.1094 54.5938 39.7969 62.2031
z
" id="ArialMT-37"/>
      </defs>
      <g style="fill:#262626;" transform="translate(26.8796875 67.6684895833)scale(0.1 -0.1)">
       <use xlink:href="#ArialMT-37"/>
       <use x="55.615234375" xlink:href="#ArialMT-30"/>
      </g>
     </g>
    </g>
    <g id="ytick_7">
     <g id="line2d_43">
      <path clip-path="url(#p7c714b6e5e)" d="
M44.05 28.5
L336.942 28.5" style="fill:none;stroke:#ffffff;stroke-linecap:round;"/>
     </g>
     <g id="line2d_44">
      <g>
       <use style="fill:#262626;stroke:#262626;" x="44.05" xlink:href="#m219da94a98" y="28.5"/>
      </g>
     </g>
     <g id="line2d_45">
      <g>
       <use style="fill:#262626;stroke:#262626;" x="336.941796875" xlink:href="#m219da94a98" y="28.5"/>
      </g>
     </g>
     <g id="text_16">
      <!-- 72 -->
      <g style="fill:#262626;" transform="translate(26.928125 31.08515625)scale(0.1 -0.1)">
       <use xlink:href="#ArialMT-37"/>
       <use x="55.615234375" xlink:href="#ArialMT-32"/>
      </g>
     </g>
    </g>
    <g id="text_17">
     <!-- Correct predictions (%) -->
     <defs>
      <path d="
M40.4375 19
L49.0781 17.875
Q47.6562 8.9375 41.8125 3.875
Q35.9844 -1.17188 27.4844 -1.17188
Q16.8438 -1.17188 10.375 5.78125
Q3.90625 12.75 3.90625 25.7344
Q3.90625 34.125 6.6875 40.4219
Q9.46875 46.7344 15.1562 49.875
Q20.8438 53.0312 27.5469 53.0312
Q35.9844 53.0312 41.3594 48.75
Q46.7344 44.4844 48.25 36.625
L39.7031 35.2969
Q38.4844 40.5312 35.375 43.1562
Q32.2812 45.7969 27.875 45.7969
Q21.2344 45.7969 17.0781 41.0312
Q12.9375 36.2812 12.9375 25.9844
Q12.9375 15.5312 16.9375 10.7969
Q20.9531 6.0625 27.3906 6.0625
Q32.5625 6.0625 36.0312 9.23438
Q39.5 12.4062 40.4375 19" id="ArialMT-63"/>
      <path d="
M58.7969 25.0938
L68.2656 22.7031
Q65.2812 11.0312 57.5469 4.90625
Q49.8125 -1.21875 38.625 -1.21875
Q27.0469 -1.21875 19.7969 3.48438
Q12.5469 8.20312 8.76562 17.1406
Q4.98438 26.0781 4.98438 36.3281
Q4.98438 47.5156 9.25 55.8281
Q13.5312 64.1562 21.4062 68.4688
Q29.2969 72.7969 38.7656 72.7969
Q49.5156 72.7969 56.8281 67.3281
Q64.1562 61.8594 67.0469 51.9531
L57.7188 49.75
Q55.2188 57.5625 50.4844 61.125
Q45.75 64.7031 38.5781 64.7031
Q30.3281 64.7031 24.7812 60.7344
Q19.2344 56.7812 16.9844 50.1094
Q14.75 43.4531 14.75 36.375
Q14.75 27.25 17.4062 20.4375
Q20.0625 13.625 25.6719 10.25
Q31.2969 6.89062 37.8438 6.89062
Q45.7969 6.89062 51.3125 11.4688
Q56.8438 16.0625 58.7969 25.0938" id="ArialMT-43"/>
      <path d="
M6.59375 -19.875
L6.59375 51.8594
L14.5938 51.8594
L14.5938 45.125
Q17.4375 49.0781 21 51.0469
Q24.5625 53.0312 29.6406 53.0312
Q36.2812 53.0312 41.3594 49.6094
Q46.4375 46.1875 49.0156 39.9531
Q51.6094 33.7344 51.6094 26.3125
Q51.6094 18.3594 48.75 11.9844
Q45.9062 5.60938 40.4531 2.21875
Q35.0156 -1.17188 29 -1.17188
Q24.6094 -1.17188 21.1094 0.6875
Q17.625 2.54688 15.375 5.375
L15.375 -19.875
z

M14.5469 25.6406
Q14.5469 15.625 18.5938 10.8438
Q22.6562 6.0625 28.4219 6.0625
Q34.2812 6.0625 38.4531 11.0156
Q42.625 15.9688 42.625 26.375
Q42.625 36.2812 38.5469 41.2031
Q34.4688 46.1406 28.8125 46.1406
Q23.1875 46.1406 18.8594 40.8906
Q14.5469 35.6406 14.5469 25.6406" id="ArialMT-70"/>
      <path d="
M12.3594 -21.0469
L6.0625 -21.0469
Q20.6562 2.39062 20.6562 25.875
Q20.6562 35.0625 18.5625 44.0938
Q16.8906 51.4219 13.9219 58.1562
Q12.0156 62.5469 6.0625 72.7969
L12.3594 72.7969
Q21.5312 60.5469 25.9219 48.1875
Q29.6875 37.5469 29.6875 25.9219
Q29.6875 12.75 24.625 0.4375
Q19.5781 -11.8594 12.3594 -21.0469" id="ArialMT-29"/>
      <path d="
M23.3906 -21.0469
Q16.1094 -11.8594 11.0781 0.4375
Q6.0625 12.75 6.0625 25.9219
Q6.0625 37.5469 9.8125 48.1875
Q14.2031 60.5469 23.3906 72.7969
L29.6875 72.7969
Q23.7812 62.6406 21.875 58.2969
Q18.8906 51.5625 17.1875 44.2344
Q15.0938 35.1094 15.0938 25.875
Q15.0938 2.39062 29.6875 -21.0469
z
" id="ArialMT-28"/>
      <path d="
M5.8125 54.3906
Q5.8125 62.0625 9.67188 67.4219
Q13.5312 72.7969 20.8438 72.7969
Q27.5938 72.7969 32 67.9844
Q36.4219 63.1875 36.4219 53.8594
Q36.4219 44.7812 31.9531 39.875
Q27.4844 34.9688 20.9531 34.9688
Q14.4531 34.9688 10.125 39.7969
Q5.8125 44.625 5.8125 54.3906
M21.0938 66.75
Q17.8281 66.75 15.6562 63.9062
Q13.4844 61.0781 13.4844 53.5156
Q13.4844 46.625 15.6719 43.8125
Q17.875 41.0156 21.0938 41.0156
Q24.4219 41.0156 26.5938 43.8438
Q28.7656 46.6875 28.7656 54.2031
Q28.7656 61.1406 26.5625 63.9375
Q24.3594 66.75 21.0938 66.75
M21.1406 -2.64062
L60.2969 72.7969
L67.4375 72.7969
L28.4219 -2.64062
z

M52.0938 16.7969
Q52.0938 24.5156 55.9531 29.8594
Q59.8125 35.2031 67.1875 35.2031
Q73.9219 35.2031 78.3438 30.3906
Q82.7656 25.5938 82.7656 16.2656
Q82.7656 7.17188 78.2969 2.26562
Q73.8281 -2.64062 67.2344 -2.64062
Q60.75 -2.64062 56.4219 2.21875
Q52.0938 7.07812 52.0938 16.7969
M67.4375 29.1562
Q64.1094 29.1562 61.9375 26.3125
Q59.7656 23.4844 59.7656 15.9219
Q59.7656 9.07812 61.9531 6.25
Q64.1562 3.42188 67.3906 3.42188
Q70.75 3.42188 72.9219 6.25
Q75.0938 9.07812 75.0938 16.6094
Q75.0938 23.5312 72.8906 26.3438
Q70.7031 29.1562 67.4375 29.1562" id="ArialMT-25"/>
     </defs>
     <g style="fill:#262626;" transform="translate(18.37625 219.7575)rotate(-90.0)scale(0.16 -0.16)">
      <use xlink:href="#ArialMT-43"/>
      <use x="72.216796875" xlink:href="#ArialMT-6f"/>
      <use x="127.83203125" xlink:href="#ArialMT-72"/>
      <use x="161.1328125" xlink:href="#ArialMT-72"/>
      <use x="194.43359375" xlink:href="#ArialMT-65"/>
      <use x="250.048828125" xlink:href="#ArialMT-63"/>
      <use x="300.048828125" xlink:href="#ArialMT-74"/>
      <use x="327.83203125" xlink:href="#ArialMT-20"/>
      <use x="355.615234375" xlink:href="#ArialMT-70"/>
      <use x="411.23046875" xlink:href="#ArialMT-72"/>
      <use x="444.53125" xlink:href="#ArialMT-65"/>
      <use x="500.146484375" xlink:href="#ArialMT-64"/>
      <use x="555.76171875" xlink:href="#ArialMT-69"/>
      <use x="577.978515625" xlink:href="#ArialMT-63"/>
      <use x="627.978515625" xlink:href="#ArialMT-74"/>
      <use x="655.76171875" xlink:href="#ArialMT-69"/>
      <use x="677.978515625" xlink:href="#ArialMT-6f"/>
      <use x="733.59375" xlink:href="#ArialMT-6e"/>
      <use x="789.208984375" xlink:href="#ArialMT-73"/>
      <use x="839.208984375" xlink:href="#ArialMT-20"/>
      <use x="866.9921875" xlink:href="#ArialMT-28"/>
      <use x="900.29296875" xlink:href="#ArialMT-25"/>
      <use x="989.208984375" xlink:href="#ArialMT-29"/>
     </g>
    </g>
   </g>
   <g id="line2d_46">
    <path clip-path="url(#p7c714b6e5e)" d="
M47.3139 289
L48.2342 175.541
L50.3263 153.8
L52.4183 149.656
L54.5104 144.182
L56.6025 141.931
L58.6946 140.448
L60.7867 140.09
L62.8788 137.174
L64.9708 137.788
L67.0629 136.816
L69.155 134.053
L71.2471 132.058
L73.3392 127.3
L75.4313 127.71
L77.5233 128.682
L79.6154 125.919
L81.7075 130.063
L83.7996 129.807
L85.8917 126.482
L87.9838 125.101
L90.0759 125.919
L92.1679 126.942
L94.26 127.198
L96.3521 125.663
L98.4442 127.403
L100.536 126.482
L102.628 123.515
L104.72 123.361
L108.905 126.533
L110.997 127.658
L113.089 128.272
L115.181 127.403
L117.273 126.38
L119.365 125.663
L121.457 127.658
L123.549 125.51
L125.641 127.403
L129.825 127.352
L131.918 124.947
L134.01 125.663
L136.102 124.794
L138.194 125.408
L140.286 127.454
L142.378 125.612
L144.47 125.97
L146.562 127.096
L148.654 128.068
L150.746 125.612
L152.838 126.431
L154.93 126.021
L157.023 125.766
L159.115 123.259
L161.207 125.254
L165.391 124.845
L167.483 123.515
L169.575 124.077
L171.667 121.929
L173.759 121.724
L177.943 123.464
L180.035 126.124
L182.128 123.873
L184.22 120.548
L186.312 121.059
L188.404 123.31
L190.496 122.85
L192.588 122.082
L194.68 120.701
L196.772 122.389
L198.864 121.929
L200.956 120.292
L203.048 120.803
L205.14 122.44
L207.233 121.315
L209.325 121.059
L211.417 122.236
L213.509 121.059
L215.601 122.492
L217.693 120.701
L219.785 116.711
L221.877 116.455
L223.969 118.092
L226.061 117.325
L228.153 116.199
L230.245 115.585
L232.338 115.79
L234.43 118.501
L236.522 119.78
L238.614 120.036
L240.706 119.115
L242.798 117.836
L244.89 118.041
L246.982 119.985
L249.074 119.269
L253.258 114.102
L255.351 114.409
L257.443 114.409
L259.535 113.488
L261.627 115.125
L263.719 112.976
L265.811 115.125
L267.903 115.637
L269.995 114.767
L272.087 116.762
L274.179 115.944
L276.271 117.12
L278.363 116.353
L280.456 116.711
L282.548 118.962
L284.64 116.813
L286.732 117.939
L288.824 117.632
L290.916 117.99
L293.008 119.371
L295.1 118.553
L297.192 117.478
L299.284 116.967
L301.376 118.655
L303.468 119.269
L305.561 120.087
L307.653 118.297
L311.837 118.143
L313.929 117.529
L316.021 116.404
L318.113 118.041
L320.205 118.757
L322.297 117.427
L324.389 120.036
L326.481 118.143
L328.573 119.627
L330.666 118.808
L332.758 118.962
L334.85 118.604
L336.942 119.269
L339.034 117.581
L339.034 117.581" style="fill:none;stroke:#b24d4e;stroke-linecap:round;stroke-width:2;"/>
   </g>
   <g id="line2d_47">
    <path clip-path="url(#p7c714b6e5e)" d="
M47.143 289
L48.2342 134.279
L50.3263 103.336
L52.4183 96.4856
L54.5104 95.7599
L56.6025 100.699
L58.6946 96.0104
L60.7867 88.7262
L62.8788 86.648
L64.9708 94.6228
L67.0629 90.8908
L69.155 84.8711
L71.2471 83.4674
L73.3392 83.6647
L75.4313 88.6793
L77.5233 85.0593
L79.6154 85.2176
L81.7075 81.9374
L83.7996 77.5654
L85.8917 82.7794
L87.9838 79.6943
L90.0759 85.2913
L92.1679 79.0859
L94.26 84.1372
L96.3521 86.3226
L98.4442 84.8539
L100.536 78.5088
L102.628 83.3719
L104.72 82.1389
L106.813 88.3124
L108.905 86.833
L110.997 88.6389
L113.089 88.3417
L115.181 79.5749
L117.273 86.5649
L119.365 78.8586
L121.457 75.8914
L123.549 79.2261
L125.641 90.3086
L127.733 80.7269
L129.825 76.5558
L131.918 76.5958
L134.01 78.3601
L136.102 74.5992
L138.194 75.2492
L140.286 80.1216
L142.378 72.6083
L144.47 74.0472
L146.562 70.5398
L148.654 82.9427
L150.746 75.9106
L152.838 75.9442
L154.93 71.0405
L157.023 73.2314
L159.115 70.7904
L161.207 85.1084
L163.299 71.2748
L165.391 74.9406
L167.483 70.4086
L169.575 68.6669
L171.667 69.5323
L173.759 70.1663
L175.851 74.1549
L177.943 73.6541
L180.035 74.5687
L182.128 71.0954
L184.22 68.4156
L186.312 71.0618
L188.404 78.2821
L190.496 79.2223
L192.588 73.0574
L194.68 67.4711
L196.772 64.9081
L198.864 69.7586
L200.956 67.3022
L203.048 65.8164
L205.14 65.6697
L207.233 67.155
L209.325 67.3794
L211.417 69.2418
L213.509 68.8578
L215.601 74.9656
L217.693 72.4927
L219.785 68.6547
L221.877 60.5197
L223.969 71.2689
L226.061 59.0073
L228.153 59.6142
L230.245 63.9169
L232.338 66.0004
L234.43 60.2461
L236.522 62.2449
L238.614 55.4812
L240.706 57.0832
L242.798 56.7466
L244.89 58.2601
L246.982 61.2705
L249.074 59.5236
L253.258 56.5281
L255.351 51.1699
L257.443 52.6221
L259.535 51.5662
L261.627 60.6904
L263.719 50.5007
L265.811 57.3707
L267.903 63.0119
L269.995 63.902
L272.087 63.3149
L274.179 67.3957
L276.271 54.0183
L278.363 53.7998
L280.456 53.8435
L282.548 57.88
L284.64 59.3786
L286.732 63.4924
L288.824 65.6426
L290.916 57.0981
L293.008 58.4512
L295.1 64.5078
L297.192 61.9762
L299.284 62.3266
L301.376 68.0169
L303.468 63.1398
L305.561 72.1995
L307.653 64.5292
L309.745 74.1637
L311.837 71.0077
L313.929 74.7525
L316.021 65.8401
L318.113 66.5141
L320.205 61.3481
L322.297 59.9443
L324.389 64.0554
L326.481 61.1101
L328.573 63.8682
L330.666 54.5719
L332.758 58.6351
L334.85 61.3431
L336.942 62.4731
L339.034 60.9026
L339.034 60.9026" style="fill:none;stroke:#577b97;stroke-linecap:round;stroke-width:2;"/>
   </g>
   <g id="line2d_48">
    <path clip-path="url(#p7c714b6e5e)" d="
M46.1421 128.63
L368.323 128.63" style="fill:none;stroke:#b24d4e;stroke-dasharray:6.000000,6.000000;stroke-dashoffset:0.0;stroke-width:2;"/>
   </g>
   <g id="line2d_49">
    <path clip-path="url(#p7c714b6e5e)" d="
M46.1421 56.9327
L368.323 56.9327" style="fill:none;stroke:#577b97;stroke-dasharray:6.000000,6.000000;stroke-dashoffset:0.0;stroke-width:2;"/>
   </g>
   <g id="patch_3">
    <path d="
M44.05 28.5
L336.942 28.5" style="fill:none;"/>
   </g>
   <g id="patch_4">
    <path d="
M336.942 248
L336.942 28.5" style="fill:none;"/>
   </g>
   <g id="patch_5">
    <path d="
M44.05 248
L336.942 248" style="fill:none;"/>
   </g>
   <g id="patch_6">
    <path d="
M44.05 248
L44.05 28.5" style="fill:none;"/>
   </g>
   <g id="text_18">
    <!-- Model accuracy -->
    <defs>
     <path d="
M6.39062 0
L6.39062 71.5781
L15.1875 71.5781
L15.1875 0
z
" id="ArialMT-6c"/>
     <path d="
M40.4375 6.39062
Q35.5469 2.25 31.0312 0.53125
Q26.5156 -1.17188 21.3438 -1.17188
Q12.7969 -1.17188 8.20312 3
Q3.60938 7.17188 3.60938 13.6719
Q3.60938 17.4844 5.34375 20.625
Q7.07812 23.7812 9.89062 25.6875
Q12.7031 27.5938 16.2188 28.5625
Q18.7969 29.25 24.0312 29.8906
Q34.6719 31.1562 39.7031 32.9062
Q39.75 34.7188 39.75 35.2031
Q39.75 40.5781 37.25 42.7812
Q33.8906 45.75 27.25 45.75
Q21.0469 45.75 18.0938 43.5781
Q15.1406 41.4062 13.7188 35.8906
L5.125 37.0625
Q6.29688 42.5781 8.98438 45.9688
Q11.6719 49.3594 16.75 51.1875
Q21.8281 53.0312 28.5156 53.0312
Q35.1562 53.0312 39.2969 51.4688
Q43.4531 49.9062 45.4062 47.5312
Q47.3594 45.1719 48.1406 41.5469
Q48.5781 39.3125 48.5781 33.4531
L48.5781 21.7344
Q48.5781 9.46875 49.1406 6.21875
Q49.7031 2.98438 51.375 0
L42.1875 0
Q40.8281 2.73438 40.4375 6.39062
M39.7031 26.0312
Q34.9062 24.0781 25.3438 22.7031
Q19.9219 21.9219 17.6719 20.9375
Q15.4375 19.9688 14.2031 18.0938
Q12.9844 16.2188 12.9844 13.9219
Q12.9844 10.4062 15.6406 8.0625
Q18.3125 5.71875 23.4375 5.71875
Q28.5156 5.71875 32.4688 7.9375
Q36.4219 10.1562 38.2812 14.0156
Q39.7031 17 39.7031 22.7969
z
" id="ArialMT-61"/>
     <path d="
M7.42188 0
L7.42188 71.5781
L21.6875 71.5781
L38.625 20.9062
Q40.9688 13.8125 42.0469 10.2969
Q43.2656 14.2031 45.8438 21.7812
L62.9844 71.5781
L75.7344 71.5781
L75.7344 0
L66.6094 0
L66.6094 59.9062
L45.7969 0
L37.25 0
L16.5469 60.9375
L16.5469 0
z
" id="ArialMT-4d"/>
     <path d="
M6.20312 -19.9688
L5.21875 -11.7188
Q8.10938 -12.5 10.25 -12.5
Q13.1875 -12.5 14.9375 -11.5156
Q16.7031 -10.5469 17.8281 -8.79688
Q18.6562 -7.46875 20.5156 -2.25
Q20.75 -1.51562 21.2969 -0.09375
L1.60938 51.8594
L11.0781 51.8594
L21.875 21.8281
Q23.9688 16.1094 25.6406 9.8125
Q27.1562 15.875 29.25 21.625
L40.3281 51.8594
L49.125 51.8594
L29.3906 -0.875
Q26.2188 -9.42188 24.4688 -12.6406
Q22.125 -17 19.0938 -19.0156
Q16.0625 -21.0469 11.8594 -21.0469
Q9.32812 -21.0469 6.20312 -19.9688" id="ArialMT-79"/>
    </defs>
    <g style="fill:#262626;" transform="translate(113.564648437 23.5)scale(0.22 -0.22)">
     <use xlink:href="#ArialMT-4d"/>
     <use x="83.30078125" xlink:href="#ArialMT-6f"/>
     <use x="138.916015625" xlink:href="#ArialMT-64"/>
     <use x="194.53125" xlink:href="#ArialMT-65"/>
     <use x="250.146484375" xlink:href="#ArialMT-6c"/>
     <use x="272.36328125" xlink:href="#ArialMT-20"/>
     <use x="300.146484375" xlink:href="#ArialMT-61"/>
     <use x="355.76171875" xlink:href="#ArialMT-63"/>
     <use x="405.76171875" xlink:href="#ArialMT-63"/>
     <use x="455.76171875" xlink:href="#ArialMT-75"/>
     <use x="511.376953125" xlink:href="#ArialMT-72"/>
     <use x="544.677734375" xlink:href="#ArialMT-61"/>
     <use x="600.29296875" xlink:href="#ArialMT-63"/>
     <use x="650.29296875" xlink:href="#ArialMT-79"/>
    </g>
   </g>
   <g id="legend_1">
    <g id="line2d_50">
     <path d="
M89.2532 173.073
L115.253 173.073" style="fill:none;stroke:#b24d4e;stroke-linecap:round;stroke-width:2;"/>
    </g>
    <g id="line2d_51"/>
    <g id="text_19">
     <!-- Agglomerated set -->
     <defs>
      <path d="
M-0.140625 0
L27.3438 71.5781
L37.5469 71.5781
L66.8438 0
L56.0625 0
L47.7031 21.6875
L17.7812 21.6875
L9.90625 0
z

M20.5156 29.3906
L44.7812 29.3906
L37.3125 49.2188
Q33.8906 58.25 32.2344 64.0625
Q30.8594 57.1719 28.375 50.3906
z
" id="ArialMT-41"/>
      <path d="
M4.98438 -4.29688
L13.5312 -5.5625
Q14.0625 -9.51562 16.5 -11.3281
Q19.7812 -13.7656 25.4375 -13.7656
Q31.5469 -13.7656 34.8594 -11.3281
Q38.1875 -8.89062 39.3594 -4.5
Q40.0469 -1.8125 39.9844 6.78125
Q34.2344 0 25.6406 0
Q14.9375 0 9.07812 7.71875
Q3.21875 15.4375 3.21875 26.2188
Q3.21875 33.6406 5.90625 39.9062
Q8.59375 46.1875 13.6875 49.6094
Q18.7969 53.0312 25.6875 53.0312
Q34.8594 53.0312 40.8281 45.6094
L40.8281 51.8594
L48.9219 51.8594
L48.9219 7.03125
Q48.9219 -5.07812 46.4531 -10.125
Q44 -15.1875 38.6406 -18.1094
Q33.2969 -21.0469 25.4844 -21.0469
Q16.2188 -21.0469 10.5 -16.875
Q4.78125 -12.7031 4.98438 -4.29688
M12.25 26.8594
Q12.25 16.6562 16.2969 11.9688
Q20.3594 7.28125 26.4688 7.28125
Q32.5156 7.28125 36.6094 11.9375
Q40.7188 16.6094 40.7188 26.5625
Q40.7188 36.0781 36.5 40.9062
Q32.2812 45.75 26.3125 45.75
Q20.4531 45.75 16.3438 40.9844
Q12.25 36.2344 12.25 26.8594" id="ArialMT-67"/>
     </defs>
     <g style="fill:#262626;" transform="translate(125.653203125 177.62328125)scale(0.13 -0.13)">
      <use xlink:href="#ArialMT-41"/>
      <use x="66.69921875" xlink:href="#ArialMT-67"/>
      <use x="122.314453125" xlink:href="#ArialMT-67"/>
      <use x="177.9296875" xlink:href="#ArialMT-6c"/>
      <use x="200.146484375" xlink:href="#ArialMT-6f"/>
      <use x="255.76171875" xlink:href="#ArialMT-6d"/>
      <use x="339.0625" xlink:href="#ArialMT-65"/>
      <use x="394.677734375" xlink:href="#ArialMT-72"/>
      <use x="427.978515625" xlink:href="#ArialMT-61"/>
      <use x="483.59375" xlink:href="#ArialMT-74"/>
      <use x="511.376953125" xlink:href="#ArialMT-65"/>
      <use x="566.9921875" xlink:href="#ArialMT-64"/>
      <use x="622.607421875" xlink:href="#ArialMT-20"/>
      <use x="650.390625" xlink:href="#ArialMT-73"/>
      <use x="700.390625" xlink:href="#ArialMT-65"/>
      <use x="756.005859375" xlink:href="#ArialMT-74"/>
     </g>
    </g>
    <g id="line2d_52">
     <path d="
M89.2532 191.773
L115.253 191.773" style="fill:none;stroke:#577b97;stroke-linecap:round;stroke-width:2;"/>
    </g>
    <g id="line2d_53"/>
    <g id="text_20">
     <!-- Agglomerated set (≥20 subreddits) -->
     <defs>
      <path d="
M51.1719 37.2031
L3.76562 16.9375
L3.76562 25.6875
L41.3125 41.2656
L3.76562 56.6406
L3.76562 65.4375
L51.1719 45.4062
z

M51.0781 5.17188
L3.8125 5.17188
L3.8125 13.3281
L51.0781 13.3281
z
" id="ArialMT-2265"/>
     </defs>
     <g style="fill:#262626;" transform="translate(125.653203125 196.32296875)scale(0.13 -0.13)">
      <use xlink:href="#ArialMT-41"/>
      <use x="66.69921875" xlink:href="#ArialMT-67"/>
      <use x="122.314453125" xlink:href="#ArialMT-67"/>
      <use x="177.9296875" xlink:href="#ArialMT-6c"/>
      <use x="200.146484375" xlink:href="#ArialMT-6f"/>
      <use x="255.76171875" xlink:href="#ArialMT-6d"/>
      <use x="339.0625" xlink:href="#ArialMT-65"/>
      <use x="394.677734375" xlink:href="#ArialMT-72"/>
      <use x="427.978515625" xlink:href="#ArialMT-61"/>
      <use x="483.59375" xlink:href="#ArialMT-74"/>
      <use x="511.376953125" xlink:href="#ArialMT-65"/>
      <use x="566.9921875" xlink:href="#ArialMT-64"/>
      <use x="622.607421875" xlink:href="#ArialMT-20"/>
      <use x="650.390625" xlink:href="#ArialMT-73"/>
      <use x="700.390625" xlink:href="#ArialMT-65"/>
      <use x="756.005859375" xlink:href="#ArialMT-74"/>
      <use x="783.7890625" xlink:href="#ArialMT-20"/>
      <use x="811.572265625" xlink:href="#ArialMT-28"/>
      <use x="844.873046875" xlink:href="#ArialMT-2265"/>
      <use x="899.755859375" xlink:href="#ArialMT-32"/>
      <use x="955.37109375" xlink:href="#ArialMT-30"/>
      <use x="1010.98632812" xlink:href="#ArialMT-20"/>
      <use x="1038.76953125" xlink:href="#ArialMT-73"/>
      <use x="1088.76953125" xlink:href="#ArialMT-75"/>
      <use x="1144.38476562" xlink:href="#ArialMT-62"/>
      <use x="1200.0" xlink:href="#ArialMT-72"/>
      <use x="1233.30078125" xlink:href="#ArialMT-65"/>
      <use x="1288.91601562" xlink:href="#ArialMT-64"/>
      <use x="1344.53125" xlink:href="#ArialMT-64"/>
      <use x="1400.14648438" xlink:href="#ArialMT-69"/>
      <use x="1422.36328125" xlink:href="#ArialMT-74"/>
      <use x="1450.14648438" xlink:href="#ArialMT-73"/>
      <use x="1500.14648438" xlink:href="#ArialMT-29"/>
     </g>
    </g>
    <g id="line2d_54">
     <path d="
M89.2532 210.314
L115.253 210.314" style="fill:none;stroke:#b24d4e;stroke-dasharray:6.000000,6.000000;stroke-dashoffset:0.0;stroke-width:2;"/>
    </g>
    <g id="line2d_55"/>
    <g id="text_21">
     <!-- No agglomeration -->
     <g style="fill:#262626;" transform="translate(125.653203125 214.86421875)scale(0.13 -0.13)">
      <use xlink:href="#ArialMT-4e"/>
      <use x="72.216796875" xlink:href="#ArialMT-6f"/>
      <use x="127.83203125" xlink:href="#ArialMT-20"/>
      <use x="155.615234375" xlink:href="#ArialMT-61"/>
      <use x="211.23046875" xlink:href="#ArialMT-67"/>
      <use x="266.845703125" xlink:href="#ArialMT-67"/>
      <use x="322.4609375" xlink:href="#ArialMT-6c"/>
      <use x="344.677734375" xlink:href="#ArialMT-6f"/>
      <use x="400.29296875" xlink:href="#ArialMT-6d"/>
      <use x="483.59375" xlink:href="#ArialMT-65"/>
      <use x="539.208984375" xlink:href="#ArialMT-72"/>
      <use x="572.509765625" xlink:href="#ArialMT-61"/>
      <use x="628.125" xlink:href="#ArialMT-74"/>
      <use x="655.908203125" xlink:href="#ArialMT-69"/>
      <use x="678.125" xlink:href="#ArialMT-6f"/>
      <use x="733.740234375" xlink:href="#ArialMT-6e"/>
     </g>
    </g>
    <g id="line2d_56">
     <path d="
M89.2532 229.014
L115.253 229.014" style="fill:none;stroke:#577b97;stroke-dasharray:6.000000,6.000000;stroke-dashoffset:0.0;stroke-width:2;"/>
    </g>
    <g id="line2d_57"/>
    <g id="text_22">
     <!-- No agglomeration (≥20 subreddits) -->
     <g style="fill:#262626;" transform="translate(125.653203125 233.56390625)scale(0.13 -0.13)">
      <use xlink:href="#ArialMT-4e"/>
      <use x="72.216796875" xlink:href="#ArialMT-6f"/>
      <use x="127.83203125" xlink:href="#ArialMT-20"/>
      <use x="155.615234375" xlink:href="#ArialMT-61"/>
      <use x="211.23046875" xlink:href="#ArialMT-67"/>
      <use x="266.845703125" xlink:href="#ArialMT-67"/>
      <use x="322.4609375" xlink:href="#ArialMT-6c"/>
      <use x="344.677734375" xlink:href="#ArialMT-6f"/>
      <use x="400.29296875" xlink:href="#ArialMT-6d"/>
      <use x="483.59375" xlink:href="#ArialMT-65"/>
      <use x="539.208984375" xlink:href="#ArialMT-72"/>
      <use x="572.509765625" xlink:href="#ArialMT-61"/>
      <use x="628.125" xlink:href="#ArialMT-74"/>
      <use x="655.908203125" xlink:href="#ArialMT-69"/>
      <use x="678.125" xlink:href="#ArialMT-6f"/>
      <use x="733.740234375" xlink:href="#ArialMT-6e"/>
      <use x="789.35546875" xlink:href="#ArialMT-20"/>
      <use x="817.138671875" xlink:href="#ArialMT-28"/>
      <use x="850.439453125" xlink:href="#ArialMT-2265"/>
      <use x="905.322265625" xlink:href="#ArialMT-32"/>
      <use x="960.9375" xlink:href="#ArialMT-30"/>
      <use x="1016.55273438" xlink:href="#ArialMT-20"/>
      <use x="1044.3359375" xlink:href="#ArialMT-73"/>
      <use x="1094.3359375" xlink:href="#ArialMT-75"/>
      <use x="1149.95117188" xlink:href="#ArialMT-62"/>
      <use x="1205.56640625" xlink:href="#ArialMT-72"/>
      <use x="1238.8671875" xlink:href="#ArialMT-65"/>
      <use x="1294.48242188" xlink:href="#ArialMT-64"/>
      <use x="1350.09765625" xlink:href="#ArialMT-64"/>
      <use x="1405.71289062" xlink:href="#ArialMT-69"/>
      <use x="1427.9296875" xlink:href="#ArialMT-74"/>
      <use x="1455.71289062" xlink:href="#ArialMT-73"/>
      <use x="1505.71289062" xlink:href="#ArialMT-29"/>
     </g>
    </g>
   </g>
  </g>
  <g id="axes_2">
   <g id="patch_7">
    <path d="
M403.108 248
L696 248
L696 28.5
L403.108 28.5
z
" style="fill:#eaeaf2;"/>
   </g>
   <g id="matplotlib.axis_3">
    <g id="xtick_9">
     <g id="line2d_58">
      <path clip-path="url(#p2d4aba56eb)" d="
M403.108 248
L403.108 28.5" style="fill:none;stroke:#ffffff;stroke-linecap:round;"/>
     </g>
     <g id="line2d_59">
      <g>
       <use style="fill:#262626;stroke:#262626;" x="403.108203125" xlink:href="#m219da94a98" y="248.0"/>
      </g>
     </g>
     <g id="line2d_60">
      <g>
       <use style="fill:#262626;stroke:#262626;" x="403.108203125" xlink:href="#m219da94a98" y="28.5"/>
      </g>
     </g>
     <g id="text_23">
      <!-- 0 -->
      <g style="fill:#262626;" transform="translate(400.774609375 262.1578125)scale(0.1 -0.1)">
       <use xlink:href="#ArialMT-30"/>
      </g>
     </g>
    </g>
    <g id="xtick_10">
     <g id="line2d_61">
      <path clip-path="url(#p2d4aba56eb)" d="
M444.95 248
L444.95 28.5" style="fill:none;stroke:#ffffff;stroke-linecap:round;"/>
     </g>
     <g id="line2d_62">
      <g>
       <use style="fill:#262626;stroke:#262626;" x="444.949888393" xlink:href="#m219da94a98" y="248.0"/>
      </g>
     </g>
     <g id="line2d_63">
      <g>
       <use style="fill:#262626;stroke:#262626;" x="444.949888393" xlink:href="#m219da94a98" y="28.5"/>
      </g>
     </g>
     <g id="text_24">
      <!-- 20 -->
      <g style="fill:#262626;" transform="translate(439.774888393 262.1578125)scale(0.1 -0.1)">
       <use xlink:href="#ArialMT-32"/>
       <use x="55.615234375" xlink:href="#ArialMT-30"/>
      </g>
     </g>
    </g>
    <g id="xtick_11">
     <g id="line2d_64">
      <path clip-path="url(#p2d4aba56eb)" d="
M486.792 248
L486.792 28.5" style="fill:none;stroke:#ffffff;stroke-linecap:round;"/>
     </g>
     <g id="line2d_65">
      <g>
       <use style="fill:#262626;stroke:#262626;" x="486.791573661" xlink:href="#m219da94a98" y="248.0"/>
      </g>
     </g>
     <g id="line2d_66">
      <g>
       <use style="fill:#262626;stroke:#262626;" x="486.791573661" xlink:href="#m219da94a98" y="28.5"/>
      </g>
     </g>
     <g id="text_25">
      <!-- 40 -->
      <g style="fill:#262626;" transform="translate(481.532979911 262.1578125)scale(0.1 -0.1)">
       <use xlink:href="#ArialMT-34"/>
       <use x="55.615234375" xlink:href="#ArialMT-30"/>
      </g>
     </g>
    </g>
    <g id="xtick_12">
     <g id="line2d_67">
      <path clip-path="url(#p2d4aba56eb)" d="
M528.633 248
L528.633 28.5" style="fill:none;stroke:#ffffff;stroke-linecap:round;"/>
     </g>
     <g id="line2d_68">
      <g>
       <use style="fill:#262626;stroke:#262626;" x="528.633258929" xlink:href="#m219da94a98" y="248.0"/>
      </g>
     </g>
     <g id="line2d_69">
      <g>
       <use style="fill:#262626;stroke:#262626;" x="528.633258929" xlink:href="#m219da94a98" y="28.5"/>
      </g>
     </g>
     <g id="text_26">
      <!-- 60 -->
      <g style="fill:#262626;" transform="translate(523.499665179 262.1578125)scale(0.1 -0.1)">
       <use xlink:href="#ArialMT-36"/>
       <use x="55.615234375" xlink:href="#ArialMT-30"/>
      </g>
     </g>
    </g>
    <g id="xtick_13">
     <g id="line2d_70">
      <path clip-path="url(#p2d4aba56eb)" d="
M570.475 248
L570.475 28.5" style="fill:none;stroke:#ffffff;stroke-linecap:round;"/>
     </g>
     <g id="line2d_71">
      <g>
       <use style="fill:#262626;stroke:#262626;" x="570.474944196" xlink:href="#m219da94a98" y="248.0"/>
      </g>
     </g>
     <g id="line2d_72">
      <g>
       <use style="fill:#262626;stroke:#262626;" x="570.474944196" xlink:href="#m219da94a98" y="28.5"/>
      </g>
     </g>
     <g id="text_27">
      <!-- 80 -->
      <g style="fill:#262626;" transform="translate(565.355412946 262.1578125)scale(0.1 -0.1)">
       <use xlink:href="#ArialMT-38"/>
       <use x="55.615234375" xlink:href="#ArialMT-30"/>
      </g>
     </g>
    </g>
    <g id="xtick_14">
     <g id="line2d_73">
      <path clip-path="url(#p2d4aba56eb)" d="
M612.317 248
L612.317 28.5" style="fill:none;stroke:#ffffff;stroke-linecap:round;"/>
     </g>
     <g id="line2d_74">
      <g>
       <use style="fill:#262626;stroke:#262626;" x="612.316629464" xlink:href="#m219da94a98" y="248.0"/>
      </g>
     </g>
     <g id="line2d_75">
      <g>
       <use style="fill:#262626;stroke:#262626;" x="612.316629464" xlink:href="#m219da94a98" y="28.5"/>
      </g>
     </g>
     <g id="text_28">
      <!-- 100 -->
      <g style="fill:#262626;" transform="translate(604.758816964 262.1578125)scale(0.1 -0.1)">
       <use xlink:href="#ArialMT-31"/>
       <use x="55.615234375" xlink:href="#ArialMT-30"/>
       <use x="111.23046875" xlink:href="#ArialMT-30"/>
      </g>
     </g>
    </g>
    <g id="xtick_15">
     <g id="line2d_76">
      <path clip-path="url(#p2d4aba56eb)" d="
M654.158 248
L654.158 28.5" style="fill:none;stroke:#ffffff;stroke-linecap:round;"/>
     </g>
     <g id="line2d_77">
      <g>
       <use style="fill:#262626;stroke:#262626;" x="654.158314732" xlink:href="#m219da94a98" y="248.0"/>
      </g>
     </g>
     <g id="line2d_78">
      <g>
       <use style="fill:#262626;stroke:#262626;" x="654.158314732" xlink:href="#m219da94a98" y="28.5"/>
      </g>
     </g>
     <g id="text_29">
      <!-- 120 -->
      <g style="fill:#262626;" transform="translate(646.600502232 262.1578125)scale(0.1 -0.1)">
       <use xlink:href="#ArialMT-31"/>
       <use x="55.615234375" xlink:href="#ArialMT-32"/>
       <use x="111.23046875" xlink:href="#ArialMT-30"/>
      </g>
     </g>
    </g>
    <g id="xtick_16">
     <g id="line2d_79">
      <path clip-path="url(#p2d4aba56eb)" d="
M696 248
L696 28.5" style="fill:none;stroke:#ffffff;stroke-linecap:round;"/>
     </g>
     <g id="line2d_80">
      <g>
       <use style="fill:#262626;stroke:#262626;" x="696.0" xlink:href="#m219da94a98" y="248.0"/>
      </g>
     </g>
     <g id="line2d_81">
      <g>
       <use style="fill:#262626;stroke:#262626;" x="696.0" xlink:href="#m219da94a98" y="28.5"/>
      </g>
     </g>
     <g id="text_30">
      <!-- 140 -->
      <g style="fill:#262626;" transform="translate(688.4421875 262.1578125)scale(0.1 -0.1)">
       <use xlink:href="#ArialMT-31"/>
       <use x="55.615234375" xlink:href="#ArialMT-34"/>
       <use x="111.23046875" xlink:href="#ArialMT-30"/>
      </g>
     </g>
    </g>
    <g id="text_31">
     <!-- Number of hidden units -->
     <g style="fill:#262626;" transform="translate(467.154101562 280.5978125)scale(0.16 -0.16)">
      <use xlink:href="#ArialMT-4e"/>
      <use x="72.216796875" xlink:href="#ArialMT-75"/>
      <use x="127.83203125" xlink:href="#ArialMT-6d"/>
      <use x="211.1328125" xlink:href="#ArialMT-62"/>
      <use x="266.748046875" xlink:href="#ArialMT-65"/>
      <use x="322.36328125" xlink:href="#ArialMT-72"/>
      <use x="355.6640625" xlink:href="#ArialMT-20"/>
      <use x="383.447265625" xlink:href="#ArialMT-6f"/>
      <use x="439.0625" xlink:href="#ArialMT-66"/>
      <use x="466.845703125" xlink:href="#ArialMT-20"/>
      <use x="494.62890625" xlink:href="#ArialMT-68"/>
      <use x="550.244140625" xlink:href="#ArialMT-69"/>
      <use x="572.4609375" xlink:href="#ArialMT-64"/>
      <use x="628.076171875" xlink:href="#ArialMT-64"/>
      <use x="683.69140625" xlink:href="#ArialMT-65"/>
      <use x="739.306640625" xlink:href="#ArialMT-6e"/>
      <use x="794.921875" xlink:href="#ArialMT-20"/>
      <use x="822.705078125" xlink:href="#ArialMT-75"/>
      <use x="878.3203125" xlink:href="#ArialMT-6e"/>
      <use x="933.935546875" xlink:href="#ArialMT-69"/>
      <use x="956.15234375" xlink:href="#ArialMT-74"/>
      <use x="983.935546875" xlink:href="#ArialMT-73"/>
     </g>
    </g>
   </g>
   <g id="matplotlib.axis_4">
    <g id="ytick_8">
     <g id="line2d_82">
      <path clip-path="url(#p2d4aba56eb)" d="
M403.108 248
L696 248" style="fill:none;stroke:#ffffff;stroke-linecap:round;"/>
     </g>
     <g id="line2d_83">
      <g>
       <use style="fill:#262626;stroke:#262626;" x="403.108203125" xlink:href="#m219da94a98" y="248.0"/>
      </g>
     </g>
     <g id="line2d_84">
      <g>
       <use style="fill:#262626;stroke:#262626;" x="696.0" xlink:href="#m219da94a98" y="248.0"/>
      </g>
     </g>
     <g id="text_32">
      <!-- 0.00 -->
      <defs>
       <path d="
M9.07812 0
L9.07812 10.0156
L19.0938 10.0156
L19.0938 0
z
" id="ArialMT-2e"/>
      </defs>
      <g style="fill:#262626;" transform="translate(377.541015625 250.58515625)scale(0.1 -0.1)">
       <use xlink:href="#ArialMT-30"/>
       <use x="55.615234375" xlink:href="#ArialMT-2e"/>
       <use x="83.3984375" xlink:href="#ArialMT-30"/>
       <use x="139.013671875" xlink:href="#ArialMT-30"/>
      </g>
     </g>
    </g>
    <g id="ytick_9">
     <g id="line2d_85">
      <path clip-path="url(#p2d4aba56eb)" d="
M403.108 223.611
L696 223.611" style="fill:none;stroke:#ffffff;stroke-linecap:round;"/>
     </g>
     <g id="line2d_86">
      <g>
       <use style="fill:#262626;stroke:#262626;" x="403.108203125" xlink:href="#m219da94a98" y="223.611111111"/>
      </g>
     </g>
     <g id="line2d_87">
      <g>
       <use style="fill:#262626;stroke:#262626;" x="696.0" xlink:href="#m219da94a98" y="223.611111111"/>
      </g>
     </g>
     <g id="text_33">
      <!-- 0.05 -->
      <defs>
       <path d="
M4.15625 18.75
L13.375 19.5312
Q14.4062 12.7969 18.1406 9.39062
Q21.875 6 27.1562 6
Q33.5 6 37.8906 10.7812
Q42.2812 15.5781 42.2812 23.4844
Q42.2812 31 38.0625 35.3438
Q33.8438 39.7031 27 39.7031
Q22.75 39.7031 19.3281 37.7656
Q15.9219 35.8438 13.9688 32.7656
L5.71875 33.8438
L12.6406 70.6094
L48.25 70.6094
L48.25 62.2031
L19.6719 62.2031
L15.8281 42.9688
Q22.2656 47.4688 29.3438 47.4688
Q38.7188 47.4688 45.1562 40.9688
Q51.6094 34.4688 51.6094 24.2656
Q51.6094 14.5469 45.9531 7.46875
Q39.0625 -1.21875 27.1562 -1.21875
Q17.3906 -1.21875 11.2031 4.25
Q5.03125 9.71875 4.15625 18.75" id="ArialMT-35"/>
      </defs>
      <g style="fill:#262626;" transform="translate(377.462890625 226.196267361)scale(0.1 -0.1)">
       <use xlink:href="#ArialMT-30"/>
       <use x="55.615234375" xlink:href="#ArialMT-2e"/>
       <use x="83.3984375" xlink:href="#ArialMT-30"/>
       <use x="139.013671875" xlink:href="#ArialMT-35"/>
      </g>
     </g>
    </g>
    <g id="ytick_10">
     <g id="line2d_88">
      <path clip-path="url(#p2d4aba56eb)" d="
M403.108 199.222
L696 199.222" style="fill:none;stroke:#ffffff;stroke-linecap:round;"/>
     </g>
     <g id="line2d_89">
      <g>
       <use style="fill:#262626;stroke:#262626;" x="403.108203125" xlink:href="#m219da94a98" y="199.222222222"/>
      </g>
     </g>
     <g id="line2d_90">
      <g>
       <use style="fill:#262626;stroke:#262626;" x="696.0" xlink:href="#m219da94a98" y="199.222222222"/>
      </g>
     </g>
     <g id="text_34">
      <!-- 0.10 -->
      <g style="fill:#262626;" transform="translate(377.541015625 201.807378472)scale(0.1 -0.1)">
       <use xlink:href="#ArialMT-30"/>
       <use x="55.615234375" xlink:href="#ArialMT-2e"/>
       <use x="83.3984375" xlink:href="#ArialMT-31"/>
       <use x="139.013671875" xlink:href="#ArialMT-30"/>
      </g>
     </g>
    </g>
    <g id="ytick_11">
     <g id="line2d_91">
      <path clip-path="url(#p2d4aba56eb)" d="
M403.108 174.833
L696 174.833" style="fill:none;stroke:#ffffff;stroke-linecap:round;"/>
     </g>
     <g id="line2d_92">
      <g>
       <use style="fill:#262626;stroke:#262626;" x="403.108203125" xlink:href="#m219da94a98" y="174.833333333"/>
      </g>
     </g>
     <g id="line2d_93">
      <g>
       <use style="fill:#262626;stroke:#262626;" x="696.0" xlink:href="#m219da94a98" y="174.833333333"/>
      </g>
     </g>
     <g id="text_35">
      <!-- 0.15 -->
      <g style="fill:#262626;" transform="translate(377.462890625 177.418489583)scale(0.1 -0.1)">
       <use xlink:href="#ArialMT-30"/>
       <use x="55.615234375" xlink:href="#ArialMT-2e"/>
       <use x="83.3984375" xlink:href="#ArialMT-31"/>
       <use x="139.013671875" xlink:href="#ArialMT-35"/>
      </g>
     </g>
    </g>
    <g id="ytick_12">
     <g id="line2d_94">
      <path clip-path="url(#p2d4aba56eb)" d="
M403.108 150.444
L696 150.444" style="fill:none;stroke:#ffffff;stroke-linecap:round;"/>
     </g>
     <g id="line2d_95">
      <g>
       <use style="fill:#262626;stroke:#262626;" x="403.108203125" xlink:href="#m219da94a98" y="150.444444444"/>
      </g>
     </g>
     <g id="line2d_96">
      <g>
       <use style="fill:#262626;stroke:#262626;" x="696.0" xlink:href="#m219da94a98" y="150.444444444"/>
      </g>
     </g>
     <g id="text_36">
      <!-- 0.20 -->
      <g style="fill:#262626;" transform="translate(377.541015625 153.029600694)scale(0.1 -0.1)">
       <use xlink:href="#ArialMT-30"/>
       <use x="55.615234375" xlink:href="#ArialMT-2e"/>
       <use x="83.3984375" xlink:href="#ArialMT-32"/>
       <use x="139.013671875" xlink:href="#ArialMT-30"/>
      </g>
     </g>
    </g>
    <g id="ytick_13">
     <g id="line2d_97">
      <path clip-path="url(#p2d4aba56eb)" d="
M403.108 126.056
L696 126.056" style="fill:none;stroke:#ffffff;stroke-linecap:round;"/>
     </g>
     <g id="line2d_98">
      <g>
       <use style="fill:#262626;stroke:#262626;" x="403.108203125" xlink:href="#m219da94a98" y="126.055555556"/>
      </g>
     </g>
     <g id="line2d_99">
      <g>
       <use style="fill:#262626;stroke:#262626;" x="696.0" xlink:href="#m219da94a98" y="126.055555556"/>
      </g>
     </g>
     <g id="text_37">
      <!-- 0.25 -->
      <g style="fill:#262626;" transform="translate(377.462890625 128.640711806)scale(0.1 -0.1)">
       <use xlink:href="#ArialMT-30"/>
       <use x="55.615234375" xlink:href="#ArialMT-2e"/>
       <use x="83.3984375" xlink:href="#ArialMT-32"/>
       <use x="139.013671875" xlink:href="#ArialMT-35"/>
      </g>
     </g>
    </g>
    <g id="ytick_14">
     <g id="line2d_100">
      <path clip-path="url(#p2d4aba56eb)" d="
M403.108 101.667
L696 101.667" style="fill:none;stroke:#ffffff;stroke-linecap:round;"/>
     </g>
     <g id="line2d_101">
      <g>
       <use style="fill:#262626;stroke:#262626;" x="403.108203125" xlink:href="#m219da94a98" y="101.666666667"/>
      </g>
     </g>
     <g id="line2d_102">
      <g>
       <use style="fill:#262626;stroke:#262626;" x="696.0" xlink:href="#m219da94a98" y="101.666666667"/>
      </g>
     </g>
     <g id="text_38">
      <!-- 0.30 -->
      <defs>
       <path d="
M4.20312 18.8906
L12.9844 20.0625
Q14.5 12.5938 18.1406 9.29688
Q21.7812 6 27 6
Q33.2031 6 37.4688 10.2969
Q41.75 14.5938 41.75 20.9531
Q41.75 27 37.7969 30.9219
Q33.8438 34.8594 27.7344 34.8594
Q25.25 34.8594 21.5312 33.8906
L22.5156 41.6094
Q23.3906 41.5 23.9219 41.5
Q29.5469 41.5 34.0312 44.4219
Q38.5312 47.3594 38.5312 53.4688
Q38.5312 58.2969 35.25 61.4688
Q31.9844 64.6562 26.8125 64.6562
Q21.6875 64.6562 18.2656 61.4219
Q14.8438 58.2031 13.875 51.7656
L5.07812 53.3281
Q6.6875 62.1562 12.3906 67.0156
Q18.1094 71.875 26.6094 71.875
Q32.4688 71.875 37.3906 69.3594
Q42.3281 66.8438 44.9375 62.5
Q47.5625 58.1562 47.5625 53.2656
Q47.5625 48.6406 45.0625 44.8281
Q42.5781 41.0156 37.7031 38.7656
Q44.0469 37.3125 47.5625 32.6875
Q51.0781 28.0781 51.0781 21.1406
Q51.0781 11.7656 44.2344 5.25
Q37.4062 -1.26562 26.9531 -1.26562
Q17.5312 -1.26562 11.2969 4.34375
Q5.07812 9.96875 4.20312 18.8906" id="ArialMT-33"/>
      </defs>
      <g style="fill:#262626;" transform="translate(377.541015625 104.251822917)scale(0.1 -0.1)">
       <use xlink:href="#ArialMT-30"/>
       <use x="55.615234375" xlink:href="#ArialMT-2e"/>
       <use x="83.3984375" xlink:href="#ArialMT-33"/>
       <use x="139.013671875" xlink:href="#ArialMT-30"/>
      </g>
     </g>
    </g>
    <g id="ytick_15">
     <g id="line2d_103">
      <path clip-path="url(#p2d4aba56eb)" d="
M403.108 77.2778
L696 77.2778" style="fill:none;stroke:#ffffff;stroke-linecap:round;"/>
     </g>
     <g id="line2d_104">
      <g>
       <use style="fill:#262626;stroke:#262626;" x="403.108203125" xlink:href="#m219da94a98" y="77.2777777778"/>
      </g>
     </g>
     <g id="line2d_105">
      <g>
       <use style="fill:#262626;stroke:#262626;" x="696.0" xlink:href="#m219da94a98" y="77.2777777778"/>
      </g>
     </g>
     <g id="text_39">
      <!-- 0.35 -->
      <g style="fill:#262626;" transform="translate(377.462890625 79.8629340278)scale(0.1 -0.1)">
       <use xlink:href="#ArialMT-30"/>
       <use x="55.615234375" xlink:href="#ArialMT-2e"/>
       <use x="83.3984375" xlink:href="#ArialMT-33"/>
       <use x="139.013671875" xlink:href="#ArialMT-35"/>
      </g>
     </g>
    </g>
    <g id="ytick_16">
     <g id="line2d_106">
      <path clip-path="url(#p2d4aba56eb)" d="
M403.108 52.8889
L696 52.8889" style="fill:none;stroke:#ffffff;stroke-linecap:round;"/>
     </g>
     <g id="line2d_107">
      <g>
       <use style="fill:#262626;stroke:#262626;" x="403.108203125" xlink:href="#m219da94a98" y="52.8888888889"/>
      </g>
     </g>
     <g id="line2d_108">
      <g>
       <use style="fill:#262626;stroke:#262626;" x="696.0" xlink:href="#m219da94a98" y="52.8888888889"/>
      </g>
     </g>
     <g id="text_40">
      <!-- 0.40 -->
      <g style="fill:#262626;" transform="translate(377.541015625 55.4740451389)scale(0.1 -0.1)">
       <use xlink:href="#ArialMT-30"/>
       <use x="55.615234375" xlink:href="#ArialMT-2e"/>
       <use x="83.3984375" xlink:href="#ArialMT-34"/>
       <use x="139.013671875" xlink:href="#ArialMT-30"/>
      </g>
     </g>
    </g>
    <g id="ytick_17">
     <g id="line2d_109">
      <path clip-path="url(#p2d4aba56eb)" d="
M403.108 28.5
L696 28.5" style="fill:none;stroke:#ffffff;stroke-linecap:round;"/>
     </g>
     <g id="line2d_110">
      <g>
       <use style="fill:#262626;stroke:#262626;" x="403.108203125" xlink:href="#m219da94a98" y="28.5"/>
      </g>
     </g>
     <g id="line2d_111">
      <g>
       <use style="fill:#262626;stroke:#262626;" x="696.0" xlink:href="#m219da94a98" y="28.5"/>
      </g>
     </g>
     <g id="text_41">
      <!-- 0.45 -->
      <g style="fill:#262626;" transform="translate(377.462890625 31.08515625)scale(0.1 -0.1)">
       <use xlink:href="#ArialMT-30"/>
       <use x="55.615234375" xlink:href="#ArialMT-2e"/>
       <use x="83.3984375" xlink:href="#ArialMT-34"/>
       <use x="139.013671875" xlink:href="#ArialMT-35"/>
      </g>
     </g>
    </g>
    <g id="text_42">
     <!-- Mean parameter fluctuations -->
     <g style="fill:#262626;" transform="translate(369.282890625 239.32)rotate(-90.0)scale(0.16 -0.16)">
      <use xlink:href="#ArialMT-4d"/>
      <use x="83.30078125" xlink:href="#ArialMT-65"/>
      <use x="138.916015625" xlink:href="#ArialMT-61"/>
      <use x="194.53125" xlink:href="#ArialMT-6e"/>
      <use x="250.146484375" xlink:href="#ArialMT-20"/>
      <use x="277.9296875" xlink:href="#ArialMT-70"/>
      <use x="333.544921875" xlink:href="#ArialMT-61"/>
      <use x="389.16015625" xlink:href="#ArialMT-72"/>
      <use x="422.4609375" xlink:href="#ArialMT-61"/>
      <use x="478.076171875" xlink:href="#ArialMT-6d"/>
      <use x="561.376953125" xlink:href="#ArialMT-65"/>
      <use x="616.9921875" xlink:href="#ArialMT-74"/>
      <use x="644.775390625" xlink:href="#ArialMT-65"/>
      <use x="700.390625" xlink:href="#ArialMT-72"/>
      <use x="733.69140625" xlink:href="#ArialMT-20"/>
      <use x="761.474609375" xlink:href="#ArialMT-66"/>
      <use x="789.2578125" xlink:href="#ArialMT-6c"/>
      <use x="811.474609375" xlink:href="#ArialMT-75"/>
      <use x="867.08984375" xlink:href="#ArialMT-63"/>
      <use x="917.08984375" xlink:href="#ArialMT-74"/>
      <use x="944.873046875" xlink:href="#ArialMT-75"/>
      <use x="1000.48828125" xlink:href="#ArialMT-61"/>
      <use x="1056.10351562" xlink:href="#ArialMT-74"/>
      <use x="1083.88671875" xlink:href="#ArialMT-69"/>
      <use x="1106.10351562" xlink:href="#ArialMT-6f"/>
      <use x="1161.71875" xlink:href="#ArialMT-6e"/>
      <use x="1217.33398438" xlink:href="#ArialMT-73"/>
     </g>
    </g>
   </g>
   <g id="line2d_112">
    <path clip-path="url(#p2d4aba56eb)" d="
M405.2 247.59
L407.292 244.029
L409.384 242.594
L411.477 242.735
L415.661 242.309
L417.753 240.323
L419.845 242.408
L421.937 241.2
L424.029 238.257
L426.121 237.398
L428.213 239.077
L430.305 237.616
L432.397 235.621
L434.489 237.916
L436.582 236.229
L438.674 234.017
L440.766 234.995
L442.858 235.108
L444.95 233.638
L447.042 232.998
L449.134 234.157
L451.226 234.365
L453.318 232.782
L455.41 233.081
L457.502 232.303
L459.594 232.374
L461.687 230.827
L463.779 233.262
L465.871 230.834
L467.963 229.1
L470.055 229.974
L472.147 230.652
L474.239 229.061
L476.331 229.284
L478.423 229.146
L480.515 227.515
L482.607 226.317
L484.699 228.12
L486.792 226.578
L488.884 226.01
L493.068 226.654
L495.16 226.417
L497.252 226.045
L499.344 225.145
L501.436 225.543
L503.528 224.768
L505.62 222.518
L507.712 225.069
L509.805 223.341
L511.897 224.044
L513.989 222.678
L516.081 221.891
L518.173 221.991
L520.265 222.357
L522.357 221.16
L524.449 221.246
L526.541 221.923
L528.633 219.789
L530.725 221.362
L532.817 220.794
L534.91 222.903
L539.094 219.999
L541.186 219.865
L543.278 219.295
L545.37 218.985
L547.462 218.408
L549.554 218.703
L551.646 216.859
L553.738 218.149
L555.83 218.274
L557.922 216.444
L560.015 215.94
L562.107 216.979
L564.199 214.437
L566.291 214.427
L568.383 216.84
L572.567 214.891
L574.659 215.273
L576.751 214.404
L578.843 213.678
L580.935 212.349
L583.027 212.532
L585.12 214.061
L587.212 213.564
L589.304 213.311
L591.396 212.658
L593.488 212.509
L595.58 211.944
L597.672 212.364
L599.764 212.025
L601.856 213.111
L603.948 211.683
L606.04 212.669
L608.132 211.944
L610.225 210.655
L612.317 210.83
L614.409 209.553
L616.501 209.707
L618.593 209.607
L620.685 209.799
L622.777 207.313
L624.869 206.925
L626.961 206.939
L629.053 206.717
L631.145 207.374
L633.237 207.264
L635.33 208.986
L637.422 208.153
L639.514 208.305
L643.698 207.54
L645.79 207.463
L647.882 207.966
L649.974 206.189
L652.066 206.352
L656.25 206.995
L658.342 206.327
L662.527 205.955
L664.619 206.743
L666.711 205.005
L668.803 204.345
L670.895 203.512
L675.079 203.266
L677.171 204.167
L679.263 204.166
L681.355 202.609
L683.447 203.035
L685.54 203.217
L689.724 202.077
L691.816 202.81
L693.908 202.88
L696 202.379
L698.092 202.24
L698.092 202.24" style="fill:none;stroke:#659564;stroke-linecap:round;stroke-width:2;"/>
   </g>
   <g id="line2d_113">
    <path clip-path="url(#p2d4aba56eb)" d="
M405.2 161.01
L721 161.01" style="fill:none;stroke:#659564;stroke-dasharray:6.000000,6.000000;stroke-dashoffset:0.0;stroke-width:2;"/>
   </g>
   <g id="patch_8">
    <path d="
M403.108 28.5
L696 28.5" style="fill:none;"/>
   </g>
   <g id="patch_9">
    <path d="
M696 248
L696 28.5" style="fill:none;"/>
   </g>
   <g id="patch_10">
    <path d="
M403.108 248
L696 248" style="fill:none;"/>
   </g>
   <g id="patch_11">
    <path d="
M403.108 248
L403.108 28.5" style="fill:none;"/>
   </g>
   <g id="text_43">
    <!-- Model instability -->
    <g style="fill:#262626;" transform="translate(471.397382812 23.5)scale(0.22 -0.22)">
     <use xlink:href="#ArialMT-4d"/>
     <use x="83.30078125" xlink:href="#ArialMT-6f"/>
     <use x="138.916015625" xlink:href="#ArialMT-64"/>
     <use x="194.53125" xlink:href="#ArialMT-65"/>
     <use x="250.146484375" xlink:href="#ArialMT-6c"/>
     <use x="272.36328125" xlink:href="#ArialMT-20"/>
     <use x="300.146484375" xlink:href="#ArialMT-69"/>
     <use x="322.36328125" xlink:href="#ArialMT-6e"/>
     <use x="377.978515625" xlink:href="#ArialMT-73"/>
     <use x="427.978515625" xlink:href="#ArialMT-74"/>
     <use x="455.76171875" xlink:href="#ArialMT-61"/>
     <use x="511.376953125" xlink:href="#ArialMT-62"/>
     <use x="566.9921875" xlink:href="#ArialMT-69"/>
     <use x="589.208984375" xlink:href="#ArialMT-6c"/>
     <use x="611.42578125" xlink:href="#ArialMT-69"/>
     <use x="633.642578125" xlink:href="#ArialMT-74"/>
     <use x="661.42578125" xlink:href="#ArialMT-79"/>
    </g>
   </g>
   <g id="legend_2">
    <g id="line2d_114">
     <path d="
M546.092 44.9552
L572.092 44.9552" style="fill:none;stroke:#659564;stroke-linecap:round;stroke-width:2;"/>
    </g>
    <g id="line2d_115"/>
    <g id="text_44">
     <!-- Agglomerated set -->
     <g style="fill:#262626;" transform="translate(582.49171875 49.50515625)scale(0.13 -0.13)">
      <use xlink:href="#ArialMT-41"/>
      <use x="66.69921875" xlink:href="#ArialMT-67"/>
      <use x="122.314453125" xlink:href="#ArialMT-67"/>
      <use x="177.9296875" xlink:href="#ArialMT-6c"/>
      <use x="200.146484375" xlink:href="#ArialMT-6f"/>
      <use x="255.76171875" xlink:href="#ArialMT-6d"/>
      <use x="339.0625" xlink:href="#ArialMT-65"/>
      <use x="394.677734375" xlink:href="#ArialMT-72"/>
      <use x="427.978515625" xlink:href="#ArialMT-61"/>
      <use x="483.59375" xlink:href="#ArialMT-74"/>
      <use x="511.376953125" xlink:href="#ArialMT-65"/>
      <use x="566.9921875" xlink:href="#ArialMT-64"/>
      <use x="622.607421875" xlink:href="#ArialMT-20"/>
      <use x="650.390625" xlink:href="#ArialMT-73"/>
      <use x="700.390625" xlink:href="#ArialMT-65"/>
      <use x="756.005859375" xlink:href="#ArialMT-74"/>
     </g>
    </g>
    <g id="line2d_116">
     <path d="
M546.092 63.4964
L572.092 63.4964" style="fill:none;stroke:#659564;stroke-dasharray:6.000000,6.000000;stroke-dashoffset:0.0;stroke-width:2;"/>
    </g>
    <g id="line2d_117"/>
    <g id="text_45">
     <!-- No agglomeration -->
     <g style="fill:#262626;" transform="translate(582.49171875 68.04640625)scale(0.13 -0.13)">
      <use xlink:href="#ArialMT-4e"/>
      <use x="72.216796875" xlink:href="#ArialMT-6f"/>
      <use x="127.83203125" xlink:href="#ArialMT-20"/>
      <use x="155.615234375" xlink:href="#ArialMT-61"/>
      <use x="211.23046875" xlink:href="#ArialMT-67"/>
      <use x="266.845703125" xlink:href="#ArialMT-67"/>
      <use x="322.4609375" xlink:href="#ArialMT-6c"/>
      <use x="344.677734375" xlink:href="#ArialMT-6f"/>
      <use x="400.29296875" xlink:href="#ArialMT-6d"/>
      <use x="483.59375" xlink:href="#ArialMT-65"/>
      <use x="539.208984375" xlink:href="#ArialMT-72"/>
      <use x="572.509765625" xlink:href="#ArialMT-61"/>
      <use x="628.125" xlink:href="#ArialMT-74"/>
      <use x="655.908203125" xlink:href="#ArialMT-69"/>
      <use x="678.125" xlink:href="#ArialMT-6f"/>
      <use x="733.740234375" xlink:href="#ArialMT-6e"/>
     </g>
    </g>
   </g>
  </g>
 </g>
 <defs>
  <clipPath id="p2d4aba56eb">
   <rect height="219.5" width="292.891796875" x="403.108203125" y="28.5"/>
  </clipPath>
  <clipPath id="p7c714b6e5e">
   <rect height="219.5" width="292.891796875" x="44.05" y="28.5"/>
  </clipPath>
 </defs>
</svg>
