<?xml version="1.0" encoding="utf-8" standalone="no"?>
<!DOCTYPE svg PUBLIC "-//W3C//DTD SVG 1.1//EN"
  "http://www.w3.org/Graphics/SVG/1.1/DTD/svg11.dtd">
<!-- Created with matplotlib (http://matplotlib.org/) -->
<svg height="288pt" version="1.1" viewBox="0 0 720 288" width="720pt" xmlns="http://www.w3.org/2000/svg" xmlns:xlink="http://www.w3.org/1999/xlink">
 <defs>
  <style type="text/css">
*{stroke-linecap:butt;stroke-linejoin:round;}
  </style>
 </defs>
 <g id="figure_1">
  <g id="patch_1">
   <path d="
M0 288
L720 288
L720 0
L0 0
z
" style="fill:#ffffff;"/>
  </g>
  <g id="axes_1">
   <g id="patch_2">
    <path d="
M56.05 236
L336.942 236
L336.942 40.5
L56.05 40.5
z
" style="fill:#eaeaf2;"/>
   </g>
   <g id="matplotlib.axis_1">
    <g id="xtick_1">
     <g id="line2d_1">
      <path clip-path="url(#p88a5be353f)" d="
M94.4453 236
L94.4453 40.5" style="fill:none;stroke:#ffffff;stroke-linecap:round;"/>
     </g>
     <g id="line2d_2">
      <defs>
       <path d="
M0 0
L0 0" id="m219da94a98" style="stroke:#262626;"/>
      </defs>
      <g>
       <use style="fill:#262626;stroke:#262626;" x="94.4452815872" xlink:href="#m219da94a98" y="236.0"/>
      </g>
     </g>
     <g id="line2d_3">
      <g>
       <use style="fill:#262626;stroke:#262626;" x="94.4452815872" xlink:href="#m219da94a98" y="40.5"/>
      </g>
     </g>
     <g id="text_1">
      <!-- 20 -->
      <defs>
       <path d="
M4.15625 35.2969
Q4.15625 48 6.76562 55.7344
Q9.375 63.4844 14.5156 67.6719
Q19.6719 71.875 27.4844 71.875
Q33.25 71.875 37.5938 69.5469
Q41.9375 67.2344 44.7656 62.8594
Q47.6094 58.5 49.2188 52.2188
Q50.8281 45.9531 50.8281 35.2969
Q50.8281 22.7031 48.2344 14.9688
Q45.6562 7.23438 40.5 3
Q35.3594 -1.21875 27.4844 -1.21875
Q17.1406 -1.21875 11.2344 6.20312
Q4.15625 15.1406 4.15625 35.2969
M13.1875 35.2969
Q13.1875 17.6719 17.3125 11.8281
Q21.4375 6 27.4844 6
Q33.5469 6 37.6719 11.8594
Q41.7969 17.7188 41.7969 35.2969
Q41.7969 52.9844 37.6719 58.7812
Q33.5469 64.5938 27.3906 64.5938
Q21.3438 64.5938 17.7188 59.4688
Q13.1875 52.9375 13.1875 35.2969" id="ArialMT-30"/>
       <path d="
M50.3438 8.45312
L50.3438 0
L3.03125 0
Q2.9375 3.17188 4.04688 6.10938
Q5.85938 10.9375 9.82812 15.625
Q13.8125 20.3125 21.3438 26.4688
Q33.0156 36.0312 37.1094 41.625
Q41.2188 47.2188 41.2188 52.2031
Q41.2188 57.4219 37.4688 61
Q33.7344 64.5938 27.7344 64.5938
Q21.3906 64.5938 17.5781 60.7812
Q13.7656 56.9844 13.7188 50.25
L4.6875 51.1719
Q5.60938 61.2812 11.6562 66.5781
Q17.7188 71.875 27.9375 71.875
Q38.2344 71.875 44.2344 66.1562
Q50.25 60.4531 50.25 52
Q50.25 47.7031 48.4844 43.5469
Q46.7344 39.4062 42.6562 34.8125
Q38.5781 30.2188 29.1094 22.2188
Q21.1875 15.5781 18.9375 13.2031
Q16.7031 10.8438 15.2344 8.45312
z
" id="ArialMT-32"/>
      </defs>
      <g style="fill:#262626;" transform="translate(89.2702815872 250.1578125)scale(0.1 -0.1)">
       <use xlink:href="#ArialMT-32"/>
       <use x="55.615234375" xlink:href="#ArialMT-30"/>
      </g>
     </g>
    </g>
    <g id="xtick_2">
     <g id="line2d_4">
      <path clip-path="url(#p88a5be353f)" d="
M134.861 236
L134.861 40.5" style="fill:none;stroke:#ffffff;stroke-linecap:round;"/>
     </g>
     <g id="line2d_5">
      <g>
       <use style="fill:#262626;stroke:#262626;" x="134.861367469" xlink:href="#m219da94a98" y="236.0"/>
      </g>
     </g>
     <g id="line2d_6">
      <g>
       <use style="fill:#262626;stroke:#262626;" x="134.861367469" xlink:href="#m219da94a98" y="40.5"/>
      </g>
     </g>
     <g id="text_2">
      <!-- 40 -->
      <defs>
       <path d="
M32.3281 0
L32.3281 17.1406
L1.26562 17.1406
L1.26562 25.2031
L33.9375 71.5781
L41.1094 71.5781
L41.1094 25.2031
L50.7812 25.2031
L50.7812 17.1406
L41.1094 17.1406
L41.1094 0
z

M32.3281 25.2031
L32.3281 57.4688
L9.90625 25.2031
z
" id="ArialMT-34"/>
      </defs>
      <g style="fill:#262626;" transform="translate(129.602773719 250.1578125)scale(0.1 -0.1)">
       <use xlink:href="#ArialMT-34"/>
       <use x="55.615234375" xlink:href="#ArialMT-30"/>
      </g>
     </g>
    </g>
    <g id="xtick_3">
     <g id="line2d_7">
      <path clip-path="url(#p88a5be353f)" d="
M175.277 236
L175.277 40.5" style="fill:none;stroke:#ffffff;stroke-linecap:round;"/>
     </g>
     <g id="line2d_8">
      <g>
       <use style="fill:#262626;stroke:#262626;" x="175.27745335" xlink:href="#m219da94a98" y="236.0"/>
      </g>
     </g>
     <g id="line2d_9">
      <g>
       <use style="fill:#262626;stroke:#262626;" x="175.27745335" xlink:href="#m219da94a98" y="40.5"/>
      </g>
     </g>
     <g id="text_3">
      <!-- 60 -->
      <defs>
       <path d="
M49.75 54.0469
L41.0156 53.375
Q39.8438 58.5469 37.7031 60.8906
Q34.125 64.6562 28.9062 64.6562
Q24.7031 64.6562 21.5312 62.3125
Q17.3906 59.2812 14.9844 53.4688
Q12.5938 47.6562 12.5 36.9219
Q15.6719 41.75 20.2656 44.0938
Q24.8594 46.4375 29.8906 46.4375
Q38.6719 46.4375 44.8438 39.9688
Q51.0312 33.5 51.0312 23.25
Q51.0312 16.5 48.125 10.7188
Q45.2188 4.9375 40.1406 1.85938
Q35.0625 -1.21875 28.6094 -1.21875
Q17.625 -1.21875 10.6875 6.85938
Q3.76562 14.9375 3.76562 33.5
Q3.76562 54.25 11.4219 63.6719
Q18.1094 71.875 29.4375 71.875
Q37.8906 71.875 43.2812 67.1406
Q48.6875 62.4062 49.75 54.0469
M13.875 23.1875
Q13.875 18.6562 15.7969 14.5
Q17.7188 10.3594 21.1875 8.17188
Q24.6562 6 28.4688 6
Q34.0312 6 38.0312 10.4844
Q42.0469 14.9844 42.0469 22.7031
Q42.0469 30.125 38.0781 34.3906
Q34.125 38.6719 28.125 38.6719
Q22.1719 38.6719 18.0156 34.3906
Q13.875 30.125 13.875 23.1875" id="ArialMT-36"/>
      </defs>
      <g style="fill:#262626;" transform="translate(170.1438596 250.1578125)scale(0.1 -0.1)">
       <use xlink:href="#ArialMT-36"/>
       <use x="55.615234375" xlink:href="#ArialMT-30"/>
      </g>
     </g>
    </g>
    <g id="xtick_4">
     <g id="line2d_10">
      <path clip-path="url(#p88a5be353f)" d="
M215.694 236
L215.694 40.5" style="fill:none;stroke:#ffffff;stroke-linecap:round;"/>
     </g>
     <g id="line2d_11">
      <g>
       <use style="fill:#262626;stroke:#262626;" x="215.693539231" xlink:href="#m219da94a98" y="236.0"/>
      </g>
     </g>
     <g id="line2d_12">
      <g>
       <use style="fill:#262626;stroke:#262626;" x="215.693539231" xlink:href="#m219da94a98" y="40.5"/>
      </g>
     </g>
     <g id="text_4">
      <!-- 80 -->
      <defs>
       <path d="
M17.6719 38.8125
Q12.2031 40.8281 9.5625 44.5312
Q6.9375 48.25 6.9375 53.4219
Q6.9375 61.2344 12.5469 66.5469
Q18.1719 71.875 27.4844 71.875
Q36.8594 71.875 42.5781 66.4219
Q48.2969 60.9844 48.2969 53.1719
Q48.2969 48.1875 45.6719 44.5
Q43.0625 40.8281 37.75 38.8125
Q44.3438 36.6719 47.7812 31.875
Q51.2188 27.0938 51.2188 20.4531
Q51.2188 11.2812 44.7188 5.03125
Q38.2344 -1.21875 27.6406 -1.21875
Q17.0469 -1.21875 10.5469 5.04688
Q4.04688 11.3281 4.04688 20.7031
Q4.04688 27.6875 7.59375 32.3906
Q11.1406 37.1094 17.6719 38.8125
M15.9219 53.7188
Q15.9219 48.6406 19.1875 45.4062
Q22.4688 42.1875 27.6875 42.1875
Q32.7656 42.1875 36.0156 45.375
Q39.2656 48.5781 39.2656 53.2188
Q39.2656 58.0625 35.9062 61.3594
Q32.5625 64.6562 27.5938 64.6562
Q22.5625 64.6562 19.2344 61.4219
Q15.9219 58.2031 15.9219 53.7188
M13.0938 20.6562
Q13.0938 16.8906 14.875 13.375
Q16.6562 9.85938 20.1719 7.92188
Q23.6875 6 27.7344 6
Q34.0312 6 38.125 10.0469
Q42.2344 14.1094 42.2344 20.3594
Q42.2344 26.7031 38.0156 30.8594
Q33.7969 35.0156 27.4375 35.0156
Q21.2344 35.0156 17.1562 30.9062
Q13.0938 26.8125 13.0938 20.6562" id="ArialMT-38"/>
      </defs>
      <g style="fill:#262626;" transform="translate(210.574007981 250.1578125)scale(0.1 -0.1)">
       <use xlink:href="#ArialMT-38"/>
       <use x="55.615234375" xlink:href="#ArialMT-30"/>
      </g>
     </g>
    </g>
    <g id="xtick_5">
     <g id="line2d_13">
      <path clip-path="url(#p88a5be353f)" d="
M256.11 236
L256.11 40.5" style="fill:none;stroke:#ffffff;stroke-linecap:round;"/>
     </g>
     <g id="line2d_14">
      <g>
       <use style="fill:#262626;stroke:#262626;" x="256.109625112" xlink:href="#m219da94a98" y="236.0"/>
      </g>
     </g>
     <g id="line2d_15">
      <g>
       <use style="fill:#262626;stroke:#262626;" x="256.109625112" xlink:href="#m219da94a98" y="40.5"/>
      </g>
     </g>
     <g id="text_5">
      <!-- 100 -->
      <defs>
       <path d="
M37.25 0
L28.4688 0
L28.4688 56
Q25.2969 52.9844 20.1406 49.9531
Q14.9844 46.9219 10.8906 45.4062
L10.8906 53.9062
Q18.2656 57.375 23.7812 62.2969
Q29.2969 67.2344 31.5938 71.875
L37.25 71.875
z
" id="ArialMT-31"/>
      </defs>
      <g style="fill:#262626;" transform="translate(248.551812612 250.1578125)scale(0.1 -0.1)">
       <use xlink:href="#ArialMT-31"/>
       <use x="55.615234375" xlink:href="#ArialMT-30"/>
       <use x="111.23046875" xlink:href="#ArialMT-30"/>
      </g>
     </g>
    </g>
    <g id="xtick_6">
     <g id="line2d_16">
      <path clip-path="url(#p88a5be353f)" d="
M296.526 236
L296.526 40.5" style="fill:none;stroke:#ffffff;stroke-linecap:round;"/>
     </g>
     <g id="line2d_17">
      <g>
       <use style="fill:#262626;stroke:#262626;" x="296.525710994" xlink:href="#m219da94a98" y="236.0"/>
      </g>
     </g>
     <g id="line2d_18">
      <g>
       <use style="fill:#262626;stroke:#262626;" x="296.525710994" xlink:href="#m219da94a98" y="40.5"/>
      </g>
     </g>
     <g id="text_6">
      <!-- 120 -->
      <g style="fill:#262626;" transform="translate(288.967898494 250.1578125)scale(0.1 -0.1)">
       <use xlink:href="#ArialMT-31"/>
       <use x="55.615234375" xlink:href="#ArialMT-32"/>
       <use x="111.23046875" xlink:href="#ArialMT-30"/>
      </g>
     </g>
    </g>
    <g id="xtick_7">
     <g id="line2d_19">
      <path clip-path="url(#p88a5be353f)" d="
M336.942 236
L336.942 40.5" style="fill:none;stroke:#ffffff;stroke-linecap:round;"/>
     </g>
     <g id="line2d_20">
      <g>
       <use style="fill:#262626;stroke:#262626;" x="336.941796875" xlink:href="#m219da94a98" y="236.0"/>
      </g>
     </g>
     <g id="line2d_21">
      <g>
       <use style="fill:#262626;stroke:#262626;" x="336.941796875" xlink:href="#m219da94a98" y="40.5"/>
      </g>
     </g>
     <g id="text_7">
      <!-- 140 -->
      <g style="fill:#262626;" transform="translate(329.383984375 250.1578125)scale(0.1 -0.1)">
       <use xlink:href="#ArialMT-31"/>
       <use x="55.615234375" xlink:href="#ArialMT-34"/>
       <use x="111.23046875" xlink:href="#ArialMT-30"/>
      </g>
     </g>
    </g>
    <g id="text_8">
     <!-- Number of agglomerated predictors -->
     <defs>
      <path d="
M40.4375 19
L49.0781 17.875
Q47.6562 8.9375 41.8125 3.875
Q35.9844 -1.17188 27.4844 -1.17188
Q16.8438 -1.17188 10.375 5.78125
Q3.90625 12.75 3.90625 25.7344
Q3.90625 34.125 6.6875 40.4219
Q9.46875 46.7344 15.1562 49.875
Q20.8438 53.0312 27.5469 53.0312
Q35.9844 53.0312 41.3594 48.75
Q46.7344 44.4844 48.25 36.625
L39.7031 35.2969
Q38.4844 40.5312 35.375 43.1562
Q32.2812 45.7969 27.875 45.7969
Q21.2344 45.7969 17.0781 41.0312
Q12.9375 36.2812 12.9375 25.9844
Q12.9375 15.5312 16.9375 10.7969
Q20.9531 6.0625 27.3906 6.0625
Q32.5625 6.0625 36.0312 9.23438
Q39.5 12.4062 40.4375 19" id="ArialMT-63"/>
      <path d="
M14.7031 0
L6.54688 0
L6.54688 71.5781
L15.3281 71.5781
L15.3281 46.0469
Q20.9062 53.0312 29.5469 53.0312
Q34.3281 53.0312 38.5938 51.0938
Q42.875 49.1719 45.625 45.6719
Q48.3906 42.1875 49.9531 37.25
Q51.5156 32.3281 51.5156 26.7031
Q51.5156 13.375 44.9219 6.09375
Q38.3281 -1.17188 29.1094 -1.17188
Q19.9219 -1.17188 14.7031 6.5
z

M14.5938 26.3125
Q14.5938 17 17.1406 12.8438
Q21.2969 6.0625 28.375 6.0625
Q34.125 6.0625 38.3281 11.0625
Q42.5312 16.0625 42.5312 25.9844
Q42.5312 36.1406 38.5 40.9688
Q34.4688 45.7969 28.7656 45.7969
Q23 45.7969 18.7969 40.7969
Q14.5938 35.7969 14.5938 26.3125" id="ArialMT-62"/>
      <path d="
M40.4375 6.39062
Q35.5469 2.25 31.0312 0.53125
Q26.5156 -1.17188 21.3438 -1.17188
Q12.7969 -1.17188 8.20312 3
Q3.60938 7.17188 3.60938 13.6719
Q3.60938 17.4844 5.34375 20.625
Q7.07812 23.7812 9.89062 25.6875
Q12.7031 27.5938 16.2188 28.5625
Q18.7969 29.25 24.0312 29.8906
Q34.6719 31.1562 39.7031 32.9062
Q39.75 34.7188 39.75 35.2031
Q39.75 40.5781 37.25 42.7812
Q33.8906 45.75 27.25 45.75
Q21.0469 45.75 18.0938 43.5781
Q15.1406 41.4062 13.7188 35.8906
L5.125 37.0625
Q6.29688 42.5781 8.98438 45.9688
Q11.6719 49.3594 16.75 51.1875
Q21.8281 53.0312 28.5156 53.0312
Q35.1562 53.0312 39.2969 51.4688
Q43.4531 49.9062 45.4062 47.5312
Q47.3594 45.1719 48.1406 41.5469
Q48.5781 39.3125 48.5781 33.4531
L48.5781 21.7344
Q48.5781 9.46875 49.1406 6.21875
Q49.7031 2.98438 51.375 0
L42.1875 0
Q40.8281 2.73438 40.4375 6.39062
M39.7031 26.0312
Q34.9062 24.0781 25.3438 22.7031
Q19.9219 21.9219 17.6719 20.9375
Q15.4375 19.9688 14.2031 18.0938
Q12.9844 16.2188 12.9844 13.9219
Q12.9844 10.4062 15.6406 8.0625
Q18.3125 5.71875 23.4375 5.71875
Q28.5156 5.71875 32.4688 7.9375
Q36.4219 10.1562 38.2812 14.0156
Q39.7031 17 39.7031 22.7969
z
" id="ArialMT-61"/>
      <path d="
M4.98438 -4.29688
L13.5312 -5.5625
Q14.0625 -9.51562 16.5 -11.3281
Q19.7812 -13.7656 25.4375 -13.7656
Q31.5469 -13.7656 34.8594 -11.3281
Q38.1875 -8.89062 39.3594 -4.5
Q40.0469 -1.8125 39.9844 6.78125
Q34.2344 0 25.6406 0
Q14.9375 0 9.07812 7.71875
Q3.21875 15.4375 3.21875 26.2188
Q3.21875 33.6406 5.90625 39.9062
Q8.59375 46.1875 13.6875 49.6094
Q18.7969 53.0312 25.6875 53.0312
Q34.8594 53.0312 40.8281 45.6094
L40.8281 51.8594
L48.9219 51.8594
L48.9219 7.03125
Q48.9219 -5.07812 46.4531 -10.125
Q44 -15.1875 38.6406 -18.1094
Q33.2969 -21.0469 25.4844 -21.0469
Q16.2188 -21.0469 10.5 -16.875
Q4.78125 -12.7031 4.98438 -4.29688
M12.25 26.8594
Q12.25 16.6562 16.2969 11.9688
Q20.3594 7.28125 26.4688 7.28125
Q32.5156 7.28125 36.6094 11.9375
Q40.7188 16.6094 40.7188 26.5625
Q40.7188 36.0781 36.5 40.9062
Q32.2812 45.75 26.3125 45.75
Q20.4531 45.75 16.3438 40.9844
Q12.25 36.2344 12.25 26.8594" id="ArialMT-67"/>
      <path d="
M8.6875 0
L8.6875 45.0156
L0.921875 45.0156
L0.921875 51.8594
L8.6875 51.8594
L8.6875 57.375
Q8.6875 62.5938 9.625 65.1406
Q10.8906 68.5625 14.0781 70.6719
Q17.2812 72.7969 23.0469 72.7969
Q26.7656 72.7969 31.25 71.9219
L29.9375 64.2656
Q27.2031 64.75 24.75 64.75
Q20.75 64.75 19.0938 63.0312
Q17.4375 61.3281 17.4375 56.6406
L17.4375 51.8594
L27.5469 51.8594
L27.5469 45.0156
L17.4375 45.0156
L17.4375 0
z
" id="ArialMT-66"/>
      <path d="
M42.0938 16.7031
L51.1719 15.5781
Q49.0312 7.625 43.2188 3.21875
Q37.4062 -1.17188 28.375 -1.17188
Q17 -1.17188 10.3281 5.82812
Q3.65625 12.8438 3.65625 25.4844
Q3.65625 38.5781 10.3906 45.7969
Q17.1406 53.0312 27.875 53.0312
Q38.2812 53.0312 44.875 45.9531
Q51.4688 38.875 51.4688 26.0312
Q51.4688 25.25 51.4219 23.6875
L12.75 23.6875
Q13.2344 15.1406 17.5781 10.5938
Q21.9219 6.0625 28.4219 6.0625
Q33.25 6.0625 36.6719 8.59375
Q40.0938 11.1406 42.0938 16.7031
M13.2344 30.9062
L42.1875 30.9062
Q41.6094 37.4531 38.875 40.7188
Q34.6719 45.7969 27.9844 45.7969
Q21.9219 45.7969 17.7969 41.75
Q13.6719 37.7031 13.2344 30.9062" id="ArialMT-65"/>
      <path d="
M40.2344 0
L40.2344 6.54688
Q35.2969 -1.17188 25.7344 -1.17188
Q19.5312 -1.17188 14.3281 2.25
Q9.125 5.67188 6.26562 11.7969
Q3.42188 17.9219 3.42188 25.875
Q3.42188 33.6406 6 39.9688
Q8.59375 46.2969 13.7656 49.6562
Q18.9531 53.0312 25.3438 53.0312
Q30.0312 53.0312 33.6875 51.0469
Q37.3594 49.0781 39.6562 45.9062
L39.6562 71.5781
L48.3906 71.5781
L48.3906 0
z

M12.4531 25.875
Q12.4531 15.9219 16.6406 10.9844
Q20.8438 6.0625 26.5625 6.0625
Q32.3281 6.0625 36.3438 10.7656
Q40.375 15.4844 40.375 25.1406
Q40.375 35.7969 36.2656 40.7656
Q32.1719 45.75 26.1719 45.75
Q20.3125 45.75 16.375 40.9688
Q12.4531 36.1875 12.4531 25.875" id="ArialMT-64"/>
      <path d="
M25.7812 7.85938
L27.0469 0.09375
Q23.3438 -0.6875 20.4062 -0.6875
Q15.625 -0.6875 12.9844 0.828125
Q10.3594 2.34375 9.28125 4.8125
Q8.20312 7.28125 8.20312 15.1875
L8.20312 45.0156
L1.76562 45.0156
L1.76562 51.8594
L8.20312 51.8594
L8.20312 64.7031
L16.9375 69.9688
L16.9375 51.8594
L25.7812 51.8594
L25.7812 45.0156
L16.9375 45.0156
L16.9375 14.7031
Q16.9375 10.9375 17.4062 9.85938
Q17.875 8.79688 18.9219 8.15625
Q19.9688 7.51562 21.9219 7.51562
Q23.3906 7.51562 25.7812 7.85938" id="ArialMT-74"/>
      <path d="
M40.5781 0
L40.5781 7.625
Q34.5156 -1.17188 24.125 -1.17188
Q19.5312 -1.17188 15.5469 0.578125
Q11.5781 2.34375 9.64062 5
Q7.71875 7.67188 6.9375 11.5312
Q6.39062 14.1094 6.39062 19.7344
L6.39062 51.8594
L15.1875 51.8594
L15.1875 23.0938
Q15.1875 16.2188 15.7188 13.8125
Q16.5469 10.3594 19.2344 8.375
Q21.9219 6.39062 25.875 6.39062
Q29.8281 6.39062 33.2969 8.42188
Q36.7656 10.4531 38.2031 13.9375
Q39.6562 17.4375 39.6562 24.0781
L39.6562 51.8594
L48.4375 51.8594
L48.4375 0
z
" id="ArialMT-75"/>
      <path d="
M6.64062 61.4688
L6.64062 71.5781
L15.4375 71.5781
L15.4375 61.4688
z

M6.64062 0
L6.64062 51.8594
L15.4375 51.8594
L15.4375 0
z
" id="ArialMT-69"/>
      <path d="
M6.59375 -19.875
L6.59375 51.8594
L14.5938 51.8594
L14.5938 45.125
Q17.4375 49.0781 21 51.0469
Q24.5625 53.0312 29.6406 53.0312
Q36.2812 53.0312 41.3594 49.6094
Q46.4375 46.1875 49.0156 39.9531
Q51.6094 33.7344 51.6094 26.3125
Q51.6094 18.3594 48.75 11.9844
Q45.9062 5.60938 40.4531 2.21875
Q35.0156 -1.17188 29 -1.17188
Q24.6094 -1.17188 21.1094 0.6875
Q17.625 2.54688 15.375 5.375
L15.375 -19.875
z

M14.5469 25.6406
Q14.5469 15.625 18.5938 10.8438
Q22.6562 6.0625 28.4219 6.0625
Q34.2812 6.0625 38.4531 11.0156
Q42.625 15.9688 42.625 26.375
Q42.625 36.2812 38.5469 41.2031
Q34.4688 46.1406 28.8125 46.1406
Q23.1875 46.1406 18.8594 40.8906
Q14.5469 35.6406 14.5469 25.6406" id="ArialMT-70"/>
      <path d="
M6.5 0
L6.5 51.8594
L14.4062 51.8594
L14.4062 44
Q17.4375 49.5156 20 51.2656
Q22.5625 53.0312 25.6406 53.0312
Q30.0781 53.0312 34.6719 50.2031
L31.6406 42.0469
Q28.4219 43.9531 25.2031 43.9531
Q22.3125 43.9531 20.0156 42.2188
Q17.7188 40.4844 16.75 37.4062
Q15.2812 32.7188 15.2812 27.1562
L15.2812 0
z
" id="ArialMT-72"/>
      <path d="
M3.07812 15.4844
L11.7656 16.8438
Q12.5 11.625 15.8438 8.84375
Q19.1875 6.0625 25.2031 6.0625
Q31.25 6.0625 34.1719 8.51562
Q37.1094 10.9844 37.1094 14.3125
Q37.1094 17.2812 34.5156 19
Q32.7188 20.1719 25.5312 21.9688
Q15.875 24.4219 12.1406 26.2031
Q8.40625 27.9844 6.46875 31.125
Q4.54688 34.2812 4.54688 38.0938
Q4.54688 41.5469 6.125 44.5
Q7.71875 47.4688 10.4531 49.4219
Q12.5 50.9219 16.0312 51.9688
Q19.5781 53.0312 23.6406 53.0312
Q29.7344 53.0312 34.3438 51.2656
Q38.9688 49.5156 41.1562 46.5
Q43.3594 43.5 44.1875 38.4844
L35.5938 37.3125
Q35.0156 41.3125 32.2031 43.5469
Q29.3906 45.7969 24.2656 45.7969
Q18.2188 45.7969 15.625 43.7969
Q13.0312 41.7969 13.0312 39.1094
Q13.0312 37.4062 14.1094 36.0312
Q15.1875 34.625 17.4844 33.6875
Q18.7969 33.2031 25.25 31.4531
Q34.5781 28.9531 38.25 27.3594
Q41.9375 25.7812 44.0312 22.75
Q46.1406 19.7344 46.1406 15.2344
Q46.1406 10.8438 43.5781 6.95312
Q41.0156 3.07812 36.1719 0.953125
Q31.3438 -1.17188 25.25 -1.17188
Q15.1406 -1.17188 9.84375 3.03125
Q4.54688 7.23438 3.07812 15.4844" id="ArialMT-73"/>
      <path d="
M6.39062 0
L6.39062 71.5781
L15.1875 71.5781
L15.1875 0
z
" id="ArialMT-6c"/>
      <path d="
M3.32812 25.9219
Q3.32812 40.3281 11.3281 47.2656
Q18.0156 53.0312 27.6406 53.0312
Q38.3281 53.0312 45.1094 46.0156
Q51.9062 39.0156 51.9062 26.6562
Q51.9062 16.6562 48.9062 10.9062
Q45.9062 5.17188 40.1562 2
Q34.4219 -1.17188 27.6406 -1.17188
Q16.75 -1.17188 10.0312 5.8125
Q3.32812 12.7969 3.32812 25.9219
M12.3594 25.9219
Q12.3594 15.9688 16.7031 11.0156
Q21.0469 6.0625 27.6406 6.0625
Q34.1875 6.0625 38.5312 11.0312
Q42.875 16.0156 42.875 26.2188
Q42.875 35.8438 38.5 40.7969
Q34.125 45.75 27.6406 45.75
Q21.0469 45.75 16.7031 40.8125
Q12.3594 35.8906 12.3594 25.9219" id="ArialMT-6f"/>
      <path d="
M6.59375 0
L6.59375 51.8594
L14.4531 51.8594
L14.4531 44.5781
Q16.8906 48.3906 20.9375 50.7031
Q25 53.0312 30.1719 53.0312
Q35.9375 53.0312 39.625 50.6406
Q43.3125 48.25 44.8281 43.9531
Q50.9844 53.0312 60.8438 53.0312
Q68.5625 53.0312 72.7031 48.75
Q76.8594 44.4844 76.8594 35.5938
L76.8594 0
L68.1094 0
L68.1094 32.6719
Q68.1094 37.9375 67.25 40.25
Q66.4062 42.5781 64.1562 43.9844
Q61.9219 45.4062 58.8906 45.4062
Q53.4219 45.4062 49.7969 41.7656
Q46.1875 38.1406 46.1875 30.125
L46.1875 0
L37.4062 0
L37.4062 33.6875
Q37.4062 39.5469 35.25 42.4688
Q33.1094 45.4062 28.2188 45.4062
Q24.5156 45.4062 21.3594 43.4531
Q18.2188 41.5 16.7969 37.7344
Q15.375 33.9844 15.375 26.9062
L15.375 0
z
" id="ArialMT-6d"/>
      <path d="
M7.625 0
L7.625 71.5781
L17.3281 71.5781
L54.9375 15.375
L54.9375 71.5781
L64.0156 71.5781
L64.0156 0
L54.2969 0
L16.7031 56.25
L16.7031 0
z
" id="ArialMT-4e"/>
      <path id="ArialMT-20"/>
     </defs>
     <g style="fill:#262626;" transform="translate(70.9746484375 268.7928125)scale(0.16 -0.16)">
      <use xlink:href="#ArialMT-4e"/>
      <use x="72.216796875" xlink:href="#ArialMT-75"/>
      <use x="127.83203125" xlink:href="#ArialMT-6d"/>
      <use x="211.1328125" xlink:href="#ArialMT-62"/>
      <use x="266.748046875" xlink:href="#ArialMT-65"/>
      <use x="322.36328125" xlink:href="#ArialMT-72"/>
      <use x="355.6640625" xlink:href="#ArialMT-20"/>
      <use x="383.447265625" xlink:href="#ArialMT-6f"/>
      <use x="439.0625" xlink:href="#ArialMT-66"/>
      <use x="466.845703125" xlink:href="#ArialMT-20"/>
      <use x="494.62890625" xlink:href="#ArialMT-61"/>
      <use x="550.244140625" xlink:href="#ArialMT-67"/>
      <use x="605.859375" xlink:href="#ArialMT-67"/>
      <use x="661.474609375" xlink:href="#ArialMT-6c"/>
      <use x="683.69140625" xlink:href="#ArialMT-6f"/>
      <use x="739.306640625" xlink:href="#ArialMT-6d"/>
      <use x="822.607421875" xlink:href="#ArialMT-65"/>
      <use x="878.22265625" xlink:href="#ArialMT-72"/>
      <use x="911.5234375" xlink:href="#ArialMT-61"/>
      <use x="967.138671875" xlink:href="#ArialMT-74"/>
      <use x="994.921875" xlink:href="#ArialMT-65"/>
      <use x="1050.53710938" xlink:href="#ArialMT-64"/>
      <use x="1106.15234375" xlink:href="#ArialMT-20"/>
      <use x="1133.93554688" xlink:href="#ArialMT-70"/>
      <use x="1189.55078125" xlink:href="#ArialMT-72"/>
      <use x="1222.8515625" xlink:href="#ArialMT-65"/>
      <use x="1278.46679688" xlink:href="#ArialMT-64"/>
      <use x="1334.08203125" xlink:href="#ArialMT-69"/>
      <use x="1356.29882812" xlink:href="#ArialMT-63"/>
      <use x="1406.29882812" xlink:href="#ArialMT-74"/>
      <use x="1434.08203125" xlink:href="#ArialMT-6f"/>
      <use x="1489.69726562" xlink:href="#ArialMT-72"/>
      <use x="1522.99804688" xlink:href="#ArialMT-73"/>
     </g>
    </g>
   </g>
   <g id="matplotlib.axis_2">
    <g id="ytick_1">
     <g id="line2d_22">
      <path clip-path="url(#p88a5be353f)" d="
M56.05 236
L336.942 236" style="fill:none;stroke:#ffffff;stroke-linecap:round;"/>
     </g>
     <g id="line2d_23">
      <g>
       <use style="fill:#262626;stroke:#262626;" x="56.05" xlink:href="#m219da94a98" y="236.0"/>
      </g>
     </g>
     <g id="line2d_24">
      <g>
       <use style="fill:#262626;stroke:#262626;" x="336.941796875" xlink:href="#m219da94a98" y="236.0"/>
      </g>
     </g>
     <g id="text_9">
      <!-- 63 -->
      <defs>
       <path d="
M4.20312 18.8906
L12.9844 20.0625
Q14.5 12.5938 18.1406 9.29688
Q21.7812 6 27 6
Q33.2031 6 37.4688 10.2969
Q41.75 14.5938 41.75 20.9531
Q41.75 27 37.7969 30.9219
Q33.8438 34.8594 27.7344 34.8594
Q25.25 34.8594 21.5312 33.8906
L22.5156 41.6094
Q23.3906 41.5 23.9219 41.5
Q29.5469 41.5 34.0312 44.4219
Q38.5312 47.3594 38.5312 53.4688
Q38.5312 58.2969 35.25 61.4688
Q31.9844 64.6562 26.8125 64.6562
Q21.6875 64.6562 18.2656 61.4219
Q14.8438 58.2031 13.875 51.7656
L5.07812 53.3281
Q6.6875 62.1562 12.3906 67.0156
Q18.1094 71.875 26.6094 71.875
Q32.4688 71.875 37.3906 69.3594
Q42.3281 66.8438 44.9375 62.5
Q47.5625 58.1562 47.5625 53.2656
Q47.5625 48.6406 45.0625 44.8281
Q42.5781 41.0156 37.7031 38.7656
Q44.0469 37.3125 47.5625 32.6875
Q51.0781 28.0781 51.0781 21.1406
Q51.0781 11.7656 44.2344 5.25
Q37.4062 -1.26562 26.9531 -1.26562
Q17.5312 -1.26562 11.2969 4.34375
Q5.07812 9.96875 4.20312 18.8906" id="ArialMT-33"/>
      </defs>
      <g style="fill:#262626;" transform="translate(38.7578125 238.58515625)scale(0.1 -0.1)">
       <use xlink:href="#ArialMT-36"/>
       <use x="55.615234375" xlink:href="#ArialMT-33"/>
      </g>
     </g>
    </g>
    <g id="ytick_2">
     <g id="line2d_25">
      <path clip-path="url(#p88a5be353f)" d="
M56.05 211.562
L336.942 211.562" style="fill:none;stroke:#ffffff;stroke-linecap:round;"/>
     </g>
     <g id="line2d_26">
      <g>
       <use style="fill:#262626;stroke:#262626;" x="56.05" xlink:href="#m219da94a98" y="211.5625"/>
      </g>
     </g>
     <g id="line2d_27">
      <g>
       <use style="fill:#262626;stroke:#262626;" x="336.941796875" xlink:href="#m219da94a98" y="211.5625"/>
      </g>
     </g>
     <g id="text_10">
      <!-- 64 -->
      <g style="fill:#262626;" transform="translate(38.7875 214.14765625)scale(0.1 -0.1)">
       <use xlink:href="#ArialMT-36"/>
       <use x="55.615234375" xlink:href="#ArialMT-34"/>
      </g>
     </g>
    </g>
    <g id="ytick_3">
     <g id="line2d_28">
      <path clip-path="url(#p88a5be353f)" d="
M56.05 187.125
L336.942 187.125" style="fill:none;stroke:#ffffff;stroke-linecap:round;"/>
     </g>
     <g id="line2d_29">
      <g>
       <use style="fill:#262626;stroke:#262626;" x="56.05" xlink:href="#m219da94a98" y="187.125"/>
      </g>
     </g>
     <g id="line2d_30">
      <g>
       <use style="fill:#262626;stroke:#262626;" x="336.941796875" xlink:href="#m219da94a98" y="187.125"/>
      </g>
     </g>
     <g id="text_11">
      <!-- 65 -->
      <defs>
       <path d="
M4.15625 18.75
L13.375 19.5312
Q14.4062 12.7969 18.1406 9.39062
Q21.875 6 27.1562 6
Q33.5 6 37.8906 10.7812
Q42.2812 15.5781 42.2812 23.4844
Q42.2812 31 38.0625 35.3438
Q33.8438 39.7031 27 39.7031
Q22.75 39.7031 19.3281 37.7656
Q15.9219 35.8438 13.9688 32.7656
L5.71875 33.8438
L12.6406 70.6094
L48.25 70.6094
L48.25 62.2031
L19.6719 62.2031
L15.8281 42.9688
Q22.2656 47.4688 29.3438 47.4688
Q38.7188 47.4688 45.1562 40.9688
Q51.6094 34.4688 51.6094 24.2656
Q51.6094 14.5469 45.9531 7.46875
Q39.0625 -1.21875 27.1562 -1.21875
Q17.3906 -1.21875 11.2031 4.25
Q5.03125 9.71875 4.15625 18.75" id="ArialMT-35"/>
      </defs>
      <g style="fill:#262626;" transform="translate(38.7046875 189.71015625)scale(0.1 -0.1)">
       <use xlink:href="#ArialMT-36"/>
       <use x="55.615234375" xlink:href="#ArialMT-35"/>
      </g>
     </g>
    </g>
    <g id="ytick_4">
     <g id="line2d_31">
      <path clip-path="url(#p88a5be353f)" d="
M56.05 162.688
L336.942 162.688" style="fill:none;stroke:#ffffff;stroke-linecap:round;"/>
     </g>
     <g id="line2d_32">
      <g>
       <use style="fill:#262626;stroke:#262626;" x="56.05" xlink:href="#m219da94a98" y="162.6875"/>
      </g>
     </g>
     <g id="line2d_33">
      <g>
       <use style="fill:#262626;stroke:#262626;" x="336.941796875" xlink:href="#m219da94a98" y="162.6875"/>
      </g>
     </g>
     <g id="text_12">
      <!-- 66 -->
      <g style="fill:#262626;" transform="translate(38.7625 165.27265625)scale(0.1 -0.1)">
       <use xlink:href="#ArialMT-36"/>
       <use x="55.615234375" xlink:href="#ArialMT-36"/>
      </g>
     </g>
    </g>
    <g id="ytick_5">
     <g id="line2d_34">
      <path clip-path="url(#p88a5be353f)" d="
M56.05 138.25
L336.942 138.25" style="fill:none;stroke:#ffffff;stroke-linecap:round;"/>
     </g>
     <g id="line2d_35">
      <g>
       <use style="fill:#262626;stroke:#262626;" x="56.05" xlink:href="#m219da94a98" y="138.25"/>
      </g>
     </g>
     <g id="line2d_36">
      <g>
       <use style="fill:#262626;stroke:#262626;" x="336.941796875" xlink:href="#m219da94a98" y="138.25"/>
      </g>
     </g>
     <g id="text_13">
      <!-- 67 -->
      <defs>
       <path d="
M4.73438 62.2031
L4.73438 70.6562
L51.0781 70.6562
L51.0781 63.8125
Q44.2344 56.5469 37.5156 44.4844
Q30.8125 32.4219 27.1562 19.6719
Q24.5156 10.6875 23.7812 0
L14.75 0
Q14.8906 8.45312 18.0625 20.4062
Q21.2344 32.375 27.1719 43.4844
Q33.1094 54.5938 39.7969 62.2031
z
" id="ArialMT-37"/>
      </defs>
      <g style="fill:#262626;" transform="translate(38.7578125 140.83515625)scale(0.1 -0.1)">
       <use xlink:href="#ArialMT-36"/>
       <use x="55.615234375" xlink:href="#ArialMT-37"/>
      </g>
     </g>
    </g>
    <g id="ytick_6">
     <g id="line2d_37">
      <path clip-path="url(#p88a5be353f)" d="
M56.05 113.812
L336.942 113.812" style="fill:none;stroke:#ffffff;stroke-linecap:round;"/>
     </g>
     <g id="line2d_38">
      <g>
       <use style="fill:#262626;stroke:#262626;" x="56.05" xlink:href="#m219da94a98" y="113.8125"/>
      </g>
     </g>
     <g id="line2d_39">
      <g>
       <use style="fill:#262626;stroke:#262626;" x="336.941796875" xlink:href="#m219da94a98" y="113.8125"/>
      </g>
     </g>
     <g id="text_14">
      <!-- 68 -->
      <g style="fill:#262626;" transform="translate(38.74375 116.39765625)scale(0.1 -0.1)">
       <use xlink:href="#ArialMT-36"/>
       <use x="55.615234375" xlink:href="#ArialMT-38"/>
      </g>
     </g>
    </g>
    <g id="ytick_7">
     <g id="line2d_40">
      <path clip-path="url(#p88a5be353f)" d="
M56.05 89.375
L336.942 89.375" style="fill:none;stroke:#ffffff;stroke-linecap:round;"/>
     </g>
     <g id="line2d_41">
      <g>
       <use style="fill:#262626;stroke:#262626;" x="56.05" xlink:href="#m219da94a98" y="89.375"/>
      </g>
     </g>
     <g id="line2d_42">
      <g>
       <use style="fill:#262626;stroke:#262626;" x="336.941796875" xlink:href="#m219da94a98" y="89.375"/>
      </g>
     </g>
     <g id="text_15">
      <!-- 69 -->
      <defs>
       <path d="
M5.46875 16.5469
L13.9219 17.3281
Q14.9844 11.375 18.0156 8.6875
Q21.0469 6 25.7812 6
Q29.8281 6 32.875 7.85938
Q35.9375 9.71875 37.8906 12.8125
Q39.8438 15.9219 41.1562 21.1875
Q42.4844 26.4688 42.4844 31.9375
Q42.4844 32.5156 42.4375 33.6875
Q39.7969 29.5 35.2344 26.875
Q30.6719 24.2656 25.3438 24.2656
Q16.4531 24.2656 10.2969 30.7031
Q4.15625 37.1562 4.15625 47.7031
Q4.15625 58.5938 10.5781 65.2344
Q17 71.875 26.6562 71.875
Q33.6406 71.875 39.4219 68.1094
Q45.2188 64.3594 48.2188 57.3906
Q51.2188 50.4375 51.2188 37.25
Q51.2188 23.5312 48.2344 15.4062
Q45.2656 7.28125 39.375 3.03125
Q33.5 -1.21875 25.5938 -1.21875
Q17.1875 -1.21875 11.8594 3.4375
Q6.54688 8.10938 5.46875 16.5469
M41.4531 48.1406
Q41.4531 55.7188 37.4219 60.1562
Q33.4062 64.5938 27.7344 64.5938
Q21.875 64.5938 17.5312 59.8125
Q13.1875 55.0312 13.1875 47.4062
Q13.1875 40.5781 17.3125 36.2969
Q21.4375 32.0312 27.4844 32.0312
Q33.5938 32.0312 37.5156 36.2969
Q41.4531 40.5781 41.4531 48.1406" id="ArialMT-39"/>
      </defs>
      <g style="fill:#262626;" transform="translate(38.74375 91.96015625)scale(0.1 -0.1)">
       <use xlink:href="#ArialMT-36"/>
       <use x="55.615234375" xlink:href="#ArialMT-39"/>
      </g>
     </g>
    </g>
    <g id="ytick_8">
     <g id="line2d_43">
      <path clip-path="url(#p88a5be353f)" d="
M56.05 64.9375
L336.942 64.9375" style="fill:none;stroke:#ffffff;stroke-linecap:round;"/>
     </g>
     <g id="line2d_44">
      <g>
       <use style="fill:#262626;stroke:#262626;" x="56.05" xlink:href="#m219da94a98" y="64.9375"/>
      </g>
     </g>
     <g id="line2d_45">
      <g>
       <use style="fill:#262626;stroke:#262626;" x="336.941796875" xlink:href="#m219da94a98" y="64.9375"/>
      </g>
     </g>
     <g id="text_16">
      <!-- 70 -->
      <g style="fill:#262626;" transform="translate(38.8796875 67.52265625)scale(0.1 -0.1)">
       <use xlink:href="#ArialMT-37"/>
       <use x="55.615234375" xlink:href="#ArialMT-30"/>
      </g>
     </g>
    </g>
    <g id="ytick_9">
     <g id="line2d_46">
      <path clip-path="url(#p88a5be353f)" d="
M56.05 40.5
L336.942 40.5" style="fill:none;stroke:#ffffff;stroke-linecap:round;"/>
     </g>
     <g id="line2d_47">
      <g>
       <use style="fill:#262626;stroke:#262626;" x="56.05" xlink:href="#m219da94a98" y="40.5"/>
      </g>
     </g>
     <g id="line2d_48">
      <g>
       <use style="fill:#262626;stroke:#262626;" x="336.941796875" xlink:href="#m219da94a98" y="40.5"/>
      </g>
     </g>
     <g id="text_17">
      <!-- 71 -->
      <g style="fill:#262626;" transform="translate(40.2375 43.08515625)scale(0.1 -0.1)">
       <use xlink:href="#ArialMT-37"/>
       <use x="55.615234375" xlink:href="#ArialMT-31"/>
      </g>
     </g>
    </g>
    <g id="text_18">
     <!-- Prediction accuracy (%) -->
     <defs>
      <path d="
M6.59375 0
L6.59375 51.8594
L14.5 51.8594
L14.5 44.4844
Q20.2188 53.0312 31 53.0312
Q35.6875 53.0312 39.625 51.3438
Q43.5625 49.6562 45.5156 46.9219
Q47.4688 44.1875 48.25 40.4375
Q48.7344 37.9844 48.7344 31.8906
L48.7344 0
L39.9375 0
L39.9375 31.5469
Q39.9375 36.9219 38.9062 39.5781
Q37.8906 42.2344 35.2812 43.8125
Q32.6719 45.4062 29.1562 45.4062
Q23.5312 45.4062 19.4531 41.8438
Q15.375 38.2812 15.375 28.3281
L15.375 0
z
" id="ArialMT-6e"/>
      <path d="
M6.20312 -19.9688
L5.21875 -11.7188
Q8.10938 -12.5 10.25 -12.5
Q13.1875 -12.5 14.9375 -11.5156
Q16.7031 -10.5469 17.8281 -8.79688
Q18.6562 -7.46875 20.5156 -2.25
Q20.75 -1.51562 21.2969 -0.09375
L1.60938 51.8594
L11.0781 51.8594
L21.875 21.8281
Q23.9688 16.1094 25.6406 9.8125
Q27.1562 15.875 29.25 21.625
L40.3281 51.8594
L49.125 51.8594
L29.3906 -0.875
Q26.2188 -9.42188 24.4688 -12.6406
Q22.125 -17 19.0938 -19.0156
Q16.0625 -21.0469 11.8594 -21.0469
Q9.32812 -21.0469 6.20312 -19.9688" id="ArialMT-79"/>
      <path d="
M7.71875 0
L7.71875 71.5781
L34.7188 71.5781
Q41.8438 71.5781 45.6094 70.9062
Q50.875 70.0156 54.4375 67.5469
Q58.0156 65.0938 60.1875 60.6406
Q62.3594 56.2031 62.3594 50.875
Q62.3594 41.75 56.5469 35.4219
Q50.7344 29.1094 35.5469 29.1094
L17.1875 29.1094
L17.1875 0
z

M17.1875 37.5469
L35.6875 37.5469
Q44.875 37.5469 48.7344 40.9688
Q52.5938 44.3906 52.5938 50.5938
Q52.5938 55.0781 50.3125 58.2656
Q48.0469 61.4688 44.3438 62.5
Q41.9375 63.1406 35.5 63.1406
L17.1875 63.1406
z
" id="ArialMT-50"/>
      <path d="
M12.3594 -21.0469
L6.0625 -21.0469
Q20.6562 2.39062 20.6562 25.875
Q20.6562 35.0625 18.5625 44.0938
Q16.8906 51.4219 13.9219 58.1562
Q12.0156 62.5469 6.0625 72.7969
L12.3594 72.7969
Q21.5312 60.5469 25.9219 48.1875
Q29.6875 37.5469 29.6875 25.9219
Q29.6875 12.75 24.625 0.4375
Q19.5781 -11.8594 12.3594 -21.0469" id="ArialMT-29"/>
      <path d="
M23.3906 -21.0469
Q16.1094 -11.8594 11.0781 0.4375
Q6.0625 12.75 6.0625 25.9219
Q6.0625 37.5469 9.8125 48.1875
Q14.2031 60.5469 23.3906 72.7969
L29.6875 72.7969
Q23.7812 62.6406 21.875 58.2969
Q18.8906 51.5625 17.1875 44.2344
Q15.0938 35.1094 15.0938 25.875
Q15.0938 2.39062 29.6875 -21.0469
z
" id="ArialMT-28"/>
      <path d="
M5.8125 54.3906
Q5.8125 62.0625 9.67188 67.4219
Q13.5312 72.7969 20.8438 72.7969
Q27.5938 72.7969 32 67.9844
Q36.4219 63.1875 36.4219 53.8594
Q36.4219 44.7812 31.9531 39.875
Q27.4844 34.9688 20.9531 34.9688
Q14.4531 34.9688 10.125 39.7969
Q5.8125 44.625 5.8125 54.3906
M21.0938 66.75
Q17.8281 66.75 15.6562 63.9062
Q13.4844 61.0781 13.4844 53.5156
Q13.4844 46.625 15.6719 43.8125
Q17.875 41.0156 21.0938 41.0156
Q24.4219 41.0156 26.5938 43.8438
Q28.7656 46.6875 28.7656 54.2031
Q28.7656 61.1406 26.5625 63.9375
Q24.3594 66.75 21.0938 66.75
M21.1406 -2.64062
L60.2969 72.7969
L67.4375 72.7969
L28.4219 -2.64062
z

M52.0938 16.7969
Q52.0938 24.5156 55.9531 29.8594
Q59.8125 35.2031 67.1875 35.2031
Q73.9219 35.2031 78.3438 30.3906
Q82.7656 25.5938 82.7656 16.2656
Q82.7656 7.17188 78.2969 2.26562
Q73.8281 -2.64062 67.2344 -2.64062
Q60.75 -2.64062 56.4219 2.21875
Q52.0938 7.07812 52.0938 16.7969
M67.4375 29.1562
Q64.1094 29.1562 61.9375 26.3125
Q59.7656 23.4844 59.7656 15.9219
Q59.7656 9.07812 61.9531 6.25
Q64.1562 3.42188 67.3906 3.42188
Q70.75 3.42188 72.9219 6.25
Q75.0938 9.07812 75.0938 16.6094
Q75.0938 23.5312 72.8906 26.3438
Q70.7031 29.1562 67.4375 29.1562" id="ArialMT-25"/>
     </defs>
     <g style="fill:#262626;" transform="translate(30.3371875 222.43)rotate(-90.0)scale(0.16 -0.16)">
      <use xlink:href="#ArialMT-50"/>
      <use x="66.69921875" xlink:href="#ArialMT-72"/>
      <use x="100.0" xlink:href="#ArialMT-65"/>
      <use x="155.615234375" xlink:href="#ArialMT-64"/>
      <use x="211.23046875" xlink:href="#ArialMT-69"/>
      <use x="233.447265625" xlink:href="#ArialMT-63"/>
      <use x="283.447265625" xlink:href="#ArialMT-74"/>
      <use x="311.23046875" xlink:href="#ArialMT-69"/>
      <use x="333.447265625" xlink:href="#ArialMT-6f"/>
      <use x="389.0625" xlink:href="#ArialMT-6e"/>
      <use x="444.677734375" xlink:href="#ArialMT-20"/>
      <use x="472.4609375" xlink:href="#ArialMT-61"/>
      <use x="528.076171875" xlink:href="#ArialMT-63"/>
      <use x="578.076171875" xlink:href="#ArialMT-63"/>
      <use x="628.076171875" xlink:href="#ArialMT-75"/>
      <use x="683.69140625" xlink:href="#ArialMT-72"/>
      <use x="716.9921875" xlink:href="#ArialMT-61"/>
      <use x="772.607421875" xlink:href="#ArialMT-63"/>
      <use x="822.607421875" xlink:href="#ArialMT-79"/>
      <use x="872.607421875" xlink:href="#ArialMT-20"/>
      <use x="900.390625" xlink:href="#ArialMT-28"/>
      <use x="933.69140625" xlink:href="#ArialMT-25"/>
      <use x="1022.60742188" xlink:href="#ArialMT-29"/>
     </g>
    </g>
   </g>
   <g id="line2d_49">
    <path clip-path="url(#p88a5be353f)" d="
M57.6038 289
L58.0708 210.732
L60.0916 189.886
L62.1124 181.616
L64.1332 167.606
L68.1748 163.574
L70.1956 163.574
L72.2164 162.685
L74.2372 157.969
L76.258 150.383
L78.2788 147.991
L80.2997 151.408
L82.3205 151.818
L84.3413 151.066
L86.3621 152.023
L88.3829 150.656
L90.4037 151.271
L92.4245 148.332
L94.4453 145.804
L96.4661 143.685
L98.4869 142.182
L100.508 145.599
L102.528 143.89
L104.549 146.146
L106.57 146.351
L108.591 144.642
L110.612 143.617
L112.633 140.815
L114.653 142.387
L116.674 142.182
L118.695 145.941
L120.716 147.102
L122.737 142.523
L124.757 145.531
L126.778 141.703
L128.799 149.426
L130.82 147.171
L132.841 147.102
L134.861 146.009
L136.882 143.48
L138.903 146.146
L140.924 147.376
L142.945 149.563
L144.965 147.581
L146.986 149.016
L149.007 145.599
L151.028 143.822
L153.049 144.984
L155.069 145.121
L157.09 143.549
L159.111 146.898
L161.132 143.685
L163.153 142.318
L165.173 141.43
L167.194 143.891
L169.215 144.506
L171.236 143.002
L173.257 141.772
L175.277 141.977
L177.298 138.355
L179.319 136.373
L181.34 141.567
L183.361 140.883
L185.381 137.808
L187.402 141.362
L189.423 139.379
L191.444 139.858
L195.485 137.466
L197.506 137.671
L199.527 139.174
L201.548 139.243
L203.569 142.387
L205.59 139.926
L207.61 137.808
L209.631 141.703
L211.652 141.02
L213.673 141.498
L215.694 137.808
L217.714 138.286
L219.735 137.739
L221.756 137.534
L223.777 139.585
L225.798 141.362
L227.818 141.088
L229.839 135.689
L231.86 137.671
L233.881 139.106
L235.902 139.243
L237.922 139.175
L239.943 140.131
L241.964 140.131
L243.985 139.038
L246.006 134.595
L248.026 136.646
L250.047 135.689
L252.068 137.329
L254.089 137.124
L256.11 137.739
L258.13 137.397
L260.151 134.185
L262.172 134.049
L266.214 135.552
L270.255 133.775
L272.276 134.39
L274.297 134.459
L276.318 135.211
L278.338 136.714
L280.359 137.397
L282.38 137.602
L284.401 136.851
L286.422 135.347
L288.442 135.142
L290.463 135.074
L292.484 134.459
L294.505 132.203
L296.526 131.178
L298.547 131.588
L300.567 133.707
L302.588 133.638
L304.609 134.458
L306.63 138.286
L308.651 137.193
L310.671 136.646
L312.692 136.577
L314.713 135.825
L316.734 137.602
L318.755 136.714
L320.775 137.192
L322.796 134.732
L324.817 136.03
L326.838 134.048
L328.859 134.254
L330.879 135.415
L334.921 135.074
L336.942 134.732
L338.963 135.074
L338.963 135.074" style="fill:none;stroke:#b24d4e;stroke-linecap:round;stroke-width:2;"/>
   </g>
   <g id="line2d_50">
    <path clip-path="url(#p88a5be353f)" d="
M57.4426 289
L58.0708 169.585
L62.1124 121.812
L64.1332 112.04
L66.154 111.944
L68.1748 107.893
L70.1956 102.63
L72.2164 106.901
L74.2372 113.032
L76.258 110.191
L78.2788 103.246
L80.2997 99.5993
L82.3205 105.728
L84.3413 102.423
L86.3621 106.264
L88.3829 104.855
L90.4037 102.066
L92.4245 102.832
L94.4453 106.466
L96.4661 110.611
L98.4869 98.4976
L100.508 101.66
L102.528 112.384
L104.549 107.229
L106.57 100.247
L108.591 96.7349
L110.612 94.0306
L112.633 89.1783
L114.653 92.6278
L116.674 91.0417
L118.695 100.981
L120.716 93.898
L122.737 91.2613
L124.757 106.872
L126.778 106.292
L128.799 106.611
L130.82 109.107
L132.841 95.815
L134.861 102.914
L136.882 89.6242
L138.903 105.497
L140.924 98.2003
L142.945 96.5382
L144.965 104.484
L146.986 103.006
L149.007 111.561
L151.028 92.8909
L153.049 90.9536
L155.069 98.6859
L157.09 90.3415
L159.111 96.6417
L161.132 97.7865
L163.153 90.03
L165.173 95.0755
L167.194 92.3526
L169.215 97.8614
L171.236 93.0199
L173.257 82.3696
L175.277 94.7173
L177.298 91.1403
L179.319 71.2019
L181.34 89.063
L183.361 88.0195
L185.381 90.7287
L187.402 93.6521
L189.423 86.2327
L191.444 79.4958
L193.465 88.3094
L195.485 74.0542
L197.506 79.7386
L199.527 87.6979
L201.548 91.257
L203.569 78.5076
L205.59 75.1564
L207.61 82.2146
L209.631 86.8473
L211.652 93.2417
L213.673 95.4805
L215.694 76.8705
L217.714 77.3469
L219.735 75.0262
L221.756 74.902
L223.777 88.9412
L225.798 91.8217
L227.818 84.6453
L229.839 79.8568
L231.86 84.5473
L233.881 88.3422
L235.902 93.3506
L237.922 77.9913
L239.943 71.8714
L241.964 71.51
L243.985 75.2653
L246.006 74.4805
L248.026 80.1534
L250.047 74.5391
L252.068 73.5868
L254.089 73.5266
L256.11 83.0158
L258.13 89.397
L260.151 92.0921
L262.172 88.4507
L264.193 83.6892
L266.214 82.4326
L268.234 80.4514
L270.255 81.0435
L272.276 80.9516
L274.297 88.4375
L276.318 86.3678
L278.338 73.6768
L280.359 77.8944
L282.38 79.879
L284.401 74.8685
L286.422 79.0699
L288.442 79.6411
L290.463 76.1834
L292.484 71.8425
L294.505 70.2267
L296.526 69.3825
L298.547 74.2079
L300.567 78.4611
L302.588 81.1722
L304.609 77.8139
L306.63 84.1592
L308.651 81.2877
L310.671 85.5202
L312.692 84.1885
L314.713 81.0333
L316.734 85.3706
L318.755 75.0889
L320.775 76.4087
L322.796 72.2046
L324.817 71.4789
L326.838 70.0141
L328.859 71.6269
L330.879 68.712
L332.9 74.3293
L334.921 68.7445
L336.942 72.9499
L338.963 68.6168
L338.963 68.6168" style="fill:none;stroke:#577b97;stroke-linecap:round;stroke-width:2;"/>
   </g>
   <g id="line2d_51">
    <path clip-path="url(#p88a5be353f)" d="
M56.05 144.779
L367.254 144.779" style="fill:none;stroke:#b24d4e;stroke-dasharray:6.000000,6.000000;stroke-dashoffset:0.0;stroke-width:2;"/>
   </g>
   <g id="line2d_52">
    <path clip-path="url(#p88a5be353f)" d="
M56.05 65.251
L367.254 65.251" style="fill:none;stroke:#577b97;stroke-dasharray:6.000000,6.000000;stroke-dashoffset:0.0;stroke-width:2;"/>
   </g>
   <g id="patch_3">
    <path d="
M56.05 40.5
L336.942 40.5" style="fill:none;"/>
   </g>
   <g id="patch_4">
    <path d="
M336.942 236
L336.942 40.5" style="fill:none;"/>
   </g>
   <g id="patch_5">
    <path d="
M56.05 236
L336.942 236" style="fill:none;"/>
   </g>
   <g id="patch_6">
    <path d="
M56.05 236
L56.05 40.5" style="fill:none;"/>
   </g>
   <g id="legend_1">
    <g id="line2d_53">
     <path d="
M117.833 169.719
L140.833 169.719" style="fill:none;stroke:#b24d4e;stroke-linecap:round;stroke-width:2;"/>
    </g>
    <g id="line2d_54"/>
    <g id="text_19">
     <!-- Agglomerated set -->
     <defs>
      <path d="
M-0.140625 0
L27.3438 71.5781
L37.5469 71.5781
L66.8438 0
L56.0625 0
L47.7031 21.6875
L17.7812 21.6875
L9.90625 0
z

M20.5156 29.3906
L44.7812 29.3906
L37.3125 49.2188
Q33.8906 58.25 32.2344 64.0625
Q30.8594 57.1719 28.375 50.3906
z
" id="ArialMT-41"/>
     </defs>
     <g style="fill:#262626;" transform="translate(150.03265625 173.743671875)scale(0.115 -0.115)">
      <use xlink:href="#ArialMT-41"/>
      <use x="66.69921875" xlink:href="#ArialMT-67"/>
      <use x="122.314453125" xlink:href="#ArialMT-67"/>
      <use x="177.9296875" xlink:href="#ArialMT-6c"/>
      <use x="200.146484375" xlink:href="#ArialMT-6f"/>
      <use x="255.76171875" xlink:href="#ArialMT-6d"/>
      <use x="339.0625" xlink:href="#ArialMT-65"/>
      <use x="394.677734375" xlink:href="#ArialMT-72"/>
      <use x="427.978515625" xlink:href="#ArialMT-61"/>
      <use x="483.59375" xlink:href="#ArialMT-74"/>
      <use x="511.376953125" xlink:href="#ArialMT-65"/>
      <use x="566.9921875" xlink:href="#ArialMT-64"/>
      <use x="622.607421875" xlink:href="#ArialMT-20"/>
      <use x="650.390625" xlink:href="#ArialMT-73"/>
      <use x="700.390625" xlink:href="#ArialMT-65"/>
      <use x="756.005859375" xlink:href="#ArialMT-74"/>
     </g>
    </g>
    <g id="line2d_55">
     <path d="
M117.833 186.261
L140.833 186.261" style="fill:none;stroke:#577b97;stroke-linecap:round;stroke-width:2;"/>
    </g>
    <g id="line2d_56"/>
    <g id="text_20">
     <!-- Agglomerated set (≥20 subreddits) -->
     <defs>
      <path d="
M51.1719 37.2031
L3.76562 16.9375
L3.76562 25.6875
L41.3125 41.2656
L3.76562 56.6406
L3.76562 65.4375
L51.1719 45.4062
z

M51.0781 5.17188
L3.8125 5.17188
L3.8125 13.3281
L51.0781 13.3281
z
" id="ArialMT-2265"/>
     </defs>
     <g style="fill:#262626;" transform="translate(150.03265625 190.285703125)scale(0.115 -0.115)">
      <use xlink:href="#ArialMT-41"/>
      <use x="66.69921875" xlink:href="#ArialMT-67"/>
      <use x="122.314453125" xlink:href="#ArialMT-67"/>
      <use x="177.9296875" xlink:href="#ArialMT-6c"/>
      <use x="200.146484375" xlink:href="#ArialMT-6f"/>
      <use x="255.76171875" xlink:href="#ArialMT-6d"/>
      <use x="339.0625" xlink:href="#ArialMT-65"/>
      <use x="394.677734375" xlink:href="#ArialMT-72"/>
      <use x="427.978515625" xlink:href="#ArialMT-61"/>
      <use x="483.59375" xlink:href="#ArialMT-74"/>
      <use x="511.376953125" xlink:href="#ArialMT-65"/>
      <use x="566.9921875" xlink:href="#ArialMT-64"/>
      <use x="622.607421875" xlink:href="#ArialMT-20"/>
      <use x="650.390625" xlink:href="#ArialMT-73"/>
      <use x="700.390625" xlink:href="#ArialMT-65"/>
      <use x="756.005859375" xlink:href="#ArialMT-74"/>
      <use x="783.7890625" xlink:href="#ArialMT-20"/>
      <use x="811.572265625" xlink:href="#ArialMT-28"/>
      <use x="844.873046875" xlink:href="#ArialMT-2265"/>
      <use x="899.755859375" xlink:href="#ArialMT-32"/>
      <use x="955.37109375" xlink:href="#ArialMT-30"/>
      <use x="1010.98632812" xlink:href="#ArialMT-20"/>
      <use x="1038.76953125" xlink:href="#ArialMT-73"/>
      <use x="1088.76953125" xlink:href="#ArialMT-75"/>
      <use x="1144.38476562" xlink:href="#ArialMT-62"/>
      <use x="1200.0" xlink:href="#ArialMT-72"/>
      <use x="1233.30078125" xlink:href="#ArialMT-65"/>
      <use x="1288.91601562" xlink:href="#ArialMT-64"/>
      <use x="1344.53125" xlink:href="#ArialMT-64"/>
      <use x="1400.14648438" xlink:href="#ArialMT-69"/>
      <use x="1422.36328125" xlink:href="#ArialMT-74"/>
      <use x="1450.14648438" xlink:href="#ArialMT-73"/>
      <use x="1500.14648438" xlink:href="#ArialMT-29"/>
     </g>
    </g>
    <g id="line2d_57">
     <path d="
M117.833 202.663
L140.833 202.663" style="fill:none;stroke:#b24d4e;stroke-dasharray:6.000000,6.000000;stroke-dashoffset:0.0;stroke-width:2;"/>
    </g>
    <g id="line2d_58"/>
    <g id="text_21">
     <!-- No agglomeration -->
     <g style="fill:#262626;" transform="translate(150.03265625 206.687578125)scale(0.115 -0.115)">
      <use xlink:href="#ArialMT-4e"/>
      <use x="72.216796875" xlink:href="#ArialMT-6f"/>
      <use x="127.83203125" xlink:href="#ArialMT-20"/>
      <use x="155.615234375" xlink:href="#ArialMT-61"/>
      <use x="211.23046875" xlink:href="#ArialMT-67"/>
      <use x="266.845703125" xlink:href="#ArialMT-67"/>
      <use x="322.4609375" xlink:href="#ArialMT-6c"/>
      <use x="344.677734375" xlink:href="#ArialMT-6f"/>
      <use x="400.29296875" xlink:href="#ArialMT-6d"/>
      <use x="483.59375" xlink:href="#ArialMT-65"/>
      <use x="539.208984375" xlink:href="#ArialMT-72"/>
      <use x="572.509765625" xlink:href="#ArialMT-61"/>
      <use x="628.125" xlink:href="#ArialMT-74"/>
      <use x="655.908203125" xlink:href="#ArialMT-69"/>
      <use x="678.125" xlink:href="#ArialMT-6f"/>
      <use x="733.740234375" xlink:href="#ArialMT-6e"/>
     </g>
    </g>
    <g id="line2d_59">
     <path d="
M117.833 219.205
L140.833 219.205" style="fill:none;stroke:#577b97;stroke-dasharray:6.000000,6.000000;stroke-dashoffset:0.0;stroke-width:2;"/>
    </g>
    <g id="line2d_60"/>
    <g id="text_22">
     <!-- No agglomeration (≥20 subreddits) -->
     <g style="fill:#262626;" transform="translate(150.03265625 223.229609375)scale(0.115 -0.115)">
      <use xlink:href="#ArialMT-4e"/>
      <use x="72.216796875" xlink:href="#ArialMT-6f"/>
      <use x="127.83203125" xlink:href="#ArialMT-20"/>
      <use x="155.615234375" xlink:href="#ArialMT-61"/>
      <use x="211.23046875" xlink:href="#ArialMT-67"/>
      <use x="266.845703125" xlink:href="#ArialMT-67"/>
      <use x="322.4609375" xlink:href="#ArialMT-6c"/>
      <use x="344.677734375" xlink:href="#ArialMT-6f"/>
      <use x="400.29296875" xlink:href="#ArialMT-6d"/>
      <use x="483.59375" xlink:href="#ArialMT-65"/>
      <use x="539.208984375" xlink:href="#ArialMT-72"/>
      <use x="572.509765625" xlink:href="#ArialMT-61"/>
      <use x="628.125" xlink:href="#ArialMT-74"/>
      <use x="655.908203125" xlink:href="#ArialMT-69"/>
      <use x="678.125" xlink:href="#ArialMT-6f"/>
      <use x="733.740234375" xlink:href="#ArialMT-6e"/>
      <use x="789.35546875" xlink:href="#ArialMT-20"/>
      <use x="817.138671875" xlink:href="#ArialMT-28"/>
      <use x="850.439453125" xlink:href="#ArialMT-2265"/>
      <use x="905.322265625" xlink:href="#ArialMT-32"/>
      <use x="960.9375" xlink:href="#ArialMT-30"/>
      <use x="1016.55273438" xlink:href="#ArialMT-20"/>
      <use x="1044.3359375" xlink:href="#ArialMT-73"/>
      <use x="1094.3359375" xlink:href="#ArialMT-75"/>
      <use x="1149.95117188" xlink:href="#ArialMT-62"/>
      <use x="1205.56640625" xlink:href="#ArialMT-72"/>
      <use x="1238.8671875" xlink:href="#ArialMT-65"/>
      <use x="1294.48242188" xlink:href="#ArialMT-64"/>
      <use x="1350.09765625" xlink:href="#ArialMT-64"/>
      <use x="1405.71289062" xlink:href="#ArialMT-69"/>
      <use x="1427.9296875" xlink:href="#ArialMT-74"/>
      <use x="1455.71289062" xlink:href="#ArialMT-73"/>
      <use x="1505.71289062" xlink:href="#ArialMT-29"/>
     </g>
    </g>
   </g>
  </g>
  <g id="axes_2">
   <g id="patch_7">
    <path d="
M403.108 236
L684 236
L684 40.5
L403.108 40.5
z
" style="fill:#eaeaf2;"/>
   </g>
   <g id="matplotlib.axis_3">
    <g id="xtick_8">
     <g id="line2d_61">
      <path clip-path="url(#p499c049998)" d="
M441.503 236
L441.503 40.5" style="fill:none;stroke:#ffffff;stroke-linecap:round;"/>
     </g>
     <g id="line2d_62">
      <g>
       <use style="fill:#262626;stroke:#262626;" x="441.503484712" xlink:href="#m219da94a98" y="236.0"/>
      </g>
     </g>
     <g id="line2d_63">
      <g>
       <use style="fill:#262626;stroke:#262626;" x="441.503484712" xlink:href="#m219da94a98" y="40.5"/>
      </g>
     </g>
     <g id="text_23">
      <!-- 20 -->
      <g style="fill:#262626;" transform="translate(436.328484712 250.1578125)scale(0.1 -0.1)">
       <use xlink:href="#ArialMT-32"/>
       <use x="55.615234375" xlink:href="#ArialMT-30"/>
      </g>
     </g>
    </g>
    <g id="xtick_9">
     <g id="line2d_64">
      <path clip-path="url(#p499c049998)" d="
M481.92 236
L481.92 40.5" style="fill:none;stroke:#ffffff;stroke-linecap:round;"/>
     </g>
     <g id="line2d_65">
      <g>
       <use style="fill:#262626;stroke:#262626;" x="481.919570594" xlink:href="#m219da94a98" y="236.0"/>
      </g>
     </g>
     <g id="line2d_66">
      <g>
       <use style="fill:#262626;stroke:#262626;" x="481.919570594" xlink:href="#m219da94a98" y="40.5"/>
      </g>
     </g>
     <g id="text_24">
      <!-- 40 -->
      <g style="fill:#262626;" transform="translate(476.660976844 250.1578125)scale(0.1 -0.1)">
       <use xlink:href="#ArialMT-34"/>
       <use x="55.615234375" xlink:href="#ArialMT-30"/>
      </g>
     </g>
    </g>
    <g id="xtick_10">
     <g id="line2d_67">
      <path clip-path="url(#p499c049998)" d="
M522.336 236
L522.336 40.5" style="fill:none;stroke:#ffffff;stroke-linecap:round;"/>
     </g>
     <g id="line2d_68">
      <g>
       <use style="fill:#262626;stroke:#262626;" x="522.335656475" xlink:href="#m219da94a98" y="236.0"/>
      </g>
     </g>
     <g id="line2d_69">
      <g>
       <use style="fill:#262626;stroke:#262626;" x="522.335656475" xlink:href="#m219da94a98" y="40.5"/>
      </g>
     </g>
     <g id="text_25">
      <!-- 60 -->
      <g style="fill:#262626;" transform="translate(517.202062725 250.1578125)scale(0.1 -0.1)">
       <use xlink:href="#ArialMT-36"/>
       <use x="55.615234375" xlink:href="#ArialMT-30"/>
      </g>
     </g>
    </g>
    <g id="xtick_11">
     <g id="line2d_70">
      <path clip-path="url(#p499c049998)" d="
M562.752 236
L562.752 40.5" style="fill:none;stroke:#ffffff;stroke-linecap:round;"/>
     </g>
     <g id="line2d_71">
      <g>
       <use style="fill:#262626;stroke:#262626;" x="562.751742356" xlink:href="#m219da94a98" y="236.0"/>
      </g>
     </g>
     <g id="line2d_72">
      <g>
       <use style="fill:#262626;stroke:#262626;" x="562.751742356" xlink:href="#m219da94a98" y="40.5"/>
      </g>
     </g>
     <g id="text_26">
      <!-- 80 -->
      <g style="fill:#262626;" transform="translate(557.632211106 250.1578125)scale(0.1 -0.1)">
       <use xlink:href="#ArialMT-38"/>
       <use x="55.615234375" xlink:href="#ArialMT-30"/>
      </g>
     </g>
    </g>
    <g id="xtick_12">
     <g id="line2d_73">
      <path clip-path="url(#p499c049998)" d="
M603.168 236
L603.168 40.5" style="fill:none;stroke:#ffffff;stroke-linecap:round;"/>
     </g>
     <g id="line2d_74">
      <g>
       <use style="fill:#262626;stroke:#262626;" x="603.167828237" xlink:href="#m219da94a98" y="236.0"/>
      </g>
     </g>
     <g id="line2d_75">
      <g>
       <use style="fill:#262626;stroke:#262626;" x="603.167828237" xlink:href="#m219da94a98" y="40.5"/>
      </g>
     </g>
     <g id="text_27">
      <!-- 100 -->
      <g style="fill:#262626;" transform="translate(595.610015737 250.1578125)scale(0.1 -0.1)">
       <use xlink:href="#ArialMT-31"/>
       <use x="55.615234375" xlink:href="#ArialMT-30"/>
       <use x="111.23046875" xlink:href="#ArialMT-30"/>
      </g>
     </g>
    </g>
    <g id="xtick_13">
     <g id="line2d_76">
      <path clip-path="url(#p499c049998)" d="
M643.584 236
L643.584 40.5" style="fill:none;stroke:#ffffff;stroke-linecap:round;"/>
     </g>
     <g id="line2d_77">
      <g>
       <use style="fill:#262626;stroke:#262626;" x="643.583914119" xlink:href="#m219da94a98" y="236.0"/>
      </g>
     </g>
     <g id="line2d_78">
      <g>
       <use style="fill:#262626;stroke:#262626;" x="643.583914119" xlink:href="#m219da94a98" y="40.5"/>
      </g>
     </g>
     <g id="text_28">
      <!-- 120 -->
      <g style="fill:#262626;" transform="translate(636.026101619 250.1578125)scale(0.1 -0.1)">
       <use xlink:href="#ArialMT-31"/>
       <use x="55.615234375" xlink:href="#ArialMT-32"/>
       <use x="111.23046875" xlink:href="#ArialMT-30"/>
      </g>
     </g>
    </g>
    <g id="xtick_14">
     <g id="line2d_79">
      <path clip-path="url(#p499c049998)" d="
M684 236
L684 40.5" style="fill:none;stroke:#ffffff;stroke-linecap:round;"/>
     </g>
     <g id="line2d_80">
      <g>
       <use style="fill:#262626;stroke:#262626;" x="684.0" xlink:href="#m219da94a98" y="236.0"/>
      </g>
     </g>
     <g id="line2d_81">
      <g>
       <use style="fill:#262626;stroke:#262626;" x="684.0" xlink:href="#m219da94a98" y="40.5"/>
      </g>
     </g>
     <g id="text_29">
      <!-- 140 -->
      <g style="fill:#262626;" transform="translate(676.4421875 250.1578125)scale(0.1 -0.1)">
       <use xlink:href="#ArialMT-31"/>
       <use x="55.615234375" xlink:href="#ArialMT-34"/>
       <use x="111.23046875" xlink:href="#ArialMT-30"/>
      </g>
     </g>
    </g>
    <g id="text_30">
     <!-- Number of agglomerated predictors -->
     <g style="fill:#262626;" transform="translate(418.032851563 268.7928125)scale(0.16 -0.16)">
      <use xlink:href="#ArialMT-4e"/>
      <use x="72.216796875" xlink:href="#ArialMT-75"/>
      <use x="127.83203125" xlink:href="#ArialMT-6d"/>
      <use x="211.1328125" xlink:href="#ArialMT-62"/>
      <use x="266.748046875" xlink:href="#ArialMT-65"/>
      <use x="322.36328125" xlink:href="#ArialMT-72"/>
      <use x="355.6640625" xlink:href="#ArialMT-20"/>
      <use x="383.447265625" xlink:href="#ArialMT-6f"/>
      <use x="439.0625" xlink:href="#ArialMT-66"/>
      <use x="466.845703125" xlink:href="#ArialMT-20"/>
      <use x="494.62890625" xlink:href="#ArialMT-61"/>
      <use x="550.244140625" xlink:href="#ArialMT-67"/>
      <use x="605.859375" xlink:href="#ArialMT-67"/>
      <use x="661.474609375" xlink:href="#ArialMT-6c"/>
      <use x="683.69140625" xlink:href="#ArialMT-6f"/>
      <use x="739.306640625" xlink:href="#ArialMT-6d"/>
      <use x="822.607421875" xlink:href="#ArialMT-65"/>
      <use x="878.22265625" xlink:href="#ArialMT-72"/>
      <use x="911.5234375" xlink:href="#ArialMT-61"/>
      <use x="967.138671875" xlink:href="#ArialMT-74"/>
      <use x="994.921875" xlink:href="#ArialMT-65"/>
      <use x="1050.53710938" xlink:href="#ArialMT-64"/>
      <use x="1106.15234375" xlink:href="#ArialMT-20"/>
      <use x="1133.93554688" xlink:href="#ArialMT-70"/>
      <use x="1189.55078125" xlink:href="#ArialMT-72"/>
      <use x="1222.8515625" xlink:href="#ArialMT-65"/>
      <use x="1278.46679688" xlink:href="#ArialMT-64"/>
      <use x="1334.08203125" xlink:href="#ArialMT-69"/>
      <use x="1356.29882812" xlink:href="#ArialMT-63"/>
      <use x="1406.29882812" xlink:href="#ArialMT-74"/>
      <use x="1434.08203125" xlink:href="#ArialMT-6f"/>
      <use x="1489.69726562" xlink:href="#ArialMT-72"/>
      <use x="1522.99804688" xlink:href="#ArialMT-73"/>
     </g>
    </g>
   </g>
   <g id="matplotlib.axis_4">
    <g id="ytick_10">
     <g id="line2d_82">
      <path clip-path="url(#p499c049998)" d="
M403.108 236
L684 236" style="fill:none;stroke:#ffffff;stroke-linecap:round;"/>
     </g>
     <g id="line2d_83">
      <g>
       <use style="fill:#262626;stroke:#262626;" x="403.108203125" xlink:href="#m219da94a98" y="236.0"/>
      </g>
     </g>
     <g id="line2d_84">
      <g>
       <use style="fill:#262626;stroke:#262626;" x="684.0" xlink:href="#m219da94a98" y="236.0"/>
      </g>
     </g>
     <g id="text_31">
      <!-- 0.00 -->
      <defs>
       <path d="
M9.07812 0
L9.07812 10.0156
L19.0938 10.0156
L19.0938 0
z
" id="ArialMT-2e"/>
      </defs>
      <g style="fill:#262626;" transform="translate(377.541015625 238.58515625)scale(0.1 -0.1)">
       <use xlink:href="#ArialMT-30"/>
       <use x="55.615234375" xlink:href="#ArialMT-2e"/>
       <use x="83.3984375" xlink:href="#ArialMT-30"/>
       <use x="139.013671875" xlink:href="#ArialMT-30"/>
      </g>
     </g>
    </g>
    <g id="ytick_11">
     <g id="line2d_85">
      <path clip-path="url(#p499c049998)" d="
M403.108 214.278
L684 214.278" style="fill:none;stroke:#ffffff;stroke-linecap:round;"/>
     </g>
     <g id="line2d_86">
      <g>
       <use style="fill:#262626;stroke:#262626;" x="403.108203125" xlink:href="#m219da94a98" y="214.277777778"/>
      </g>
     </g>
     <g id="line2d_87">
      <g>
       <use style="fill:#262626;stroke:#262626;" x="684.0" xlink:href="#m219da94a98" y="214.277777778"/>
      </g>
     </g>
     <g id="text_32">
      <!-- 0.02 -->
      <g style="fill:#262626;" transform="translate(377.589453125 216.862934028)scale(0.1 -0.1)">
       <use xlink:href="#ArialMT-30"/>
       <use x="55.615234375" xlink:href="#ArialMT-2e"/>
       <use x="83.3984375" xlink:href="#ArialMT-30"/>
       <use x="139.013671875" xlink:href="#ArialMT-32"/>
      </g>
     </g>
    </g>
    <g id="ytick_12">
     <g id="line2d_88">
      <path clip-path="url(#p499c049998)" d="
M403.108 192.556
L684 192.556" style="fill:none;stroke:#ffffff;stroke-linecap:round;"/>
     </g>
     <g id="line2d_89">
      <g>
       <use style="fill:#262626;stroke:#262626;" x="403.108203125" xlink:href="#m219da94a98" y="192.555555556"/>
      </g>
     </g>
     <g id="line2d_90">
      <g>
       <use style="fill:#262626;stroke:#262626;" x="684.0" xlink:href="#m219da94a98" y="192.555555556"/>
      </g>
     </g>
     <g id="text_33">
      <!-- 0.04 -->
      <g style="fill:#262626;" transform="translate(377.545703125 195.140711806)scale(0.1 -0.1)">
       <use xlink:href="#ArialMT-30"/>
       <use x="55.615234375" xlink:href="#ArialMT-2e"/>
       <use x="83.3984375" xlink:href="#ArialMT-30"/>
       <use x="139.013671875" xlink:href="#ArialMT-34"/>
      </g>
     </g>
    </g>
    <g id="ytick_13">
     <g id="line2d_91">
      <path clip-path="url(#p499c049998)" d="
M403.108 170.833
L684 170.833" style="fill:none;stroke:#ffffff;stroke-linecap:round;"/>
     </g>
     <g id="line2d_92">
      <g>
       <use style="fill:#262626;stroke:#262626;" x="403.108203125" xlink:href="#m219da94a98" y="170.833333333"/>
      </g>
     </g>
     <g id="line2d_93">
      <g>
       <use style="fill:#262626;stroke:#262626;" x="684.0" xlink:href="#m219da94a98" y="170.833333333"/>
      </g>
     </g>
     <g id="text_34">
      <!-- 0.06 -->
      <g style="fill:#262626;" transform="translate(377.520703125 173.418489583)scale(0.1 -0.1)">
       <use xlink:href="#ArialMT-30"/>
       <use x="55.615234375" xlink:href="#ArialMT-2e"/>
       <use x="83.3984375" xlink:href="#ArialMT-30"/>
       <use x="139.013671875" xlink:href="#ArialMT-36"/>
      </g>
     </g>
    </g>
    <g id="ytick_14">
     <g id="line2d_94">
      <path clip-path="url(#p499c049998)" d="
M403.108 149.111
L684 149.111" style="fill:none;stroke:#ffffff;stroke-linecap:round;"/>
     </g>
     <g id="line2d_95">
      <g>
       <use style="fill:#262626;stroke:#262626;" x="403.108203125" xlink:href="#m219da94a98" y="149.111111111"/>
      </g>
     </g>
     <g id="line2d_96">
      <g>
       <use style="fill:#262626;stroke:#262626;" x="684.0" xlink:href="#m219da94a98" y="149.111111111"/>
      </g>
     </g>
     <g id="text_35">
      <!-- 0.08 -->
      <g style="fill:#262626;" transform="translate(377.501953125 151.696267361)scale(0.1 -0.1)">
       <use xlink:href="#ArialMT-30"/>
       <use x="55.615234375" xlink:href="#ArialMT-2e"/>
       <use x="83.3984375" xlink:href="#ArialMT-30"/>
       <use x="139.013671875" xlink:href="#ArialMT-38"/>
      </g>
     </g>
    </g>
    <g id="ytick_15">
     <g id="line2d_97">
      <path clip-path="url(#p499c049998)" d="
M403.108 127.389
L684 127.389" style="fill:none;stroke:#ffffff;stroke-linecap:round;"/>
     </g>
     <g id="line2d_98">
      <g>
       <use style="fill:#262626;stroke:#262626;" x="403.108203125" xlink:href="#m219da94a98" y="127.388888889"/>
      </g>
     </g>
     <g id="line2d_99">
      <g>
       <use style="fill:#262626;stroke:#262626;" x="684.0" xlink:href="#m219da94a98" y="127.388888889"/>
      </g>
     </g>
     <g id="text_36">
      <!-- 0.10 -->
      <g style="fill:#262626;" transform="translate(377.541015625 129.974045139)scale(0.1 -0.1)">
       <use xlink:href="#ArialMT-30"/>
       <use x="55.615234375" xlink:href="#ArialMT-2e"/>
       <use x="83.3984375" xlink:href="#ArialMT-31"/>
       <use x="139.013671875" xlink:href="#ArialMT-30"/>
      </g>
     </g>
    </g>
    <g id="ytick_16">
     <g id="line2d_100">
      <path clip-path="url(#p499c049998)" d="
M403.108 105.667
L684 105.667" style="fill:none;stroke:#ffffff;stroke-linecap:round;"/>
     </g>
     <g id="line2d_101">
      <g>
       <use style="fill:#262626;stroke:#262626;" x="403.108203125" xlink:href="#m219da94a98" y="105.666666667"/>
      </g>
     </g>
     <g id="line2d_102">
      <g>
       <use style="fill:#262626;stroke:#262626;" x="684.0" xlink:href="#m219da94a98" y="105.666666667"/>
      </g>
     </g>
     <g id="text_37">
      <!-- 0.12 -->
      <g style="fill:#262626;" transform="translate(377.589453125 108.251822917)scale(0.1 -0.1)">
       <use xlink:href="#ArialMT-30"/>
       <use x="55.615234375" xlink:href="#ArialMT-2e"/>
       <use x="83.3984375" xlink:href="#ArialMT-31"/>
       <use x="139.013671875" xlink:href="#ArialMT-32"/>
      </g>
     </g>
    </g>
    <g id="ytick_17">
     <g id="line2d_103">
      <path clip-path="url(#p499c049998)" d="
M403.108 83.9444
L684 83.9444" style="fill:none;stroke:#ffffff;stroke-linecap:round;"/>
     </g>
     <g id="line2d_104">
      <g>
       <use style="fill:#262626;stroke:#262626;" x="403.108203125" xlink:href="#m219da94a98" y="83.9444444444"/>
      </g>
     </g>
     <g id="line2d_105">
      <g>
       <use style="fill:#262626;stroke:#262626;" x="684.0" xlink:href="#m219da94a98" y="83.9444444444"/>
      </g>
     </g>
     <g id="text_38">
      <!-- 0.14 -->
      <g style="fill:#262626;" transform="translate(377.545703125 86.5296006944)scale(0.1 -0.1)">
       <use xlink:href="#ArialMT-30"/>
       <use x="55.615234375" xlink:href="#ArialMT-2e"/>
       <use x="83.3984375" xlink:href="#ArialMT-31"/>
       <use x="139.013671875" xlink:href="#ArialMT-34"/>
      </g>
     </g>
    </g>
    <g id="ytick_18">
     <g id="line2d_106">
      <path clip-path="url(#p499c049998)" d="
M403.108 62.2222
L684 62.2222" style="fill:none;stroke:#ffffff;stroke-linecap:round;"/>
     </g>
     <g id="line2d_107">
      <g>
       <use style="fill:#262626;stroke:#262626;" x="403.108203125" xlink:href="#m219da94a98" y="62.2222222222"/>
      </g>
     </g>
     <g id="line2d_108">
      <g>
       <use style="fill:#262626;stroke:#262626;" x="684.0" xlink:href="#m219da94a98" y="62.2222222222"/>
      </g>
     </g>
     <g id="text_39">
      <!-- 0.16 -->
      <g style="fill:#262626;" transform="translate(377.520703125 64.8073784722)scale(0.1 -0.1)">
       <use xlink:href="#ArialMT-30"/>
       <use x="55.615234375" xlink:href="#ArialMT-2e"/>
       <use x="83.3984375" xlink:href="#ArialMT-31"/>
       <use x="139.013671875" xlink:href="#ArialMT-36"/>
      </g>
     </g>
    </g>
    <g id="ytick_19">
     <g id="line2d_109">
      <path clip-path="url(#p499c049998)" d="
M403.108 40.5
L684 40.5" style="fill:none;stroke:#ffffff;stroke-linecap:round;"/>
     </g>
     <g id="line2d_110">
      <g>
       <use style="fill:#262626;stroke:#262626;" x="403.108203125" xlink:href="#m219da94a98" y="40.5"/>
      </g>
     </g>
     <g id="line2d_111">
      <g>
       <use style="fill:#262626;stroke:#262626;" x="684.0" xlink:href="#m219da94a98" y="40.5"/>
      </g>
     </g>
     <g id="text_40">
      <!-- 0.18 -->
      <g style="fill:#262626;" transform="translate(377.501953125 43.08515625)scale(0.1 -0.1)">
       <use xlink:href="#ArialMT-30"/>
       <use x="55.615234375" xlink:href="#ArialMT-2e"/>
       <use x="83.3984375" xlink:href="#ArialMT-31"/>
       <use x="139.013671875" xlink:href="#ArialMT-38"/>
      </g>
     </g>
    </g>
    <g id="text_41">
     <!-- Mean parameter fluctuations -->
     <defs>
      <path d="
M7.42188 0
L7.42188 71.5781
L21.6875 71.5781
L38.625 20.9062
Q40.9688 13.8125 42.0469 10.2969
Q43.2656 14.2031 45.8438 21.7812
L62.9844 71.5781
L75.7344 71.5781
L75.7344 0
L66.6094 0
L66.6094 59.9062
L45.7969 0
L37.25 0
L16.5469 60.9375
L16.5469 0
z
" id="ArialMT-4d"/>
     </defs>
     <g style="fill:#262626;" transform="translate(369.321953125 239.32)rotate(-90.0)scale(0.16 -0.16)">
      <use xlink:href="#ArialMT-4d"/>
      <use x="83.30078125" xlink:href="#ArialMT-65"/>
      <use x="138.916015625" xlink:href="#ArialMT-61"/>
      <use x="194.53125" xlink:href="#ArialMT-6e"/>
      <use x="250.146484375" xlink:href="#ArialMT-20"/>
      <use x="277.9296875" xlink:href="#ArialMT-70"/>
      <use x="333.544921875" xlink:href="#ArialMT-61"/>
      <use x="389.16015625" xlink:href="#ArialMT-72"/>
      <use x="422.4609375" xlink:href="#ArialMT-61"/>
      <use x="478.076171875" xlink:href="#ArialMT-6d"/>
      <use x="561.376953125" xlink:href="#ArialMT-65"/>
      <use x="616.9921875" xlink:href="#ArialMT-74"/>
      <use x="644.775390625" xlink:href="#ArialMT-65"/>
      <use x="700.390625" xlink:href="#ArialMT-72"/>
      <use x="733.69140625" xlink:href="#ArialMT-20"/>
      <use x="761.474609375" xlink:href="#ArialMT-66"/>
      <use x="789.2578125" xlink:href="#ArialMT-6c"/>
      <use x="811.474609375" xlink:href="#ArialMT-75"/>
      <use x="867.08984375" xlink:href="#ArialMT-63"/>
      <use x="917.08984375" xlink:href="#ArialMT-74"/>
      <use x="944.873046875" xlink:href="#ArialMT-75"/>
      <use x="1000.48828125" xlink:href="#ArialMT-61"/>
      <use x="1056.10351562" xlink:href="#ArialMT-74"/>
      <use x="1083.88671875" xlink:href="#ArialMT-69"/>
      <use x="1106.10351562" xlink:href="#ArialMT-6f"/>
      <use x="1161.71875" xlink:href="#ArialMT-6e"/>
      <use x="1217.33398438" xlink:href="#ArialMT-73"/>
     </g>
    </g>
   </g>
   <g id="line2d_112">
    <path clip-path="url(#p499c049998)" d="
M403.108 235.544
L405.129 227.056
L407.15 227.783
L409.171 225.211
L411.191 221.632
L413.212 222.907
L415.233 220.914
L419.275 217.527
L421.295 216.539
L423.316 219.034
L425.337 214.681
L427.358 212.352
L429.379 211.938
L431.399 213.682
L433.42 210.492
L435.441 208.429
L437.462 204.297
L439.483 202.483
L441.503 206.672
L443.524 200.534
L445.545 201.626
L447.566 200.316
L449.587 196.848
L451.608 197.216
L453.628 198.04
L455.649 196.67
L457.67 198.523
L459.691 200.013
L461.712 194.182
L463.732 189.915
L465.753 194.453
L467.774 193.226
L469.795 192.57
L471.816 194.693
L473.836 193.683
L475.857 189.127
L477.878 187.534
L479.899 187.351
L481.92 184.294
L483.94 185.604
L485.961 188.64
L487.982 186.313
L490.003 188.159
L492.024 182.666
L494.044 183.557
L496.065 184.169
L498.086 181.84
L500.107 181.003
L502.128 181.295
L504.148 180.122
L506.169 180.075
L508.19 181.607
L510.211 174.489
L512.232 176.543
L514.252 177.721
L516.273 174.549
L518.294 175.796
L520.315 172.711
L522.336 174.456
L524.356 173.395
L526.377 173.373
L528.398 168.903
L530.419 167.733
L532.44 170.7
L534.46 167.971
L536.481 171.178
L538.502 170.959
L540.523 170.009
L542.544 172.015
L544.565 169.311
L546.585 165.795
L548.606 165.583
L550.627 166.741
L552.648 162.825
L554.669 164.52
L556.689 163.489
L558.71 164.347
L560.731 164.725
L562.752 165.678
L564.773 163.684
L566.793 160.373
L568.814 158.31
L570.835 157.68
L572.856 159.064
L574.877 161.103
L576.897 157.294
L578.918 157.977
L582.96 158.286
L584.981 155.044
L587.001 155.212
L589.022 153.921
L591.043 154.914
L593.064 159.287
L595.085 159.203
L597.105 159.652
L599.126 156.917
L601.147 155.214
L603.168 152.046
L605.189 150.374
L607.209 149.846
L609.23 149.652
L611.251 147.631
L613.272 147.374
L615.293 146.363
L617.313 146.018
L619.334 147.921
L621.355 150.005
L623.376 149.268
L625.397 147.232
L627.417 144.744
L631.459 143.738
L633.48 145.247
L635.501 144.353
L637.522 144.279
L639.542 148.147
L641.563 144.848
L643.584 143.937
L651.667 143.389
L653.688 142.801
L655.709 141.147
L657.73 140.956
L659.75 140.005
L661.771 139.327
L663.792 138.838
L665.813 138.865
L667.834 138.256
L669.854 136.552
L671.875 136.26
L673.896 137.151
L675.917 137.873
L677.938 136.939
L679.958 137.975
L681.979 137.545
L684 136.75
L686.021 138.061
L686.021 138.061" style="fill:none;stroke:#659564;stroke-linecap:round;stroke-width:2;"/>
   </g>
   <g id="line2d_113">
    <path clip-path="url(#p499c049998)" d="
M403.108 59.0984
L714.312 59.0984" style="fill:none;stroke:#659564;stroke-dasharray:6.000000,6.000000;stroke-dashoffset:0.0;stroke-width:2;"/>
   </g>
   <g id="patch_8">
    <path d="
M403.108 40.5
L684 40.5" style="fill:none;"/>
   </g>
   <g id="patch_9">
    <path d="
M684 236
L684 40.5" style="fill:none;"/>
   </g>
   <g id="patch_10">
    <path d="
M403.108 236
L684 236" style="fill:none;"/>
   </g>
   <g id="patch_11">
    <path d="
M403.108 236
L403.108 40.5" style="fill:none;"/>
   </g>
   <g id="legend_2">
    <g id="line2d_114">
     <path d="
M545.623 201.359
L569.623 201.359" style="fill:none;stroke:#659564;stroke-linecap:round;stroke-width:2;"/>
    </g>
    <g id="line2d_115"/>
    <g id="text_42">
     <!-- Agglomerated set -->
     <g style="fill:#262626;" transform="translate(579.223125 205.559375)scale(0.12 -0.12)">
      <use xlink:href="#ArialMT-41"/>
      <use x="66.69921875" xlink:href="#ArialMT-67"/>
      <use x="122.314453125" xlink:href="#ArialMT-67"/>
      <use x="177.9296875" xlink:href="#ArialMT-6c"/>
      <use x="200.146484375" xlink:href="#ArialMT-6f"/>
      <use x="255.76171875" xlink:href="#ArialMT-6d"/>
      <use x="339.0625" xlink:href="#ArialMT-65"/>
      <use x="394.677734375" xlink:href="#ArialMT-72"/>
      <use x="427.978515625" xlink:href="#ArialMT-61"/>
      <use x="483.59375" xlink:href="#ArialMT-74"/>
      <use x="511.376953125" xlink:href="#ArialMT-65"/>
      <use x="566.9921875" xlink:href="#ArialMT-64"/>
      <use x="622.607421875" xlink:href="#ArialMT-20"/>
      <use x="650.390625" xlink:href="#ArialMT-73"/>
      <use x="700.390625" xlink:href="#ArialMT-65"/>
      <use x="756.005859375" xlink:href="#ArialMT-74"/>
     </g>
    </g>
    <g id="line2d_116">
     <path d="
M545.623 218.474
L569.623 218.474" style="fill:none;stroke:#659564;stroke-dasharray:6.000000,6.000000;stroke-dashoffset:0.0;stroke-width:2;"/>
    </g>
    <g id="line2d_117"/>
    <g id="text_43">
     <!-- No agglomeration -->
     <g style="fill:#262626;" transform="translate(579.223125 222.674375)scale(0.12 -0.12)">
      <use xlink:href="#ArialMT-4e"/>
      <use x="72.216796875" xlink:href="#ArialMT-6f"/>
      <use x="127.83203125" xlink:href="#ArialMT-20"/>
      <use x="155.615234375" xlink:href="#ArialMT-61"/>
      <use x="211.23046875" xlink:href="#ArialMT-67"/>
      <use x="266.845703125" xlink:href="#ArialMT-67"/>
      <use x="322.4609375" xlink:href="#ArialMT-6c"/>
      <use x="344.677734375" xlink:href="#ArialMT-6f"/>
      <use x="400.29296875" xlink:href="#ArialMT-6d"/>
      <use x="483.59375" xlink:href="#ArialMT-65"/>
      <use x="539.208984375" xlink:href="#ArialMT-72"/>
      <use x="572.509765625" xlink:href="#ArialMT-61"/>
      <use x="628.125" xlink:href="#ArialMT-74"/>
      <use x="655.908203125" xlink:href="#ArialMT-69"/>
      <use x="678.125" xlink:href="#ArialMT-6f"/>
      <use x="733.740234375" xlink:href="#ArialMT-6e"/>
     </g>
    </g>
   </g>
  </g>
  <g id="text_44">
   <!-- Feature agglomeration -->
   <defs>
    <path d="
M8.20312 0
L8.20312 71.5781
L56.5 71.5781
L56.5 63.1406
L17.6719 63.1406
L17.6719 40.9688
L51.2656 40.9688
L51.2656 32.5156
L17.6719 32.5156
L17.6719 0
z
" id="ArialMT-46"/>
   </defs>
   <g style="fill:#262626;" transform="translate(250.089375 21.5071875)scale(0.22 -0.22)">
    <use xlink:href="#ArialMT-46"/>
    <use x="61.083984375" xlink:href="#ArialMT-65"/>
    <use x="116.69921875" xlink:href="#ArialMT-61"/>
    <use x="172.314453125" xlink:href="#ArialMT-74"/>
    <use x="200.09765625" xlink:href="#ArialMT-75"/>
    <use x="255.712890625" xlink:href="#ArialMT-72"/>
    <use x="289.013671875" xlink:href="#ArialMT-65"/>
    <use x="344.62890625" xlink:href="#ArialMT-20"/>
    <use x="372.412109375" xlink:href="#ArialMT-61"/>
    <use x="428.02734375" xlink:href="#ArialMT-67"/>
    <use x="483.642578125" xlink:href="#ArialMT-67"/>
    <use x="539.2578125" xlink:href="#ArialMT-6c"/>
    <use x="561.474609375" xlink:href="#ArialMT-6f"/>
    <use x="617.08984375" xlink:href="#ArialMT-6d"/>
    <use x="700.390625" xlink:href="#ArialMT-65"/>
    <use x="756.005859375" xlink:href="#ArialMT-72"/>
    <use x="789.306640625" xlink:href="#ArialMT-61"/>
    <use x="844.921875" xlink:href="#ArialMT-74"/>
    <use x="872.705078125" xlink:href="#ArialMT-69"/>
    <use x="894.921875" xlink:href="#ArialMT-6f"/>
    <use x="950.537109375" xlink:href="#ArialMT-6e"/>
   </g>
  </g>
 </g>
 <defs>
  <clipPath id="p499c049998">
   <rect height="195.5" width="280.891796875" x="403.108203125" y="40.5"/>
  </clipPath>
  <clipPath id="p88a5be353f">
   <rect height="195.5" width="280.891796875" x="56.05" y="40.5"/>
  </clipPath>
 </defs>
</svg>
