<?xml version="1.0" encoding="utf-8" standalone="no"?>
<!DOCTYPE svg PUBLIC "-//W3C//DTD SVG 1.1//EN"
  "http://www.w3.org/Graphics/SVG/1.1/DTD/svg11.dtd">
<!-- Created with matplotlib (http://matplotlib.org/) -->
<svg height="324pt" version="1.1" viewBox="0 0 576 324" width="576pt" xmlns="http://www.w3.org/2000/svg" xmlns:xlink="http://www.w3.org/1999/xlink">
 <defs>
  <style type="text/css">
*{stroke-linecap:butt;stroke-linejoin:round;}
  </style>
 </defs>
 <g id="figure_1">
  <g id="patch_1">
   <path d="
M0 324
L576 324
L576 0
L0 0
z
" style="fill:#ffffff;"/>
  </g>
  <g id="axes_1">
   <g id="patch_2">
    <path d="
M72 291.6
L518.4 291.6
L518.4 32.4
L72 32.4
z
" style="fill:#eaeaf2;"/>
   </g>
   <g id="line2d_1">
    <path clip-path="url(#p9c108a8c4e)" d="
M72.2241 245.003
L72.4482 221.494
L72.6723 203.494
L73.1205 181.072
L74.241 150.097
L74.6892 145.334
L75.1373 138.81
L75.3614 136.258
L75.5855 132.322
L75.8096 130.539
L76.2578 123.123
L76.9301 120.006
L77.1542 116.069
L77.8265 113.743
L78.0506 112.343
L78.2747 111.749
L78.4988 110.611
L78.7229 108.581
L78.947 108.052
L79.3952 106.008
L79.8434 105.225
L80.0675 102.601
L80.2916 102.282
L81.412 98.2294
L81.8602 95.5327
L82.5325 93.6044
L82.9807 92.5606
L83.8771 91.3137
L84.3253 90.6395
L85.6699 87.4282
L86.1181 86.986
L86.3422 86.2756
L86.7904 85.8044
L87.2386 84.0283
L88.5831 81.9261
L88.8072 81.8753
L89.0313 81.3389
L89.7036 80.6865
L89.9277 80.0486
L90.3759 79.6933
L90.8241 79.5339
L91.0482 78.8887
L91.4964 78.6495
L91.7205 78.5915
L92.1687 78.1928
L92.3928 78.113
L93.0651 76.8807
L93.5133 76.4312
L93.7373 76.2283
L94.1855 75.4816
L94.4096 75.2569
L94.8578 75.0901
L95.306 74.6842
L95.7542 74.271
L100.684 71.3568
L102.925 70.255
L103.149 69.994
L103.598 69.907
L103.822 69.617
L104.27 69.4866
L104.718 69.2546
L105.166 69.0806
L105.39 68.7472
L105.839 68.6819
L106.511 68.3847
L106.959 67.9063
L112.113 65.8692
L112.561 65.543
L113.01 65.4343
L113.682 65.2458
L114.13 65.1298
L114.354 64.9051
L115.027 64.6369
L115.699 64.2672
L116.595 64.0715
L117.267 63.854
L117.492 63.6655
L118.164 63.5495
L119.508 63.0058
L119.957 62.8609
L120.853 62.3244
L121.301 62.2664
L121.973 62.0562
L127.128 60.7949
L127.352 60.7876
L127.576 60.5846
L128.472 60.4541
L129.369 60.1207
L130.041 59.9322
L130.489 59.78
L133.402 59.1276
L136.316 58.5766
L137.212 58.3446
L139.677 57.7937
L140.125 57.6705
L142.142 57.3878
L142.814 57.2355
L143.487 57.1558
L143.935 56.9383
L145.055 56.7063
L145.504 56.6339
L145.952 56.5904
L147.296 56.1192
L149.313 55.8219
L150.21 55.648
L150.882 55.5465
L152.002 55.2203
L152.451 55.097
L153.123 54.981
L154.019 54.7781
L154.692 54.6983
L161.863 53.6327
L163.207 53.4805
L165 53.1615
L166.793 52.9368
L168.81 52.6323
L172.395 52.3206
L172.843 52.2481
L174.412 52.0017
L175.308 51.8132
L177.101 51.5667
L178.446 51.4145
L181.359 51.139
L182.255 50.9868
L184.496 50.7331
L184.945 50.5881
L188.978 50.0299
L190.323 49.9284
L191.219 49.8414
L193.236 49.6022
L197.494 49.1527
L201.528 48.8048
L202.2 48.7395
L204.217 48.5003
L205.113 48.3771
L216.542 47.3695
L219.231 47.1882
L221.024 47.0505
L222.593 46.9635
L225.506 46.6808
L226.178 46.5721
L227.075 46.5068
L229.092 46.3328
L238.952 45.5862
L239.624 45.4992
L241.865 45.3904
L243.434 45.3107
L243.882 45.202
L249.933 44.8975
L257.328 44.5278
L261.81 44.2741
L265.395 44.1436
L267.412 44.0494
L268.981 43.9551
L271.446 43.8464
L273.687 43.6869
L274.359 43.6289
L277.048 43.5347
L278.841 43.4042
L283.099 43.2302
L285.34 43.1287
L299.01 42.3458
L302.147 42.2443
L308.87 41.9109
L312.904 41.8021
L314.024 41.7659
L318.058 41.6571
L321.419 41.5484
L324.557 41.4542
L326.349 41.3889
L330.159 41.2802
L337.554 40.954
L338.675 40.867
L343.157 40.7655
L347.19 40.6133
L351 40.5118
L352.345 40.4828
L366.911 40.1203
L371.393 40.0333
L372.513 39.9971
L376.547 39.8884
L394.699 39.4099
L400.077 39.3084
L403.887 39.1707
L421.142 38.7212
L427.417 38.6125
L430.554 38.5183
L434.812 38.4095
L436.605 38.395
L441.759 38.2863
L453.636 38.0108
L461.928 37.9021
L467.082 37.8441
L476.494 37.7354
L480.528 37.7136
L486.13 37.6121
L488.147 37.5904
L500.472 37.4816
L506.075 37.4092
L518.176 37.3874
L518.176 37.3874" style="fill:none;stroke:#b24d4e;stroke-linecap:round;stroke-width:2;"/>
   </g>
   <g id="line2d_2">
    <path clip-path="url(#p9c108a8c4e)" d="
M75.0814 325
L75.5855 285.047
L76.4819 243.799
L77.3783 238
L78.2747 239.305
L79.1711 238.942
L80.0675 234.52
L80.9639 189.721
L81.8602 188.561
L82.7566 184.574
L83.653 185.444
L84.5494 177.977
L85.4458 166.016
L87.2386 165.364
L88.1349 161.522
L89.0313 161.739
L89.9277 160.652
L90.8241 160.652
L91.7205 161.014
L92.6169 160.942
L93.5133 161.014
L94.4096 159.564
L95.306 159.347
L96.2024 157.969
L97.0988 157.535
L97.9952 158.114
L98.8916 155.94
L99.788 154.345
L100.684 153.113
L101.581 152.315
L102.477 152.388
L103.373 153.33
L104.27 149.633
L105.166 148.546
L106.063 147.241
L106.959 144.704
L107.855 146.516
L108.752 146.298
L109.648 144.994
L110.545 144.921
L111.441 145.211
L112.337 141.586
L113.234 141.876
L114.13 141.007
L115.027 141.151
L115.923 140.789
L116.819 139.702
L117.716 139.049
L118.612 139.122
L119.508 138.469
L120.405 137.672
L121.301 136.15
L122.198 136.585
L123.094 136.077
L124.887 133.177
L125.783 133.177
L126.68 132.96
L127.576 133.395
L128.472 133.685
L129.369 132.742
L130.265 133.975
L131.161 133.757
L132.058 132.018
L132.954 133.25
L133.851 133.395
L134.747 132.235
L135.643 131.655
L136.54 132.09
L137.436 131.945
L138.333 132.67
L139.229 129.77
L141.022 130.133
L141.918 130.713
L142.814 130.423
L144.607 131.003
L145.504 129.698
L146.4 130.06
L147.296 128.466
L148.193 127.958
L149.089 127.668
L149.986 127.161
L150.882 125.493
L151.778 124.696
L152.675 124.478
L153.571 125.058
L154.467 124.116
L155.364 122.956
L156.26 123.681
L157.157 125.058
L158.053 125.203
L158.949 124.768
L159.846 123.319
L160.742 124.551
L161.639 123.754
L162.535 123.536
L163.431 124.406
L164.328 125.638
L165.224 122.811
L166.12 123.464
L167.017 123.319
L167.913 123.319
L168.81 123.464
L169.706 124.116
L170.602 124.261
L171.499 124.116
L172.395 123.101
L173.292 121.579
L174.188 122.739
L175.084 121.724
L175.981 121.434
L176.877 122.811
L177.773 122.086
L178.67 119.912
L179.566 119.187
L180.463 118.897
L181.359 118.969
L182.255 120.201
L183.152 119.477
L184.945 118.389
L185.841 119.332
L186.737 119.042
L187.634 116.722
L188.53 117.012
L189.427 117.157
L190.323 116.722
L191.219 117.954
L192.116 117.809
L193.012 118.462
L193.908 118.172
L194.805 118.752
L195.701 119.694
L196.598 119.042
L197.494 119.839
L198.39 119.477
L199.287 120.491
L200.183 120.057
L201.08 119.839
L201.976 119.332
L202.872 120.346
L203.769 120.491
L204.665 120.201
L205.561 119.694
L206.458 119.839
L207.354 119.839
L208.251 120.274
L209.147 119.622
L210.043 120.057
L210.94 120.057
L212.733 118.317
L213.629 118.752
L214.525 118.752
L215.422 117.809
L216.318 119.042
L217.214 120.636
L218.111 118.244
L219.007 117.882
L219.904 117.882
L220.8 117.737
L221.696 118.172
L222.593 117.809
L223.489 117.302
L224.386 116.939
L225.282 117.447
L226.178 116.577
L227.075 116.722
L227.971 115.852
L228.867 115.635
L229.764 114.765
L230.66 116.214
L231.557 116.432
L232.453 116.214
L233.349 115.78
L234.246 114.837
L235.142 114.982
L236.039 114.257
L236.935 113.75
L237.831 114.185
L238.728 113.967
L239.624 114.475
L240.52 114.547
L241.417 114.982
L242.313 114.692
L243.21 114.04
L244.106 114.185
L245.002 113.315
L247.692 113.025
L248.588 112.88
L249.484 113.677
L250.381 113.17
L251.277 113.967
L252.173 113.967
L253.07 114.62
L253.966 113.605
L254.863 113.17
L255.759 113.025
L256.655 113.677
L258.448 113.097
L259.345 114.257
L260.241 114.62
L262.034 114.765
L262.93 114.33
L263.827 115.707
L264.723 114.765
L266.516 114.547
L267.412 113.822
L269.205 112.952
L270.998 112.807
L271.894 112.445
L272.79 111.865
L273.687 113.097
L274.583 112.517
L275.48 112.082
L276.376 112.155
L277.272 112.445
L278.169 113.315
L279.065 112.662
L279.961 112.735
L280.858 113.242
L281.754 113.605
L283.547 113.242
L284.443 112.88
L285.34 112.807
L287.133 113.46
L289.822 113.387
L290.718 112.952
L291.614 113.895
L292.511 113.242
L293.407 115.127
L294.304 115.707
L295.2 115.055
L296.096 115.997
L296.993 115.852
L297.889 116.069
L298.786 116.142
L299.682 115.345
L301.475 115.2
L302.371 114.765
L303.267 115.345
L304.164 114.475
L305.957 115.78
L306.853 115.345
L307.749 116.504
L308.646 116.794
L309.542 116.287
L310.439 115.562
L311.335 115.925
L312.231 115.49
L313.128 115.925
L314.024 115.562
L314.92 116.142
L315.817 116.214
L316.713 115.78
L317.61 115.925
L319.402 116.867
L320.299 116.577
L321.195 117.374
L322.092 116.722
L322.988 116.359
L323.884 117.664
L324.781 117.809
L325.677 118.752
L326.573 119.042
L327.47 119.549
L328.366 118.462
L329.263 118.317
L330.159 116.794
L331.055 117.592
L332.848 117.519
L333.745 118.172
L337.33 117.229
L338.227 116.577
L339.123 116.287
L340.019 116.939
L340.916 118.462
L341.812 117.229
L342.708 117.664
L343.605 117.519
L344.501 116.794
L345.398 117.157
L347.19 116.142
L348.087 116.939
L349.88 116.287
L350.776 116.504
L351.672 117.012
L352.569 117.084
L353.465 116.794
L354.361 118.027
L355.258 117.302
L356.154 117.374
L357.051 117.012
L357.947 117.447
L358.843 117.229
L359.74 117.592
L360.636 116.939
L361.533 117.302
L362.429 116.939
L363.325 116.794
L364.222 115.635
L365.118 115.997
L366.014 115.417
L366.911 116.069
L368.704 116.867
L369.6 116.577
L370.496 117.882
L371.393 117.447
L373.186 117.302
L374.082 117.737
L374.978 117.737
L375.875 118.244
L376.771 118.099
L377.667 118.099
L379.46 117.592
L380.357 118.317
L381.253 118.027
L383.046 117.737
L383.942 118.317
L384.839 117.519
L385.735 116.939
L386.631 115.127
L387.528 114.91
L388.424 114.91
L389.32 114.62
L390.217 114.475
L391.113 113.75
L392.01 114.185
L393.802 114.765
L394.699 115.417
L395.595 115.272
L396.492 114.33
L397.388 114.837
L399.181 115.272
L400.077 114.185
L400.973 114.982
L402.766 115.852
L404.559 116.432
L405.455 116.069
L406.352 116.649
L407.248 116.214
L408.145 117.374
L409.041 117.084
L410.834 118.752
L411.73 118.534
L412.627 117.882
L413.523 117.519
L414.419 117.519
L416.212 116.794
L417.108 117.157
L418.005 116.939
L418.901 116.432
L419.798 116.504
L420.694 117.012
L421.59 116.432
L422.487 116.504
L423.383 115.635
L424.28 116.359
L425.176 116.287
L426.072 116.432
L426.969 116.867
L427.865 116.504
L428.761 115.345
L429.658 115.997
L430.554 116.359
L431.451 115.997
L432.347 116.287
L433.243 115.055
L434.14 115.925
L435.933 116.287
L436.829 116.504
L438.622 116.287
L439.518 117.229
L440.414 116.287
L442.207 117.157
L443.104 117.157
L444 117.664
L444.896 117.157
L445.793 117.954
L447.586 118.462
L448.482 117.592
L449.378 117.737
L451.171 117.229
L452.067 117.374
L452.964 117.664
L453.86 117.229
L454.757 115.925
L455.653 116.649
L456.549 115.635
L457.446 115.78
L458.342 115.127
L459.239 114.982
L460.135 115.127
L461.031 114.692
L462.824 115.997
L463.72 116.359
L464.617 116.287
L465.513 116.359
L466.41 117.519
L467.306 117.447
L468.202 118.027
L469.099 117.737
L469.995 118.317
L470.892 117.664
L471.788 117.664
L472.684 117.302
L473.581 117.084
L474.477 117.809
L475.373 117.737
L476.27 117.954
L478.063 117.882
L478.959 118.679
L479.855 118.752
L480.752 118.317
L481.648 118.317
L482.545 117.809
L483.441 117.084
L484.337 117.302
L486.13 117.374
L487.027 117.012
L487.923 117.157
L488.819 117.157
L489.716 117.374
L490.612 116.939
L491.508 117.302
L492.405 117.519
L493.301 117.374
L494.198 117.809
L495.094 118.099
L495.99 117.664
L496.887 117.954
L497.783 117.447
L498.68 117.157
L499.576 117.519
L500.472 117.447
L502.265 117.664
L503.161 117.592
L504.058 117.157
L504.954 117.447
L506.747 116.794
L507.643 116.939
L508.54 116.867
L509.436 116.649
L510.333 116.577
L511.229 117.084
L513.022 117.157
L513.918 117.302
L514.814 117.229
L517.504 117.374
L517.504 117.374" style="fill:none;stroke:#577b97;stroke-linecap:round;stroke-width:2;"/>
   </g>
   <g id="GridlinesCollection_1">
    <path clip-path="url(#p9c108a8c4e)" d="
M72 291.6
L72 32.4" style="fill:none;stroke:#ffffff;"/>
    <path clip-path="url(#p9c108a8c4e)" d="
M161.28 291.6
L161.28 32.4" style="fill:none;stroke:#ffffff;"/>
    <path clip-path="url(#p9c108a8c4e)" d="
M250.56 291.6
L250.56 32.4" style="fill:none;stroke:#ffffff;"/>
    <path clip-path="url(#p9c108a8c4e)" d="
M339.84 291.6
L339.84 32.4" style="fill:none;stroke:#ffffff;"/>
    <path clip-path="url(#p9c108a8c4e)" d="
M429.12 291.6
L429.12 32.4" style="fill:none;stroke:#ffffff;"/>
    <path clip-path="url(#p9c108a8c4e)" d="
M518.4 291.6
L518.4 32.4" style="fill:none;stroke:#ffffff;"/>
    <path clip-path="url(#p9c108a8c4e)" d="
M72 291.6
L518.4 291.6" style="fill:none;stroke:#ffffff;"/>
    <path clip-path="url(#p9c108a8c4e)" d="
M72 239.76
L518.4 239.76" style="fill:none;stroke:#ffffff;"/>
    <path clip-path="url(#p9c108a8c4e)" d="
M72 187.92
L518.4 187.92" style="fill:none;stroke:#ffffff;"/>
    <path clip-path="url(#p9c108a8c4e)" d="
M72 136.08
L518.4 136.08" style="fill:none;stroke:#ffffff;"/>
    <path clip-path="url(#p9c108a8c4e)" d="
M72 84.24
L518.4 84.24" style="fill:none;stroke:#ffffff;"/>
    <path clip-path="url(#p9c108a8c4e)" d="
M72 32.4
L518.4 32.4" style="fill:none;stroke:#ffffff;"/>
   </g>
   <g id="mpl_toolkits.axisartist.axis_artist_1">
    <defs>
     <path d="
M0 0
L0 0" id="m4376adbf70" style="stroke:#262626;"/>
    </defs>
    <g>
     <use style="fill:none;stroke:#262626;" x="518.4" xlink:href="#m4376adbf70" y="291.6"/>
     <use style="fill:none;stroke:#262626;" x="518.4" xlink:href="#m4376adbf70" y="291.6"/>
    </g>
    <g>
     <use style="fill:none;stroke:#262626;" x="518.4" xlink:href="#m4376adbf70" y="239.76"/>
     <use style="fill:none;stroke:#262626;" x="518.4" xlink:href="#m4376adbf70" y="239.76"/>
    </g>
    <g>
     <use style="fill:none;stroke:#262626;" x="518.4" xlink:href="#m4376adbf70" y="187.92"/>
     <use style="fill:none;stroke:#262626;" x="518.4" xlink:href="#m4376adbf70" y="187.92"/>
    </g>
    <g>
     <use style="fill:none;stroke:#262626;" x="518.4" xlink:href="#m4376adbf70" y="136.08"/>
     <use style="fill:none;stroke:#262626;" x="518.4" xlink:href="#m4376adbf70" y="136.08"/>
    </g>
    <g>
     <use style="fill:none;stroke:#262626;" x="518.4" xlink:href="#m4376adbf70" y="84.24"/>
     <use style="fill:none;stroke:#262626;" x="518.4" xlink:href="#m4376adbf70" y="84.24"/>
    </g>
    <g>
     <use style="fill:none;stroke:#262626;" x="518.4" xlink:href="#m4376adbf70" y="32.4"/>
     <use style="fill:none;stroke:#262626;" x="518.4" xlink:href="#m4376adbf70" y="32.4"/>
    </g>
    <g id="text_1">
     <!-- 60 -->
     <defs>
      <path d="
M4.15625 35.2969
Q4.15625 48 6.76562 55.7344
Q9.375 63.4844 14.5156 67.6719
Q19.6719 71.875 27.4844 71.875
Q33.25 71.875 37.5938 69.5469
Q41.9375 67.2344 44.7656 62.8594
Q47.6094 58.5 49.2188 52.2188
Q50.8281 45.9531 50.8281 35.2969
Q50.8281 22.7031 48.2344 14.9688
Q45.6562 7.23438 40.5 3
Q35.3594 -1.21875 27.4844 -1.21875
Q17.1406 -1.21875 11.2344 6.20312
Q4.15625 15.1406 4.15625 35.2969
M13.1875 35.2969
Q13.1875 17.6719 17.3125 11.8281
Q21.4375 6 27.4844 6
Q33.5469 6 37.6719 11.8594
Q41.7969 17.7188 41.7969 35.2969
Q41.7969 52.9844 37.6719 58.7812
Q33.5469 64.5938 27.3906 64.5938
Q21.3438 64.5938 17.7188 59.4688
Q13.1875 52.9375 13.1875 35.2969" id="ArialMT-30"/>
      <path d="
M49.75 54.0469
L41.0156 53.375
Q39.8438 58.5469 37.7031 60.8906
Q34.125 64.6562 28.9062 64.6562
Q24.7031 64.6562 21.5312 62.3125
Q17.3906 59.2812 14.9844 53.4688
Q12.5938 47.6562 12.5 36.9219
Q15.6719 41.75 20.2656 44.0938
Q24.8594 46.4375 29.8906 46.4375
Q38.6719 46.4375 44.8438 39.9688
Q51.0312 33.5 51.0312 23.25
Q51.0312 16.5 48.125 10.7188
Q45.2188 4.9375 40.1406 1.85938
Q35.0625 -1.21875 28.6094 -1.21875
Q17.625 -1.21875 10.6875 6.85938
Q3.76562 14.9375 3.76562 33.5
Q3.76562 54.25 11.4219 63.6719
Q18.1094 71.875 29.4375 71.875
Q37.8906 71.875 43.2812 67.1406
Q48.6875 62.4062 49.75 54.0469
M13.875 23.1875
Q13.875 18.6562 15.7969 14.5
Q17.7188 10.3594 21.1875 8.17188
Q24.6562 6 28.4688 6
Q34.0312 6 38.0312 10.4844
Q42.0469 14.9844 42.0469 22.7031
Q42.0469 30.125 38.0781 34.3906
Q34.125 38.6719 28.125 38.6719
Q22.1719 38.6719 18.0156 34.3906
Q13.875 30.125 13.875 23.1875" id="ArialMT-36"/>
     </defs>
     <g style="fill:#262626;" transform="translate(525.4 294.18515625)scale(0.1 -0.1)">
      <use xlink:href="#ArialMT-36"/>
      <use x="55.615234375" xlink:href="#ArialMT-30"/>
     </g>
    </g>
    <g id="text_2">
     <!-- 62 -->
     <defs>
      <path d="
M50.3438 8.45312
L50.3438 0
L3.03125 0
Q2.9375 3.17188 4.04688 6.10938
Q5.85938 10.9375 9.82812 15.625
Q13.8125 20.3125 21.3438 26.4688
Q33.0156 36.0312 37.1094 41.625
Q41.2188 47.2188 41.2188 52.2031
Q41.2188 57.4219 37.4688 61
Q33.7344 64.5938 27.7344 64.5938
Q21.3906 64.5938 17.5781 60.7812
Q13.7656 56.9844 13.7188 50.25
L4.6875 51.1719
Q5.60938 61.2812 11.6562 66.5781
Q17.7188 71.875 27.9375 71.875
Q38.2344 71.875 44.2344 66.1562
Q50.25 60.4531 50.25 52
Q50.25 47.7031 48.4844 43.5469
Q46.7344 39.4062 42.6562 34.8125
Q38.5781 30.2188 29.1094 22.2188
Q21.1875 15.5781 18.9375 13.2031
Q16.7031 10.8438 15.2344 8.45312
z
" id="ArialMT-32"/>
     </defs>
     <g style="fill:#262626;" transform="translate(525.4 242.34515625)scale(0.1 -0.1)">
      <use xlink:href="#ArialMT-36"/>
      <use x="55.615234375" xlink:href="#ArialMT-32"/>
     </g>
    </g>
    <g id="text_3">
     <!-- 64 -->
     <defs>
      <path d="
M32.3281 0
L32.3281 17.1406
L1.26562 17.1406
L1.26562 25.2031
L33.9375 71.5781
L41.1094 71.5781
L41.1094 25.2031
L50.7812 25.2031
L50.7812 17.1406
L41.1094 17.1406
L41.1094 0
z

M32.3281 25.2031
L32.3281 57.4688
L9.90625 25.2031
z
" id="ArialMT-34"/>
     </defs>
     <g style="fill:#262626;" transform="translate(525.4 190.50515625)scale(0.1 -0.1)">
      <use xlink:href="#ArialMT-36"/>
      <use x="55.615234375" xlink:href="#ArialMT-34"/>
     </g>
    </g>
    <g id="text_4">
     <!-- 66 -->
     <g style="fill:#262626;" transform="translate(525.4 138.66515625)scale(0.1 -0.1)">
      <use xlink:href="#ArialMT-36"/>
      <use x="55.615234375" xlink:href="#ArialMT-36"/>
     </g>
    </g>
    <g id="text_5">
     <!-- 68 -->
     <defs>
      <path d="
M17.6719 38.8125
Q12.2031 40.8281 9.5625 44.5312
Q6.9375 48.25 6.9375 53.4219
Q6.9375 61.2344 12.5469 66.5469
Q18.1719 71.875 27.4844 71.875
Q36.8594 71.875 42.5781 66.4219
Q48.2969 60.9844 48.2969 53.1719
Q48.2969 48.1875 45.6719 44.5
Q43.0625 40.8281 37.75 38.8125
Q44.3438 36.6719 47.7812 31.875
Q51.2188 27.0938 51.2188 20.4531
Q51.2188 11.2812 44.7188 5.03125
Q38.2344 -1.21875 27.6406 -1.21875
Q17.0469 -1.21875 10.5469 5.04688
Q4.04688 11.3281 4.04688 20.7031
Q4.04688 27.6875 7.59375 32.3906
Q11.1406 37.1094 17.6719 38.8125
M15.9219 53.7188
Q15.9219 48.6406 19.1875 45.4062
Q22.4688 42.1875 27.6875 42.1875
Q32.7656 42.1875 36.0156 45.375
Q39.2656 48.5781 39.2656 53.2188
Q39.2656 58.0625 35.9062 61.3594
Q32.5625 64.6562 27.5938 64.6562
Q22.5625 64.6562 19.2344 61.4219
Q15.9219 58.2031 15.9219 53.7188
M13.0938 20.6562
Q13.0938 16.8906 14.875 13.375
Q16.6562 9.85938 20.1719 7.92188
Q23.6875 6 27.7344 6
Q34.0312 6 38.125 10.0469
Q42.2344 14.1094 42.2344 20.3594
Q42.2344 26.7031 38.0156 30.8594
Q33.7969 35.0156 27.4375 35.0156
Q21.2344 35.0156 17.1562 30.9062
Q13.0938 26.8125 13.0938 20.6562" id="ArialMT-38"/>
     </defs>
     <g style="fill:#262626;" transform="translate(525.4 86.82515625)scale(0.1 -0.1)">
      <use xlink:href="#ArialMT-36"/>
      <use x="55.615234375" xlink:href="#ArialMT-38"/>
     </g>
    </g>
    <g id="text_6">
     <!-- 70 -->
     <defs>
      <path d="
M4.73438 62.2031
L4.73438 70.6562
L51.0781 70.6562
L51.0781 63.8125
Q44.2344 56.5469 37.5156 44.4844
Q30.8125 32.4219 27.1562 19.6719
Q24.5156 10.6875 23.7812 0
L14.75 0
Q14.8906 8.45312 18.0625 20.4062
Q21.2344 32.375 27.1719 43.4844
Q33.1094 54.5938 39.7969 62.2031
z
" id="ArialMT-37"/>
     </defs>
     <g style="fill:#262626;" transform="translate(525.4 34.98515625)scale(0.1 -0.1)">
      <use xlink:href="#ArialMT-37"/>
      <use x="55.615234375" xlink:href="#ArialMT-30"/>
     </g>
    </g>
    <g id="text_7">
     <!-- Logistic regression accuracy (%) -->
     <defs>
      <path d="
M40.4375 19
L49.0781 17.875
Q47.6562 8.9375 41.8125 3.875
Q35.9844 -1.17188 27.4844 -1.17188
Q16.8438 -1.17188 10.375 5.78125
Q3.90625 12.75 3.90625 25.7344
Q3.90625 34.125 6.6875 40.4219
Q9.46875 46.7344 15.1562 49.875
Q20.8438 53.0312 27.5469 53.0312
Q35.9844 53.0312 41.3594 48.75
Q46.7344 44.4844 48.25 36.625
L39.7031 35.2969
Q38.4844 40.5312 35.375 43.1562
Q32.2812 45.7969 27.875 45.7969
Q21.2344 45.7969 17.0781 41.0312
Q12.9375 36.2812 12.9375 25.9844
Q12.9375 15.5312 16.9375 10.7969
Q20.9531 6.0625 27.3906 6.0625
Q32.5625 6.0625 36.0312 9.23438
Q39.5 12.4062 40.4375 19" id="ArialMT-63"/>
      <path d="
M40.4375 6.39062
Q35.5469 2.25 31.0312 0.53125
Q26.5156 -1.17188 21.3438 -1.17188
Q12.7969 -1.17188 8.20312 3
Q3.60938 7.17188 3.60938 13.6719
Q3.60938 17.4844 5.34375 20.625
Q7.07812 23.7812 9.89062 25.6875
Q12.7031 27.5938 16.2188 28.5625
Q18.7969 29.25 24.0312 29.8906
Q34.6719 31.1562 39.7031 32.9062
Q39.75 34.7188 39.75 35.2031
Q39.75 40.5781 37.25 42.7812
Q33.8906 45.75 27.25 45.75
Q21.0469 45.75 18.0938 43.5781
Q15.1406 41.4062 13.7188 35.8906
L5.125 37.0625
Q6.29688 42.5781 8.98438 45.9688
Q11.6719 49.3594 16.75 51.1875
Q21.8281 53.0312 28.5156 53.0312
Q35.1562 53.0312 39.2969 51.4688
Q43.4531 49.9062 45.4062 47.5312
Q47.3594 45.1719 48.1406 41.5469
Q48.5781 39.3125 48.5781 33.4531
L48.5781 21.7344
Q48.5781 9.46875 49.1406 6.21875
Q49.7031 2.98438 51.375 0
L42.1875 0
Q40.8281 2.73438 40.4375 6.39062
M39.7031 26.0312
Q34.9062 24.0781 25.3438 22.7031
Q19.9219 21.9219 17.6719 20.9375
Q15.4375 19.9688 14.2031 18.0938
Q12.9844 16.2188 12.9844 13.9219
Q12.9844 10.4062 15.6406 8.0625
Q18.3125 5.71875 23.4375 5.71875
Q28.5156 5.71875 32.4688 7.9375
Q36.4219 10.1562 38.2812 14.0156
Q39.7031 17 39.7031 22.7969
z
" id="ArialMT-61"/>
      <path d="
M4.98438 -4.29688
L13.5312 -5.5625
Q14.0625 -9.51562 16.5 -11.3281
Q19.7812 -13.7656 25.4375 -13.7656
Q31.5469 -13.7656 34.8594 -11.3281
Q38.1875 -8.89062 39.3594 -4.5
Q40.0469 -1.8125 39.9844 6.78125
Q34.2344 0 25.6406 0
Q14.9375 0 9.07812 7.71875
Q3.21875 15.4375 3.21875 26.2188
Q3.21875 33.6406 5.90625 39.9062
Q8.59375 46.1875 13.6875 49.6094
Q18.7969 53.0312 25.6875 53.0312
Q34.8594 53.0312 40.8281 45.6094
L40.8281 51.8594
L48.9219 51.8594
L48.9219 7.03125
Q48.9219 -5.07812 46.4531 -10.125
Q44 -15.1875 38.6406 -18.1094
Q33.2969 -21.0469 25.4844 -21.0469
Q16.2188 -21.0469 10.5 -16.875
Q4.78125 -12.7031 4.98438 -4.29688
M12.25 26.8594
Q12.25 16.6562 16.2969 11.9688
Q20.3594 7.28125 26.4688 7.28125
Q32.5156 7.28125 36.6094 11.9375
Q40.7188 16.6094 40.7188 26.5625
Q40.7188 36.0781 36.5 40.9062
Q32.2812 45.75 26.3125 45.75
Q20.4531 45.75 16.3438 40.9844
Q12.25 36.2344 12.25 26.8594" id="ArialMT-67"/>
      <path d="
M6.20312 -19.9688
L5.21875 -11.7188
Q8.10938 -12.5 10.25 -12.5
Q13.1875 -12.5 14.9375 -11.5156
Q16.7031 -10.5469 17.8281 -8.79688
Q18.6562 -7.46875 20.5156 -2.25
Q20.75 -1.51562 21.2969 -0.09375
L1.60938 51.8594
L11.0781 51.8594
L21.875 21.8281
Q23.9688 16.1094 25.6406 9.8125
Q27.1562 15.875 29.25 21.625
L40.3281 51.8594
L49.125 51.8594
L29.3906 -0.875
Q26.2188 -9.42188 24.4688 -12.6406
Q22.125 -17 19.0938 -19.0156
Q16.0625 -21.0469 11.8594 -21.0469
Q9.32812 -21.0469 6.20312 -19.9688" id="ArialMT-79"/>
      <path d="
M42.0938 16.7031
L51.1719 15.5781
Q49.0312 7.625 43.2188 3.21875
Q37.4062 -1.17188 28.375 -1.17188
Q17 -1.17188 10.3281 5.82812
Q3.65625 12.8438 3.65625 25.4844
Q3.65625 38.5781 10.3906 45.7969
Q17.1406 53.0312 27.875 53.0312
Q38.2812 53.0312 44.875 45.9531
Q51.4688 38.875 51.4688 26.0312
Q51.4688 25.25 51.4219 23.6875
L12.75 23.6875
Q13.2344 15.1406 17.5781 10.5938
Q21.9219 6.0625 28.4219 6.0625
Q33.25 6.0625 36.6719 8.59375
Q40.0938 11.1406 42.0938 16.7031
M13.2344 30.9062
L42.1875 30.9062
Q41.6094 37.4531 38.875 40.7188
Q34.6719 45.7969 27.9844 45.7969
Q21.9219 45.7969 17.7969 41.75
Q13.6719 37.7031 13.2344 30.9062" id="ArialMT-65"/>
      <path d="
M25.7812 7.85938
L27.0469 0.09375
Q23.3438 -0.6875 20.4062 -0.6875
Q15.625 -0.6875 12.9844 0.828125
Q10.3594 2.34375 9.28125 4.8125
Q8.20312 7.28125 8.20312 15.1875
L8.20312 45.0156
L1.76562 45.0156
L1.76562 51.8594
L8.20312 51.8594
L8.20312 64.7031
L16.9375 69.9688
L16.9375 51.8594
L25.7812 51.8594
L25.7812 45.0156
L16.9375 45.0156
L16.9375 14.7031
Q16.9375 10.9375 17.4062 9.85938
Q17.875 8.79688 18.9219 8.15625
Q19.9688 7.51562 21.9219 7.51562
Q23.3906 7.51562 25.7812 7.85938" id="ArialMT-74"/>
      <path d="
M40.5781 0
L40.5781 7.625
Q34.5156 -1.17188 24.125 -1.17188
Q19.5312 -1.17188 15.5469 0.578125
Q11.5781 2.34375 9.64062 5
Q7.71875 7.67188 6.9375 11.5312
Q6.39062 14.1094 6.39062 19.7344
L6.39062 51.8594
L15.1875 51.8594
L15.1875 23.0938
Q15.1875 16.2188 15.7188 13.8125
Q16.5469 10.3594 19.2344 8.375
Q21.9219 6.39062 25.875 6.39062
Q29.8281 6.39062 33.2969 8.42188
Q36.7656 10.4531 38.2031 13.9375
Q39.6562 17.4375 39.6562 24.0781
L39.6562 51.8594
L48.4375 51.8594
L48.4375 0
z
" id="ArialMT-75"/>
      <path d="
M6.64062 61.4688
L6.64062 71.5781
L15.4375 71.5781
L15.4375 61.4688
z

M6.64062 0
L6.64062 51.8594
L15.4375 51.8594
L15.4375 0
z
" id="ArialMT-69"/>
      <path d="
M6.5 0
L6.5 51.8594
L14.4062 51.8594
L14.4062 44
Q17.4375 49.5156 20 51.2656
Q22.5625 53.0312 25.6406 53.0312
Q30.0781 53.0312 34.6719 50.2031
L31.6406 42.0469
Q28.4219 43.9531 25.2031 43.9531
Q22.3125 43.9531 20.0156 42.2188
Q17.7188 40.4844 16.75 37.4062
Q15.2812 32.7188 15.2812 27.1562
L15.2812 0
z
" id="ArialMT-72"/>
      <path d="
M3.07812 15.4844
L11.7656 16.8438
Q12.5 11.625 15.8438 8.84375
Q19.1875 6.0625 25.2031 6.0625
Q31.25 6.0625 34.1719 8.51562
Q37.1094 10.9844 37.1094 14.3125
Q37.1094 17.2812 34.5156 19
Q32.7188 20.1719 25.5312 21.9688
Q15.875 24.4219 12.1406 26.2031
Q8.40625 27.9844 6.46875 31.125
Q4.54688 34.2812 4.54688 38.0938
Q4.54688 41.5469 6.125 44.5
Q7.71875 47.4688 10.4531 49.4219
Q12.5 50.9219 16.0312 51.9688
Q19.5781 53.0312 23.6406 53.0312
Q29.7344 53.0312 34.3438 51.2656
Q38.9688 49.5156 41.1562 46.5
Q43.3594 43.5 44.1875 38.4844
L35.5938 37.3125
Q35.0156 41.3125 32.2031 43.5469
Q29.3906 45.7969 24.2656 45.7969
Q18.2188 45.7969 15.625 43.7969
Q13.0312 41.7969 13.0312 39.1094
Q13.0312 37.4062 14.1094 36.0312
Q15.1875 34.625 17.4844 33.6875
Q18.7969 33.2031 25.25 31.4531
Q34.5781 28.9531 38.25 27.3594
Q41.9375 25.7812 44.0312 22.75
Q46.1406 19.7344 46.1406 15.2344
Q46.1406 10.8438 43.5781 6.95312
Q41.0156 3.07812 36.1719 0.953125
Q31.3438 -1.17188 25.25 -1.17188
Q15.1406 -1.17188 9.84375 3.03125
Q4.54688 7.23438 3.07812 15.4844" id="ArialMT-73"/>
      <path d="
M12.3594 -21.0469
L6.0625 -21.0469
Q20.6562 2.39062 20.6562 25.875
Q20.6562 35.0625 18.5625 44.0938
Q16.8906 51.4219 13.9219 58.1562
Q12.0156 62.5469 6.0625 72.7969
L12.3594 72.7969
Q21.5312 60.5469 25.9219 48.1875
Q29.6875 37.5469 29.6875 25.9219
Q29.6875 12.75 24.625 0.4375
Q19.5781 -11.8594 12.3594 -21.0469" id="ArialMT-29"/>
      <path d="
M3.32812 25.9219
Q3.32812 40.3281 11.3281 47.2656
Q18.0156 53.0312 27.6406 53.0312
Q38.3281 53.0312 45.1094 46.0156
Q51.9062 39.0156 51.9062 26.6562
Q51.9062 16.6562 48.9062 10.9062
Q45.9062 5.17188 40.1562 2
Q34.4219 -1.17188 27.6406 -1.17188
Q16.75 -1.17188 10.0312 5.8125
Q3.32812 12.7969 3.32812 25.9219
M12.3594 25.9219
Q12.3594 15.9688 16.7031 11.0156
Q21.0469 6.0625 27.6406 6.0625
Q34.1875 6.0625 38.5312 11.0312
Q42.875 16.0156 42.875 26.2188
Q42.875 35.8438 38.5 40.7969
Q34.125 45.75 27.6406 45.75
Q21.0469 45.75 16.7031 40.8125
Q12.3594 35.8906 12.3594 25.9219" id="ArialMT-6f"/>
      <path d="
M6.59375 0
L6.59375 51.8594
L14.5 51.8594
L14.5 44.4844
Q20.2188 53.0312 31 53.0312
Q35.6875 53.0312 39.625 51.3438
Q43.5625 49.6562 45.5156 46.9219
Q47.4688 44.1875 48.25 40.4375
Q48.7344 37.9844 48.7344 31.8906
L48.7344 0
L39.9375 0
L39.9375 31.5469
Q39.9375 36.9219 38.9062 39.5781
Q37.8906 42.2344 35.2812 43.8125
Q32.6719 45.4062 29.1562 45.4062
Q23.5312 45.4062 19.4531 41.8438
Q15.375 38.2812 15.375 28.3281
L15.375 0
z
" id="ArialMT-6e"/>
      <path d="
M23.3906 -21.0469
Q16.1094 -11.8594 11.0781 0.4375
Q6.0625 12.75 6.0625 25.9219
Q6.0625 37.5469 9.8125 48.1875
Q14.2031 60.5469 23.3906 72.7969
L29.6875 72.7969
Q23.7812 62.6406 21.875 58.2969
Q18.8906 51.5625 17.1875 44.2344
Q15.0938 35.1094 15.0938 25.875
Q15.0938 2.39062 29.6875 -21.0469
z
" id="ArialMT-28"/>
      <path d="
M7.32812 0
L7.32812 71.5781
L16.7969 71.5781
L16.7969 8.45312
L52.0469 8.45312
L52.0469 0
z
" id="ArialMT-4c"/>
      <path d="
M5.8125 54.3906
Q5.8125 62.0625 9.67188 67.4219
Q13.5312 72.7969 20.8438 72.7969
Q27.5938 72.7969 32 67.9844
Q36.4219 63.1875 36.4219 53.8594
Q36.4219 44.7812 31.9531 39.875
Q27.4844 34.9688 20.9531 34.9688
Q14.4531 34.9688 10.125 39.7969
Q5.8125 44.625 5.8125 54.3906
M21.0938 66.75
Q17.8281 66.75 15.6562 63.9062
Q13.4844 61.0781 13.4844 53.5156
Q13.4844 46.625 15.6719 43.8125
Q17.875 41.0156 21.0938 41.0156
Q24.4219 41.0156 26.5938 43.8438
Q28.7656 46.6875 28.7656 54.2031
Q28.7656 61.1406 26.5625 63.9375
Q24.3594 66.75 21.0938 66.75
M21.1406 -2.64062
L60.2969 72.7969
L67.4375 72.7969
L28.4219 -2.64062
z

M52.0938 16.7969
Q52.0938 24.5156 55.9531 29.8594
Q59.8125 35.2031 67.1875 35.2031
Q73.9219 35.2031 78.3438 30.3906
Q82.7656 25.5938 82.7656 16.2656
Q82.7656 7.17188 78.2969 2.26562
Q73.8281 -2.64062 67.2344 -2.64062
Q60.75 -2.64062 56.4219 2.21875
Q52.0938 7.07812 52.0938 16.7969
M67.4375 29.1562
Q64.1094 29.1562 61.9375 26.3125
Q59.7656 23.4844 59.7656 15.9219
Q59.7656 9.07812 61.9531 6.25
Q64.1562 3.42188 67.3906 3.42188
Q70.75 3.42188 72.9219 6.25
Q75.0938 9.07812 75.0938 16.6094
Q75.0938 23.5312 72.8906 26.3438
Q70.7031 29.1562 67.4375 29.1562" id="ArialMT-25"/>
      <path id="ArialMT-20"/>
     </defs>
     <g style="fill:#577b97;" transform="translate(550.8978125 262.8896875)rotate(-90.0)scale(0.14 -0.14)">
      <use xlink:href="#ArialMT-4c"/>
      <use x="55.615234375" xlink:href="#ArialMT-6f"/>
      <use x="111.23046875" xlink:href="#ArialMT-67"/>
      <use x="166.845703125" xlink:href="#ArialMT-69"/>
      <use x="189.0625" xlink:href="#ArialMT-73"/>
      <use x="239.0625" xlink:href="#ArialMT-74"/>
      <use x="266.845703125" xlink:href="#ArialMT-69"/>
      <use x="289.0625" xlink:href="#ArialMT-63"/>
      <use x="339.0625" xlink:href="#ArialMT-20"/>
      <use x="366.845703125" xlink:href="#ArialMT-72"/>
      <use x="400.146484375" xlink:href="#ArialMT-65"/>
      <use x="455.76171875" xlink:href="#ArialMT-67"/>
      <use x="511.376953125" xlink:href="#ArialMT-72"/>
      <use x="544.677734375" xlink:href="#ArialMT-65"/>
      <use x="600.29296875" xlink:href="#ArialMT-73"/>
      <use x="650.29296875" xlink:href="#ArialMT-73"/>
      <use x="700.29296875" xlink:href="#ArialMT-69"/>
      <use x="722.509765625" xlink:href="#ArialMT-6f"/>
      <use x="778.125" xlink:href="#ArialMT-6e"/>
      <use x="833.740234375" xlink:href="#ArialMT-20"/>
      <use x="861.5234375" xlink:href="#ArialMT-61"/>
      <use x="917.138671875" xlink:href="#ArialMT-63"/>
      <use x="967.138671875" xlink:href="#ArialMT-63"/>
      <use x="1017.13867188" xlink:href="#ArialMT-75"/>
      <use x="1072.75390625" xlink:href="#ArialMT-72"/>
      <use x="1106.0546875" xlink:href="#ArialMT-61"/>
      <use x="1161.66992188" xlink:href="#ArialMT-63"/>
      <use x="1211.66992188" xlink:href="#ArialMT-79"/>
      <use x="1261.66992188" xlink:href="#ArialMT-20"/>
      <use x="1289.453125" xlink:href="#ArialMT-28"/>
      <use x="1322.75390625" xlink:href="#ArialMT-25"/>
      <use x="1411.66992188" xlink:href="#ArialMT-29"/>
     </g>
    </g>
   </g>
   <g id="mpl_toolkits.axisartist.axis_artist_2">
    <g>
     <use style="fill:none;stroke:#262626;" x="72.0" xlink:href="#m4376adbf70" y="32.4"/>
     <use style="fill:none;stroke:#262626;" x="72.0" xlink:href="#m4376adbf70" y="32.4"/>
    </g>
    <g>
     <use style="fill:none;stroke:#262626;" x="161.28" xlink:href="#m4376adbf70" y="32.4"/>
     <use style="fill:none;stroke:#262626;" x="161.28" xlink:href="#m4376adbf70" y="32.4"/>
    </g>
    <g>
     <use style="fill:none;stroke:#262626;" x="250.56" xlink:href="#m4376adbf70" y="32.4"/>
     <use style="fill:none;stroke:#262626;" x="250.56" xlink:href="#m4376adbf70" y="32.4"/>
    </g>
    <g>
     <use style="fill:none;stroke:#262626;" x="339.84" xlink:href="#m4376adbf70" y="32.4"/>
     <use style="fill:none;stroke:#262626;" x="339.84" xlink:href="#m4376adbf70" y="32.4"/>
    </g>
    <g>
     <use style="fill:none;stroke:#262626;" x="429.12" xlink:href="#m4376adbf70" y="32.4"/>
     <use style="fill:none;stroke:#262626;" x="429.12" xlink:href="#m4376adbf70" y="32.4"/>
    </g>
    <g>
     <use style="fill:none;stroke:#262626;" x="518.4" xlink:href="#m4376adbf70" y="32.4"/>
     <use style="fill:none;stroke:#262626;" x="518.4" xlink:href="#m4376adbf70" y="32.4"/>
    </g>
    <g id="line2d_3">
     <path d="
M72 32.4
L518.4 32.4" style="fill:none;"/>
    </g>
   </g>
   <g id="mpl_toolkits.axisartist.axis_artist_3">
    <g>
     <use style="fill:none;stroke:#262626;" x="72.0" xlink:href="#m4376adbf70" y="291.6"/>
     <use style="fill:none;stroke:#262626;" x="72.0" xlink:href="#m4376adbf70" y="291.6"/>
    </g>
    <g>
     <use style="fill:none;stroke:#262626;" x="72.0" xlink:href="#m4376adbf70" y="239.76"/>
     <use style="fill:none;stroke:#262626;" x="72.0" xlink:href="#m4376adbf70" y="239.76"/>
    </g>
    <g>
     <use style="fill:none;stroke:#262626;" x="72.0" xlink:href="#m4376adbf70" y="187.92"/>
     <use style="fill:none;stroke:#262626;" x="72.0" xlink:href="#m4376adbf70" y="187.92"/>
    </g>
    <g>
     <use style="fill:none;stroke:#262626;" x="72.0" xlink:href="#m4376adbf70" y="136.08"/>
     <use style="fill:none;stroke:#262626;" x="72.0" xlink:href="#m4376adbf70" y="136.08"/>
    </g>
    <g>
     <use style="fill:none;stroke:#262626;" x="72.0" xlink:href="#m4376adbf70" y="84.24"/>
     <use style="fill:none;stroke:#262626;" x="72.0" xlink:href="#m4376adbf70" y="84.24"/>
    </g>
    <g>
     <use style="fill:none;stroke:#262626;" x="72.0" xlink:href="#m4376adbf70" y="32.4"/>
     <use style="fill:none;stroke:#262626;" x="72.0" xlink:href="#m4376adbf70" y="32.4"/>
    </g>
    <g id="text_8">
     <!-- 0 -->
     <g style="fill:#262626;" transform="translate(60.3328125 294.18515625)scale(0.1 -0.1)">
      <use xlink:href="#ArialMT-30"/>
     </g>
    </g>
    <g id="text_9">
     <!-- 20 -->
     <g style="fill:#262626;" transform="translate(54.65 242.34515625)scale(0.1 -0.1)">
      <use xlink:href="#ArialMT-32"/>
      <use x="55.615234375" xlink:href="#ArialMT-30"/>
     </g>
    </g>
    <g id="text_10">
     <!-- 40 -->
     <g style="fill:#262626;" transform="translate(54.4828125 190.50515625)scale(0.1 -0.1)">
      <use xlink:href="#ArialMT-34"/>
      <use x="55.615234375" xlink:href="#ArialMT-30"/>
     </g>
    </g>
    <g id="text_11">
     <!-- 60 -->
     <g style="fill:#262626;" transform="translate(54.7328125 138.66515625)scale(0.1 -0.1)">
      <use xlink:href="#ArialMT-36"/>
      <use x="55.615234375" xlink:href="#ArialMT-30"/>
     </g>
    </g>
    <g id="text_12">
     <!-- 80 -->
     <g style="fill:#262626;" transform="translate(54.7609375 86.82515625)scale(0.1 -0.1)">
      <use xlink:href="#ArialMT-38"/>
      <use x="55.615234375" xlink:href="#ArialMT-30"/>
     </g>
    </g>
    <g id="text_13">
     <!-- 100 -->
     <defs>
      <path d="
M37.25 0
L28.4688 0
L28.4688 56
Q25.2969 52.9844 20.1406 49.9531
Q14.9844 46.9219 10.8906 45.4062
L10.8906 53.9062
Q18.2656 57.375 23.7812 62.2969
Q29.2969 67.2344 31.5938 71.875
L37.25 71.875
z
" id="ArialMT-31"/>
     </defs>
     <g style="fill:#262626;" transform="translate(49.884375 34.98515625)scale(0.1 -0.1)">
      <use xlink:href="#ArialMT-31"/>
      <use x="55.615234375" xlink:href="#ArialMT-30"/>
      <use x="111.23046875" xlink:href="#ArialMT-30"/>
     </g>
    </g>
    <g id="line2d_4">
     <path d="
M72 291.6
L72 32.4" style="fill:none;"/>
    </g>
    <g id="text_14">
     <!-- Fans with at least one post (%) -->
     <defs>
      <path d="
M6.39062 0
L6.39062 71.5781
L15.1875 71.5781
L15.1875 0
z
" id="ArialMT-6c"/>
      <path d="
M16.1562 0
L0.296875 51.8594
L9.375 51.8594
L17.625 21.9219
L20.7031 10.7969
Q20.9062 11.625 23.3906 21.4844
L31.6406 51.8594
L40.6719 51.8594
L48.4375 21.7812
L51.0312 11.8594
L54 21.875
L62.8906 51.8594
L71.4375 51.8594
L55.2188 0
L46.0938 0
L37.8438 31.0625
L35.8438 39.8906
L25.3438 0
z
" id="ArialMT-77"/>
      <path d="
M6.59375 -19.875
L6.59375 51.8594
L14.5938 51.8594
L14.5938 45.125
Q17.4375 49.0781 21 51.0469
Q24.5625 53.0312 29.6406 53.0312
Q36.2812 53.0312 41.3594 49.6094
Q46.4375 46.1875 49.0156 39.9531
Q51.6094 33.7344 51.6094 26.3125
Q51.6094 18.3594 48.75 11.9844
Q45.9062 5.60938 40.4531 2.21875
Q35.0156 -1.17188 29 -1.17188
Q24.6094 -1.17188 21.1094 0.6875
Q17.625 2.54688 15.375 5.375
L15.375 -19.875
z

M14.5469 25.6406
Q14.5469 15.625 18.5938 10.8438
Q22.6562 6.0625 28.4219 6.0625
Q34.2812 6.0625 38.4531 11.0156
Q42.625 15.9688 42.625 26.375
Q42.625 36.2812 38.5469 41.2031
Q34.4688 46.1406 28.8125 46.1406
Q23.1875 46.1406 18.8594 40.8906
Q14.5469 35.6406 14.5469 25.6406" id="ArialMT-70"/>
      <path d="
M6.59375 0
L6.59375 71.5781
L15.375 71.5781
L15.375 45.9062
Q21.5312 53.0312 30.9062 53.0312
Q36.6719 53.0312 40.9219 50.75
Q45.1719 48.4844 47 44.4844
Q48.8281 40.4844 48.8281 32.8594
L48.8281 0
L40.0469 0
L40.0469 32.8594
Q40.0469 39.4531 37.1875 42.4531
Q34.3281 45.4531 29.1094 45.4531
Q25.2031 45.4531 21.75 43.4219
Q18.3125 41.4062 16.8438 37.9375
Q15.375 34.4688 15.375 28.375
L15.375 0
z
" id="ArialMT-68"/>
      <path d="
M8.20312 0
L8.20312 71.5781
L56.5 71.5781
L56.5 63.1406
L17.6719 63.1406
L17.6719 40.9688
L51.2656 40.9688
L51.2656 32.5156
L17.6719 32.5156
L17.6719 0
z
" id="ArialMT-46"/>
     </defs>
     <g style="fill:#b24d4e;" transform="translate(41.9378125 257.8409375)rotate(-90.0)scale(0.14 -0.14)">
      <use xlink:href="#ArialMT-46"/>
      <use x="61.083984375" xlink:href="#ArialMT-61"/>
      <use x="116.69921875" xlink:href="#ArialMT-6e"/>
      <use x="172.314453125" xlink:href="#ArialMT-73"/>
      <use x="222.314453125" xlink:href="#ArialMT-20"/>
      <use x="250.09765625" xlink:href="#ArialMT-77"/>
      <use x="322.314453125" xlink:href="#ArialMT-69"/>
      <use x="344.53125" xlink:href="#ArialMT-74"/>
      <use x="372.314453125" xlink:href="#ArialMT-68"/>
      <use x="427.9296875" xlink:href="#ArialMT-20"/>
      <use x="455.712890625" xlink:href="#ArialMT-61"/>
      <use x="511.328125" xlink:href="#ArialMT-74"/>
      <use x="539.111328125" xlink:href="#ArialMT-20"/>
      <use x="566.89453125" xlink:href="#ArialMT-6c"/>
      <use x="589.111328125" xlink:href="#ArialMT-65"/>
      <use x="644.7265625" xlink:href="#ArialMT-61"/>
      <use x="700.341796875" xlink:href="#ArialMT-73"/>
      <use x="750.341796875" xlink:href="#ArialMT-74"/>
      <use x="778.125" xlink:href="#ArialMT-20"/>
      <use x="805.908203125" xlink:href="#ArialMT-6f"/>
      <use x="861.5234375" xlink:href="#ArialMT-6e"/>
      <use x="917.138671875" xlink:href="#ArialMT-65"/>
      <use x="972.75390625" xlink:href="#ArialMT-20"/>
      <use x="1000.53710938" xlink:href="#ArialMT-70"/>
      <use x="1056.15234375" xlink:href="#ArialMT-6f"/>
      <use x="1111.76757812" xlink:href="#ArialMT-73"/>
      <use x="1161.76757812" xlink:href="#ArialMT-74"/>
      <use x="1189.55078125" xlink:href="#ArialMT-20"/>
      <use x="1217.33398438" xlink:href="#ArialMT-28"/>
      <use x="1250.63476562" xlink:href="#ArialMT-25"/>
      <use x="1339.55078125" xlink:href="#ArialMT-29"/>
     </g>
    </g>
   </g>
   <g id="mpl_toolkits.axisartist.axis_artist_4">
    <g id="line2d_5">
     <path d="
M518.4 291.6
L518.4 32.4" style="fill:none;"/>
    </g>
   </g>
   <g id="mpl_toolkits.axisartist.axis_artist_5">
    <g>
     <use style="fill:none;stroke:#262626;" x="72.0" xlink:href="#m4376adbf70" y="291.6"/>
     <use style="fill:none;stroke:#262626;" x="72.0" xlink:href="#m4376adbf70" y="291.6"/>
    </g>
    <g>
     <use style="fill:none;stroke:#262626;" x="161.28" xlink:href="#m4376adbf70" y="291.6"/>
     <use style="fill:none;stroke:#262626;" x="161.28" xlink:href="#m4376adbf70" y="291.6"/>
    </g>
    <g>
     <use style="fill:none;stroke:#262626;" x="250.56" xlink:href="#m4376adbf70" y="291.6"/>
     <use style="fill:none;stroke:#262626;" x="250.56" xlink:href="#m4376adbf70" y="291.6"/>
    </g>
    <g>
     <use style="fill:none;stroke:#262626;" x="339.84" xlink:href="#m4376adbf70" y="291.6"/>
     <use style="fill:none;stroke:#262626;" x="339.84" xlink:href="#m4376adbf70" y="291.6"/>
    </g>
    <g>
     <use style="fill:none;stroke:#262626;" x="429.12" xlink:href="#m4376adbf70" y="291.6"/>
     <use style="fill:none;stroke:#262626;" x="429.12" xlink:href="#m4376adbf70" y="291.6"/>
    </g>
    <g>
     <use style="fill:none;stroke:#262626;" x="518.4" xlink:href="#m4376adbf70" y="291.6"/>
     <use style="fill:none;stroke:#262626;" x="518.4" xlink:href="#m4376adbf70" y="291.6"/>
    </g>
    <g id="text_15">
     <!-- 0 -->
     <g style="fill:#262626;" transform="translate(69.66640625 305.7875)scale(0.1 -0.1)">
      <use xlink:href="#ArialMT-30"/>
     </g>
    </g>
    <g id="text_16">
     <!-- 20 -->
     <g style="fill:#262626;" transform="translate(156.105 305.7875)scale(0.1 -0.1)">
      <use xlink:href="#ArialMT-32"/>
      <use x="55.615234375" xlink:href="#ArialMT-30"/>
     </g>
    </g>
    <g id="text_17">
     <!-- 40 -->
     <g style="fill:#262626;" transform="translate(245.30140625 305.7875)scale(0.1 -0.1)">
      <use xlink:href="#ArialMT-34"/>
      <use x="55.615234375" xlink:href="#ArialMT-30"/>
     </g>
    </g>
    <g id="text_18">
     <!-- 60 -->
     <g style="fill:#262626;" transform="translate(334.70640625 305.7875)scale(0.1 -0.1)">
      <use xlink:href="#ArialMT-36"/>
      <use x="55.615234375" xlink:href="#ArialMT-30"/>
     </g>
    </g>
    <g id="text_19">
     <!-- 80 -->
     <g style="fill:#262626;" transform="translate(424.00046875 305.7875)scale(0.1 -0.1)">
      <use xlink:href="#ArialMT-38"/>
      <use x="55.615234375" xlink:href="#ArialMT-30"/>
     </g>
    </g>
    <g id="text_20">
     <!-- 100 -->
     <g style="fill:#262626;" transform="translate(510.8421875 305.7875)scale(0.1 -0.1)">
      <use xlink:href="#ArialMT-31"/>
      <use x="55.615234375" xlink:href="#ArialMT-30"/>
      <use x="111.23046875" xlink:href="#ArialMT-30"/>
     </g>
    </g>
    <g id="line2d_6">
     <path d="
M72 291.6
L518.4 291.6" style="fill:none;"/>
    </g>
    <g id="text_21">
     <!-- Included subreddits (%; descending popularity) -->
     <defs>
      <path d="
M9.32812 0
L9.32812 71.5781
L18.7969 71.5781
L18.7969 0
z
" id="ArialMT-49"/>
      <path d="
M14.7031 0
L6.54688 0
L6.54688 71.5781
L15.3281 71.5781
L15.3281 46.0469
Q20.9062 53.0312 29.5469 53.0312
Q34.3281 53.0312 38.5938 51.0938
Q42.875 49.1719 45.625 45.6719
Q48.3906 42.1875 49.9531 37.25
Q51.5156 32.3281 51.5156 26.7031
Q51.5156 13.375 44.9219 6.09375
Q38.3281 -1.17188 29.1094 -1.17188
Q19.9219 -1.17188 14.7031 6.5
z

M14.5938 26.3125
Q14.5938 17 17.1406 12.8438
Q21.2969 6.0625 28.375 6.0625
Q34.125 6.0625 38.3281 11.0625
Q42.5312 16.0625 42.5312 25.9844
Q42.5312 36.1406 38.5 40.9688
Q34.4688 45.7969 28.7656 45.7969
Q23 45.7969 18.7969 40.7969
Q14.5938 35.7969 14.5938 26.3125" id="ArialMT-62"/>
      <path d="
M8.89062 41.8438
L8.89062 51.8594
L18.8906 51.8594
L18.8906 41.8438
z

M8.89062 0
L8.89062 10.0156
L18.8906 10.0156
L18.8906 0
Q18.8906 -5.51562 16.9375 -8.90625
Q14.9844 -12.3125 10.75 -14.1562
L8.29688 -10.4062
Q11.0781 -9.1875 12.3906 -6.8125
Q13.7188 -4.4375 13.875 0
z
" id="ArialMT-3b"/>
      <path d="
M40.2344 0
L40.2344 6.54688
Q35.2969 -1.17188 25.7344 -1.17188
Q19.5312 -1.17188 14.3281 2.25
Q9.125 5.67188 6.26562 11.7969
Q3.42188 17.9219 3.42188 25.875
Q3.42188 33.6406 6 39.9688
Q8.59375 46.2969 13.7656 49.6562
Q18.9531 53.0312 25.3438 53.0312
Q30.0312 53.0312 33.6875 51.0469
Q37.3594 49.0781 39.6562 45.9062
L39.6562 71.5781
L48.3906 71.5781
L48.3906 0
z

M12.4531 25.875
Q12.4531 15.9219 16.6406 10.9844
Q20.8438 6.0625 26.5625 6.0625
Q32.3281 6.0625 36.3438 10.7656
Q40.375 15.4844 40.375 25.1406
Q40.375 35.7969 36.2656 40.7656
Q32.1719 45.75 26.1719 45.75
Q20.3125 45.75 16.375 40.9688
Q12.4531 36.1875 12.4531 25.875" id="ArialMT-64"/>
     </defs>
     <g style="fill:#262626;" transform="translate(149.9325 321.1009375)scale(0.14 -0.14)">
      <use xlink:href="#ArialMT-49"/>
      <use x="27.783203125" xlink:href="#ArialMT-6e"/>
      <use x="83.3984375" xlink:href="#ArialMT-63"/>
      <use x="133.3984375" xlink:href="#ArialMT-6c"/>
      <use x="155.615234375" xlink:href="#ArialMT-75"/>
      <use x="211.23046875" xlink:href="#ArialMT-64"/>
      <use x="266.845703125" xlink:href="#ArialMT-65"/>
      <use x="322.4609375" xlink:href="#ArialMT-64"/>
      <use x="378.076171875" xlink:href="#ArialMT-20"/>
      <use x="405.859375" xlink:href="#ArialMT-73"/>
      <use x="455.859375" xlink:href="#ArialMT-75"/>
      <use x="511.474609375" xlink:href="#ArialMT-62"/>
      <use x="567.08984375" xlink:href="#ArialMT-72"/>
      <use x="600.390625" xlink:href="#ArialMT-65"/>
      <use x="656.005859375" xlink:href="#ArialMT-64"/>
      <use x="711.62109375" xlink:href="#ArialMT-64"/>
      <use x="767.236328125" xlink:href="#ArialMT-69"/>
      <use x="789.453125" xlink:href="#ArialMT-74"/>
      <use x="817.236328125" xlink:href="#ArialMT-73"/>
      <use x="867.236328125" xlink:href="#ArialMT-20"/>
      <use x="895.01953125" xlink:href="#ArialMT-28"/>
      <use x="928.3203125" xlink:href="#ArialMT-25"/>
      <use x="1017.23632812" xlink:href="#ArialMT-3b"/>
      <use x="1045.01953125" xlink:href="#ArialMT-20"/>
      <use x="1072.80273438" xlink:href="#ArialMT-64"/>
      <use x="1128.41796875" xlink:href="#ArialMT-65"/>
      <use x="1184.03320312" xlink:href="#ArialMT-73"/>
      <use x="1234.03320312" xlink:href="#ArialMT-63"/>
      <use x="1284.03320312" xlink:href="#ArialMT-65"/>
      <use x="1339.6484375" xlink:href="#ArialMT-6e"/>
      <use x="1395.26367188" xlink:href="#ArialMT-64"/>
      <use x="1450.87890625" xlink:href="#ArialMT-69"/>
      <use x="1473.09570312" xlink:href="#ArialMT-6e"/>
      <use x="1528.7109375" xlink:href="#ArialMT-67"/>
      <use x="1584.32617188" xlink:href="#ArialMT-20"/>
      <use x="1612.109375" xlink:href="#ArialMT-70"/>
      <use x="1667.72460938" xlink:href="#ArialMT-6f"/>
      <use x="1723.33984375" xlink:href="#ArialMT-70"/>
      <use x="1778.95507812" xlink:href="#ArialMT-75"/>
      <use x="1834.5703125" xlink:href="#ArialMT-6c"/>
      <use x="1856.78710938" xlink:href="#ArialMT-61"/>
      <use x="1912.40234375" xlink:href="#ArialMT-72"/>
      <use x="1945.703125" xlink:href="#ArialMT-69"/>
      <use x="1967.91992188" xlink:href="#ArialMT-74"/>
      <use x="1995.703125" xlink:href="#ArialMT-79"/>
      <use x="2045.703125" xlink:href="#ArialMT-29"/>
     </g>
    </g>
   </g>
  </g>
  <g id="text_22">
   <!-- Diminishing returns with inclusion of sparse features -->
   <defs>
    <path d="
M8.6875 0
L8.6875 45.0156
L0.921875 45.0156
L0.921875 51.8594
L8.6875 51.8594
L8.6875 57.375
Q8.6875 62.5938 9.625 65.1406
Q10.8906 68.5625 14.0781 70.6719
Q17.2812 72.7969 23.0469 72.7969
Q26.7656 72.7969 31.25 71.9219
L29.9375 64.2656
Q27.2031 64.75 24.75 64.75
Q20.75 64.75 19.0938 63.0312
Q17.4375 61.3281 17.4375 56.6406
L17.4375 51.8594
L27.5469 51.8594
L27.5469 45.0156
L17.4375 45.0156
L17.4375 0
z
" id="ArialMT-66"/>
    <path d="
M7.71875 0
L7.71875 71.5781
L32.375 71.5781
Q40.7188 71.5781 45.125 70.5625
Q51.2656 69.1406 55.6094 65.4375
Q61.2812 60.6406 64.0781 53.1875
Q66.8906 45.75 66.8906 36.1875
Q66.8906 28.0312 64.9844 21.7344
Q63.0938 15.4375 60.1094 11.2969
Q57.125 7.17188 53.5781 4.79688
Q50.0469 2.4375 45.0469 1.21875
Q40.0469 0 33.5469 0
z

M17.1875 8.45312
L32.4688 8.45312
Q39.5469 8.45312 43.5781 9.76562
Q47.6094 11.0781 50 13.4844
Q53.375 16.8438 55.25 22.5312
Q57.125 28.2188 57.125 36.3281
Q57.125 47.5625 53.4375 53.5938
Q49.75 59.625 44.4844 61.6719
Q40.6719 63.1406 32.2344 63.1406
L17.1875 63.1406
z
" id="ArialMT-44"/>
    <path d="
M6.59375 0
L6.59375 51.8594
L14.4531 51.8594
L14.4531 44.5781
Q16.8906 48.3906 20.9375 50.7031
Q25 53.0312 30.1719 53.0312
Q35.9375 53.0312 39.625 50.6406
Q43.3125 48.25 44.8281 43.9531
Q50.9844 53.0312 60.8438 53.0312
Q68.5625 53.0312 72.7031 48.75
Q76.8594 44.4844 76.8594 35.5938
L76.8594 0
L68.1094 0
L68.1094 32.6719
Q68.1094 37.9375 67.25 40.25
Q66.4062 42.5781 64.1562 43.9844
Q61.9219 45.4062 58.8906 45.4062
Q53.4219 45.4062 49.7969 41.7656
Q46.1875 38.1406 46.1875 30.125
L46.1875 0
L37.4062 0
L37.4062 33.6875
Q37.4062 39.5469 35.25 42.4688
Q33.1094 45.4062 28.2188 45.4062
Q24.5156 45.4062 21.3594 43.4531
Q18.2188 41.5 16.7969 37.7344
Q15.375 33.9844 15.375 26.9062
L15.375 0
z
" id="ArialMT-6d"/>
   </defs>
   <g style="fill:#262626;" transform="translate(103.7925 18.1275)scale(0.16 -0.16)">
    <use xlink:href="#ArialMT-44"/>
    <use x="72.216796875" xlink:href="#ArialMT-69"/>
    <use x="94.43359375" xlink:href="#ArialMT-6d"/>
    <use x="177.734375" xlink:href="#ArialMT-69"/>
    <use x="199.951171875" xlink:href="#ArialMT-6e"/>
    <use x="255.56640625" xlink:href="#ArialMT-69"/>
    <use x="277.783203125" xlink:href="#ArialMT-73"/>
    <use x="327.783203125" xlink:href="#ArialMT-68"/>
    <use x="383.3984375" xlink:href="#ArialMT-69"/>
    <use x="405.615234375" xlink:href="#ArialMT-6e"/>
    <use x="461.23046875" xlink:href="#ArialMT-67"/>
    <use x="516.845703125" xlink:href="#ArialMT-20"/>
    <use x="544.62890625" xlink:href="#ArialMT-72"/>
    <use x="577.9296875" xlink:href="#ArialMT-65"/>
    <use x="633.544921875" xlink:href="#ArialMT-74"/>
    <use x="661.328125" xlink:href="#ArialMT-75"/>
    <use x="716.943359375" xlink:href="#ArialMT-72"/>
    <use x="750.244140625" xlink:href="#ArialMT-6e"/>
    <use x="805.859375" xlink:href="#ArialMT-73"/>
    <use x="855.859375" xlink:href="#ArialMT-20"/>
    <use x="883.642578125" xlink:href="#ArialMT-77"/>
    <use x="955.859375" xlink:href="#ArialMT-69"/>
    <use x="978.076171875" xlink:href="#ArialMT-74"/>
    <use x="1005.859375" xlink:href="#ArialMT-68"/>
    <use x="1061.47460938" xlink:href="#ArialMT-20"/>
    <use x="1089.2578125" xlink:href="#ArialMT-69"/>
    <use x="1111.47460938" xlink:href="#ArialMT-6e"/>
    <use x="1167.08984375" xlink:href="#ArialMT-63"/>
    <use x="1217.08984375" xlink:href="#ArialMT-6c"/>
    <use x="1239.30664062" xlink:href="#ArialMT-75"/>
    <use x="1294.921875" xlink:href="#ArialMT-73"/>
    <use x="1344.921875" xlink:href="#ArialMT-69"/>
    <use x="1367.13867188" xlink:href="#ArialMT-6f"/>
    <use x="1422.75390625" xlink:href="#ArialMT-6e"/>
    <use x="1478.36914062" xlink:href="#ArialMT-20"/>
    <use x="1506.15234375" xlink:href="#ArialMT-6f"/>
    <use x="1561.76757812" xlink:href="#ArialMT-66"/>
    <use x="1589.55078125" xlink:href="#ArialMT-20"/>
    <use x="1617.33398438" xlink:href="#ArialMT-73"/>
    <use x="1667.33398438" xlink:href="#ArialMT-70"/>
    <use x="1722.94921875" xlink:href="#ArialMT-61"/>
    <use x="1778.56445312" xlink:href="#ArialMT-72"/>
    <use x="1811.86523438" xlink:href="#ArialMT-73"/>
    <use x="1861.86523438" xlink:href="#ArialMT-65"/>
    <use x="1917.48046875" xlink:href="#ArialMT-20"/>
    <use x="1945.26367188" xlink:href="#ArialMT-66"/>
    <use x="1973.046875" xlink:href="#ArialMT-65"/>
    <use x="2028.66210938" xlink:href="#ArialMT-61"/>
    <use x="2084.27734375" xlink:href="#ArialMT-74"/>
    <use x="2112.06054688" xlink:href="#ArialMT-75"/>
    <use x="2167.67578125" xlink:href="#ArialMT-72"/>
    <use x="2200.9765625" xlink:href="#ArialMT-65"/>
    <use x="2256.59179688" xlink:href="#ArialMT-73"/>
   </g>
  </g>
 </g>
 <defs>
  <clipPath id="p9c108a8c4e">
   <rect height="259.2" width="446.4" x="72.0" y="32.4"/>
  </clipPath>
 </defs>
</svg>
